SplineFontDB: 3.2
FontName: Estedad-FD-VF-KBold
FullName: Estedad-FD-VF KBold
FamilyName: Estedad-FD-VF KBold
Weight: KBold
Copyright: Copyright (c) 2020 by Amin Abedi (@aminabedi68)-www.fontamin.com,\nwith Reserved Font Name Estedad.\n\nThis Font Software is licensed under the SIL Open Font License, Version 1.1.
Version: 5.0
ItalicAngle: 0
UnderlinePosition: -750
UnderlineWidth: 150
Ascent: 1638
Descent: 410
InvalidEm: 0
LayerCount: 2
Layer: 0 0 "Back" 1
Layer: 1 0 "Fore" 0
StyleMap: 0x0040
FSType: 0
OS2Version: 0
OS2_WeightWidthSlopeOnly: 0
OS2_UseTypoMetrics: 1
CreationTime: 1606497486
ModificationTime: 1612945762
PfmFamily: 17
TTFWeight: 700
TTFWidth: 5
LineGap: 0
VLineGap: 0
OS2TypoAscent: 2400
OS2TypoAOffset: 0
OS2TypoDescent: -1200
OS2TypoDOffset: 0
OS2TypoLinegap: 0
OS2WinAscent: 2400
OS2WinAOffset: 0
OS2WinDescent: 1200
OS2WinDOffset: 0
HheadAscent: 2400
HheadAOffset: 0
HheadDescent: -1200
HheadDOffset: 0
OS2CapHeight: 1500
OS2XHeight: 1090
OS2Vendor: 'amin'
Lookup: 4 0 0 "'ccmp' Glyph Composition Decomposition lookup 0" { "'ccmp' Glyph Composition Decomposition lookup 0 subtable"  } ['ccmp' ('DFLT' <'dflt' > 'arab' <'FAR ' 'MLY ' 'SND ' 'URD ' 'dflt' > ) ]
Lookup: 1 1 0 "'locl' Localized Forms in Arabic lookup 5" { "'locl' Localized Forms in Arabic lookup 5 subtable"  } ['locl' ('arab' <'URD ' > ) ]
Lookup: 1 1 0 "'locl' Localized Forms in Arabic lookup 6" { "'locl' Localized Forms in Arabic lookup 6 subtable"  } ['locl' ('arab' <'FAR ' > ) ]
Lookup: 1 0 0 "Single Substitution 1" { "Single Substitution 1 subtable"  } []
Lookup: 1 0 0 "Single Substitution 2" { "Single Substitution 2 subtable"  } []
Lookup: 1 9 0 "'isol' Isolated Forms in Arabic lookup 11" { "'isol' Isolated Forms in Arabic lookup 11 subtable"  } ['isol' ('DFLT' <'dflt' > 'arab' <'FAR ' 'MLY ' 'SND ' 'URD ' 'dflt' > ) ]

StartChar: A
Encoding: 65 65 0
Width: 1396
GlyphClass: 2
Flags: HW
LayerCount: 2
Fore
SplineSet
440 338 m 1
 326 0 l 1
 -3 0 l 1
 532 1462 l 1
 867 1462 l 1
 1399 0 l 1
 1071 0 l 1
 957 338 l 1
 440 338 l 1
518 578 m 1
 880 578 l 1
 700 1109 l 1
 518 578 l 1
EndSplineSet
Substitution2: "'c2sc' Capitals to Small Capitals in Latin lookup 0 subtable" uni1D00
EndChar

StartChar: AE
Encoding: 198 198 1
Width: 1758
GlyphClass: 2
Flags: HW
LayerCount: 2
Fore
SplineSet
828 1198 m 1
 785 1198 l 1
 578 642 l 1
 828 642 l 1
 828 1198 l 1
607 1462 m 1
 1678 1462 l 1
 1678 1198 l 1
 1136 1198 l 1
 1136 852 l 1
 1624 852 l 1
 1624 609 l 1
 1136 609 l 1
 1136 261 l 1
 1678 261 l 1
 1678 0 l 1
 828 0 l 1
 828 402 l 1
 491 402 l 1
 342 0 l 1
 14 0 l 1
 607 1462 l 1
EndSplineSet
EndChar

StartChar: B
Encoding: 66 66 8
Width: 1366
GlyphClass: 2
Flags: HW
LayerCount: 2
Fore
SplineSet
142 1462 m 1
 754 1462 l 2
 1034 1462 1211 1316 1211 1044 c 0
 1211 904 1149 794 1038 735 c 1
 1169 683 1259 551 1259 386 c 0
 1259 110 1090 0 792 0 c 2
 142 0 l 1
 142 1462 l 1
450 1198 m 1
 450 847 l 1
 716 847 l 2
 829 847 901 907 901 1024 c 0
 901 1140 830 1198 716 1198 c 2
 450 1198 l 1
450 615 m 1
 450 261 l 1
 768 261 l 2
 881 261 954 321 954 438 c 0
 954 554 882 615 768 615 c 2
 450 615 l 1
EndSplineSet
Substitution2: "'c2sc' Capitals to Small Capitals in Latin lookup 0 subtable" uni0299
EndChar

StartChar: C
Encoding: 67 67 9
Width: 1464
GlyphClass: 2
Flags: HW
LayerCount: 2
Fore
SplineSet
402 730 m 0
 402 430 516 252 736 252 c 0
 905 252 1011 361 1034 509 c 1
 1356 505 l 1
 1342 230 1096 -11 738 -11 c 0
 334 -11 94 285 94 730 c 0
 94 1175 334 1472 738 1472 c 0
 1096 1472 1342 1231 1356 956 c 1
 1034 951 l 1
 1011 1099 905 1209 736 1209 c 0
 516 1209 402 1030 402 730 c 0
EndSplineSet
Substitution2: "'c2sc' Capitals to Small Capitals in Latin lookup 0 subtable" uni1D04
EndChar

StartChar: D
Encoding: 68 68 11
Width: 1407
GlyphClass: 2
Flags: HW
LayerCount: 2
Fore
SplineSet
1312 730 m 0
 1312 345 1119 0 637 0 c 2
 145 0 l 1
 145 1462 l 1
 637 1462 l 2
 1119 1462 1312 1115 1312 730 c 0
1003 730 m 0
 1003 1052 903 1198 637 1198 c 2
 452 1198 l 1
 452 261 l 1
 637 261 l 2
 903 261 1003 407 1003 730 c 0
EndSplineSet
Substitution2: "'c2sc' Capitals to Small Capitals in Latin lookup 0 subtable" uni1D05
EndChar

StartChar: E
Encoding: 69 69 12
Width: 1117
GlyphClass: 2
Flags: HW
LayerCount: 2
Fore
SplineSet
1074 261 m 1
 1074 0 l 1
 145 0 l 1
 145 1462 l 1
 1074 1462 l 1
 1074 1198 l 1
 452 1198 l 1
 452 852 l 1
 1018 852 l 1
 1018 609 l 1
 452 609 l 1
 452 261 l 1
 1074 261 l 1
EndSplineSet
Substitution2: "'c2sc' Capitals to Small Capitals in Latin lookup 0 subtable" uni1D07
EndChar

StartChar: F
Encoding: 70 70 18
Width: 1114
GlyphClass: 2
Flags: HW
LayerCount: 2
Fore
SplineSet
452 0 m 1
 145 0 l 1
 145 1462 l 1
 1074 1462 l 1
 1074 1198 l 1
 452 1198 l 1
 452 808 l 1
 954 808 l 1
 954 566 l 1
 452 566 l 1
 452 0 l 1
EndSplineSet
Substitution2: "'c2sc' Capitals to Small Capitals in Latin lookup 0 subtable" uniA730
EndChar

StartChar: G
Encoding: 71 71 19
Width: 1529
GlyphClass: 2
Flags: HW
LayerCount: 2
Back
SplineSet
725.75 808 m 1
 1415.5 808 l 1
 1415.5 527 l 2
 1415.5 208.5 1226.5 -11.75 810.75 -11.75 c 0
 337.25 -11.75 107.25 324.25 107.25 728.75 c 0
 107.25 1134.75 347.5 1471.75 782.5 1471.75 c 0
 1089 1471.75 1269 1292 1350.5 1067 c 1
 1111 972.25 l 1
 1060 1111.75 950.5 1208.75 783.25 1208.75 c 0
 565 1208.75 415.75 1049.5 415.75 728.75 c 0
 415.75 408 550.25 252.75 817.75 252.75 c 0
 1001 252.75 1108.25 318 1108.25 468.75 c 2
 1108.25 565.75 l 1
 725.75 565.75 l 1
 725.75 808 l 1
EndSplineSet
Fore
SplineSet
726 808 m 1
 1416 808 l 1
 1416 248 l 1
 1279 81 1083 -12 812 -12 c 0
 385 -12 107 280 107 729 c 0
 107 1171 381 1472 782 1472 c 0
 1052 1472 1256 1327 1350 1067 c 1
 1111 972 l 1
 1055 1124 938 1209 783 1209 c 0
 552 1209 416 1031 416 729 c 0
 416 411 548 253 816 253 c 0
 917 253 1051 283 1108 318 c 1
 1108 566 l 1
 726 566 l 1
 726 808 l 1
EndSplineSet
Substitution2: "'c2sc' Capitals to Small Capitals in Latin lookup 0 subtable" uni0262
EndChar

StartChar: GAFbar
Encoding: 1114112 -1 20
Width: 1075
GlyphClass: 2
Flags: HW
LayerCount: 2
Fore
SplineSet
849 2136 m 1
 885 1982 l 1
 624 1920 351 1807 118 1665 c 1
 35 1801 l 1
 284 1951 567 2070 849 2136 c 1
EndSplineSet
EndChar

StartChar: H
Encoding: 72 72 21
Width: 1466
GlyphClass: 2
Flags: HW
LayerCount: 2
Fore
SplineSet
1014 1462 m 1
 1321 1462 l 1
 1321 0 l 1
 1014 0 l 1
 1014 609 l 1
 452 609 l 1
 452 0 l 1
 145 0 l 1
 145 1462 l 1
 452 1462 l 1
 452 852 l 1
 1014 852 l 1
 1014 1462 l 1
EndSplineSet
Substitution2: "'c2sc' Capitals to Small Capitals in Latin lookup 0 subtable" uni029C
EndChar

StartChar: I
Encoding: 73 73 24
Width: 664
GlyphClass: 2
Flags: HW
LayerCount: 2
Fore
SplineSet
486 0 m 1
 178 0 l 1
 178 1462 l 1
 486 1462 l 1
 486 0 l 1
EndSplineSet
Substitution2: "'c2sc' Capitals to Small Capitals in Latin lookup 0 subtable" uni026A
EndChar

StartChar: J
Encoding: 74 74 29
Width: 793
GlyphClass: 2
Flags: HW
LayerCount: 2
Fore
SplineSet
62 35 m 1
 104 236 l 1
 142 226 182 221 216 221 c 0
 297 221 343 256 343 329 c 2
 343 1462 l 1
 650 1462 l 1
 650 293 l 2
 650 72 491 -11 306 -11 c 0
 223 -11 137 6 62 35 c 1
EndSplineSet
Substitution2: "'c2sc' Capitals to Small Capitals in Latin lookup 0 subtable" uni1D0A
EndChar

StartChar: K
Encoding: 75 75 30
Width: 1392
GlyphClass: 2
Flags: HW
LayerCount: 2
Fore
SplineSet
1013 1462 m 1
 1376 1462 l 1
 765 729 l 1
 1376 0 l 1
 1013 0 l 1
 597 526 l 1
 452 354 l 1
 452 0 l 1
 145 0 l 1
 145 1462 l 1
 452 1462 l 1
 452 782 l 1
 1013 1462 l 1
EndSplineSet
Substitution2: "'c2sc' Capitals to Small Capitals in Latin lookup 0 subtable" uni1D0B
EndChar

StartChar: L
Encoding: 76 76 31
Width: 1124
GlyphClass: 2
Flags: HW
LayerCount: 2
Fore
SplineSet
1078 261 m 1
 1078 0 l 1
 145 0 l 1
 145 1462 l 1
 452 1462 l 1
 452 261 l 1
 1078 261 l 1
EndSplineSet
Substitution2: "'c2sc' Capitals to Small Capitals in Latin lookup 0 subtable" uni029F
EndChar

StartChar: M
Encoding: 77 77 32
Width: 1914
GlyphClass: 2
Flags: HW
LayerCount: 2
Fore
SplineSet
452 0 m 1
 145 0 l 1
 145 1462 l 1
 505 1462 l 1
 956 301 l 1
 1409 1462 l 1
 1772 1462 l 1
 1772 0 l 1
 1464 0 l 1
 1464 961 l 1
 1103 0 l 1
 807 0 l 1
 452 960 l 1
 452 0 l 1
EndSplineSet
Substitution2: "'c2sc' Capitals to Small Capitals in Latin lookup 0 subtable" uni1D0D
EndChar

StartChar: N
Encoding: 78 78 33
Width: 1474
GlyphClass: 2
Flags: HW
LayerCount: 2
Fore
SplineSet
1024 1462 m 1
 1332 1462 l 1
 1332 0 l 1
 1036 0 l 1
 452 942 l 1
 452 0 l 1
 145 0 l 1
 145 1462 l 1
 439 1462 l 1
 1024 518 l 1
 1024 1462 l 1
EndSplineSet
Substitution2: "'c2sc' Capitals to Small Capitals in Latin lookup 0 subtable" uni0274
EndChar

StartChar: O
Encoding: 79 79 35
Width: 1516
GlyphClass: 2
Flags: HW
LayerCount: 2
Fore
SplineSet
759 1472 m 0
 1225 1472 1421 1129 1421 730 c 0
 1421 331 1223 -11 759 -11 c 0
 295 -11 95 331 95 730 c 0
 95 1129 293 1472 759 1472 c 0
759 1206 m 0
 547 1206 406 1050 406 730 c 0
 406 410 544 254 759 254 c 0
 974 254 1112 410 1112 730 c 0
 1112 1050 971 1206 759 1206 c 0
EndSplineSet
Substitution2: "'c2sc' Capitals to Small Capitals in Latin lookup 0 subtable" uni1D0F
EndChar

StartChar: OE
Encoding: 338 338 36
Width: 1795
GlyphClass: 2
Flags: HW
LayerCount: 2
Fore
SplineSet
906 1198 m 1
 788 1198 l 1
 554 1198 406 1045 406 730 c 0
 406 414 554 261 788 261 c 1
 906 261 l 1
 906 1198 l 1
1214 1198 m 1
 1214 852 l 1
 1701 852 l 1
 1701 609 l 1
 1214 609 l 1
 1214 261 l 1
 1756 261 l 1
 1756 0 l 1
 788 0 l 2
 335 0 97 330 97 730 c 0
 97 1130 335 1462 788 1462 c 2
 1756 1462 l 1
 1756 1198 l 1
 1214 1198 l 1
EndSplineSet
EndChar

StartChar: P
Encoding: 80 80 43
Width: 1338
GlyphClass: 2
Flags: HW
LayerCount: 2
Fore
SplineSet
450 0 m 1
 142 0 l 1
 142 1462 l 1
 744 1462 l 2
 1070 1462 1246 1297 1246 999 c 0
 1246 701 1071 536 744 536 c 2
 450 536 l 1
 450 0 l 1
450 1198 m 1
 450 800 l 1
 736 800 l 2
 871 800 939 875 939 1000 c 0
 939 1125 872 1198 736 1198 c 2
 450 1198 l 1
EndSplineSet
Substitution2: "'c2sc' Capitals to Small Capitals in Latin lookup 0 subtable" uni1D18
EndChar

StartChar: R
Encoding: 82 82 45
Width: 1336
GlyphClass: 2
Flags: HW
LayerCount: 2
Fore
SplineSet
959 699 m 1
 1327 0 l 1
 1024 0 l 1
 691 699 l 1
 959 699 l 1
EndSplineSet
Refer: 43 80 N 1 0 0 1 0 0 2
Substitution2: "'c2sc' Capitals to Small Capitals in Latin lookup 0 subtable" uni0280
EndChar

StartChar: S
Encoding: 83 83 46
Width: 1259
GlyphClass: 2
Flags: HW
LayerCount: 2
Fore
SplineSet
90 486 m 1
 392 486 l 1
 392 336 479 254 648 254 c 0
 775 254 867 306 867 412 c 0
 867 528 706 574 608 602 c 0
 393 662 125 763 125 1054 c 0
 125 1322 340 1472 606 1472 c 0
 940 1472 1151 1285 1151 1000 c 1
 848 1000 l 1
 848 1125 771 1207 627 1207 c 0
 508 1207 428 1152 428 1057 c 0
 428 939 597 893 697 864 c 0
 911 806 1170 699 1170 408 c 0
 1170 118 916 -11 660 -11 c 0
 318 -11 90 159 90 486 c 1
EndSplineSet
Substitution2: "'c2sc' Capitals to Small Capitals in Latin lookup 0 subtable" uniA731
EndChar

StartChar: T
Encoding: 84 84 47
Width: 1330
GlyphClass: 2
Flags: HW
LayerCount: 2
Fore
SplineSet
820 0 m 1
 512 0 l 1
 512 1198 l 1
 47 1198 l 1
 47 1462 l 1
 1284 1462 l 1
 1284 1198 l 1
 820 1198 l 1
 820 0 l 1
EndSplineSet
Substitution2: "'c2sc' Capitals to Small Capitals in Latin lookup 0 subtable" uni1D1B
EndChar

StartChar: Thorn
Encoding: 222 222 54
Width: 1338
GlyphClass: 2
Flags: HW
LayerCount: 2
Fore
SplineSet
450 532 m 1
 713 532 l 2
 852 532 940 584 940 731 c 0
 940 879 849 930 713 930 c 2
 450 930 l 1
 450 532 l 1
450 0 m 1
 143 0 l 1
 143 1462 l 1
 450 1462 l 1
 450 1192 l 1
 713 1192 l 2
 1007 1192 1248 1031 1248 731 c 0
 1248 430 1002 268 713 268 c 2
 450 268 l 1
 450 0 l 1
EndSplineSet
EndChar

StartChar: U
Encoding: 85 85 55
Width: 1471
GlyphClass: 2
Flags: HW
LayerCount: 2
Fore
SplineSet
1030 1462 m 1
 1338 1462 l 1
 1338 532 l 2
 1338 188 1128 -11 736 -11 c 0
 344 -11 134 188 134 532 c 2
 134 1462 l 1
 441 1462 l 1
 441 533 l 2
 441 371 522 267 736 267 c 0
 950 267 1030 371 1030 533 c 2
 1030 1462 l 1
EndSplineSet
Substitution2: "'c2sc' Capitals to Small Capitals in Latin lookup 0 subtable" uni1D1C
EndChar

StartChar: V
Encoding: 86 86 60
Width: 1396
GlyphClass: 2
Flags: HW
LayerCount: 2
Fore
SplineSet
698 352 m 1
 1071 1462 l 1
 1399 1462 l 1
 866 0 l 1
 530 0 l 1
 -3 1462 l 1
 326 1462 l 1
 698 352 l 1
EndSplineSet
Substitution2: "'c2sc' Capitals to Small Capitals in Latin lookup 0 subtable" uni1D20
EndChar

StartChar: W
Encoding: 87 87 61
Width: 1958
GlyphClass: 2
Flags: HW
LayerCount: 2
Fore
SplineSet
1611 1462 m 1
 1930 1462 l 1
 1530 0 l 1
 1228 0 l 1
 980 1000 l 1
 727 0 l 1
 427 0 l 1
 28 1462 l 1
 347 1462 l 1
 594 449 l 1
 840 1462 l 1
 1118 1462 l 1
 1363 449 l 1
 1611 1462 l 1
EndSplineSet
Substitution2: "'c2sc' Capitals to Small Capitals in Latin lookup 0 subtable" uni1D21
EndChar

StartChar: X
Encoding: 88 88 62
Width: 1436
GlyphClass: 2
Flags: HW
LayerCount: 2
Fore
SplineSet
1428 0 m 1
 1066 0 l 1
 719 496 l 1
 371 0 l 1
 10 0 l 1
 550 729 l 1
 10 1462 l 1
 371 1462 l 1
 719 964 l 1
 1066 1462 l 1
 1428 1462 l 1
 887 729 l 1
 1428 0 l 1
EndSplineSet
Substitution2: "'c2sc' Capitals to Small Capitals in Latin lookup 0 subtable" uniA7EF
EndChar

StartChar: Y
Encoding: 89 89 63
Width: 1390
GlyphClass: 2
Flags: HW
LayerCount: 2
Fore
SplineSet
1041 1462 m 1
 1397 1462 l 1
 851 634 l 1
 851 0 l 1
 542 0 l 1
 542 634 l 1
 -7 1462 l 1
 351 1462 l 1
 696 886 l 1
 1041 1462 l 1
EndSplineSet
Substitution2: "'c2sc' Capitals to Small Capitals in Latin lookup 0 subtable" uni028F
EndChar

StartChar: Z
Encoding: 90 90 65
Width: 1224
GlyphClass: 2
Flags: HW
LayerCount: 2
Fore
SplineSet
64 1198 m 1
 64 1462 l 1
 1160 1462 l 1
 1160 1245 l 1
 415 261 l 1
 1160 261 l 1
 1160 0 l 1
 64 0 l 1
 64 216 l 1
 811 1198 l 1
 64 1198 l 1
EndSplineSet
Substitution2: "'c2sc' Capitals to Small Capitals in Latin lookup 0 subtable" uni1D22
EndChar

StartChar: a
Encoding: 97 97 66
Width: 1129
GlyphClass: 2
Flags: HW
LayerCount: 2
Back
SplineSet
804 317 m 1
 746.75 137.25 631 -11 378.75 -11 c 0
 184.5 -11 70.5 100.5 70.5 290.5 c 0
 70.5 533.5 277.5 658.75 512.25 658.75 c 0
 630 658.75 724.25 638.25 817 611 c 1
 718 452.75 l 1
 666.75 465.75 617.25 471.25 560.25 471.25 c 0
 427.75 471.25 341.25 414 341.25 320.75 c 0
 341.25 251.5 382.75 207.75 477.5 207.75 c 0
 594.5 207.75 671.25 277.75 708.25 322.25 c 1
 804 317 l 1
1007.5 713.5 m 1
 1007.5 0 l 1
 715 0 l 1
 700 153.5 l 1
 700 706.75 l 1
 700 809.75 592.75 854 486.25 854 c 0
 401 854 299 816.75 223.25 761.5 c 1
 105.75 965.5 l 1
 191.25 1037.75 357 1109.25 520.75 1109.25 c 0
 777.25 1109.25 1007.5 971 1007.5 713.5 c 1
EndSplineSet
Fore
SplineSet
554 1109 m 0
 865 1109 1022 957 1022 735 c 2
 1022 289 l 1
 1022 221 1045 186 1118 186 c 1
 1118 -1 l 1
 893 -35 715 43 715 291 c 2
 715 735 l 2
 715 827 656 870 540 870 c 0
 424 870 364 829 364 735 c 1
 102 735 l 1
 88 966 246 1109 554 1109 c 0
EndSplineSet
Refer: 314 57355 N 1 0 0 1 -10 0 2
Substitution2: "'smcp' Lowercase to Small Capitals in Latin lookup 0 subtable" uni1D00
Colour: ffff00
EndChar

StartChar: acute
Encoding: 180 180 69
Width: 514
GlyphClass: 2
Flags: HW
LayerCount: 2
Fore
SplineSet
220 1478 m 1
 439 1478 l 1
 264 1134 l 1
 75 1134 l 1
 220 1478 l 1
EndSplineSet
EndChar

StartChar: ae
Encoding: 230 230 71
Width: 1810
GlyphClass: 2
Flags: HW
LayerCount: 2
Fore
SplineSet
714 300 m 25
 714 735 l 2
 714 827 655 870 539 870 c 0
 423 870 363 829 363 735 c 1
 101 735 l 1
 87 966 246 1109 554 1109 c 0
 865 1109 1022 957 1022 735 c 2
 1022 297 l 1
 714 300 l 25
78 288 m 0
 78 531 295 651 522 651 c 2
 989 651 l 1
 989 453 l 1
 542 453 l 2
 440 453 349 422 349 326 c 0
 349 266 387 216 484 216 c 0
 601 216 680 282 718 330 c 1
 809 324 l 1
 765 200 663 -18 383 -18 c 0
 183 -18 78 96 78 288 c 0
EndSplineSet
Refer: 102 101 N 1 0 0 1 646 0 2
Substitution2: "'c2sc' Capitals to Small Capitals in Latin lookup 0 subtable" uni1D01
Substitution2: "'smcp' Lowercase to Small Capitals in Latin lookup 0 subtable" uni1D01
Colour: ffff00
EndChar

StartChar: ampersand
Encoding: 38 38 73
Width: 1473
GlyphClass: 2
Flags: HW
LayerCount: 2
Fore
SplineSet
190 1095 m 0
 190 1305 347 1464 590 1464 c 0
 830 1464 993 1308 993 1084 c 0
 993 893 872 771 645 654 c 0
 481 569 382 488 382 393 c 0
 382 297 472 242 591 242 c 0
 829 242 1032 474 1032 720 c 1
 1289 720 l 1
 1289 300 1015 -10 598 -10 c 0
 302 -10 102 145 102 397 c 0
 102 591 226 717 487 859 c 0
 647 946 726 1004 726 1095 c 0
 726 1171 673 1222 592 1222 c 0
 508 1222 457 1166 457 1097 c 0
 457 1030 498 968 576 898 c 1
 1374 184 l 1
 1197 -11 l 1
 364 744 l 1
 252 845 190 963 190 1095 c 0
EndSplineSet
EndChar

StartChar: asciicircum
Encoding: 94 94 75
Width: 756
GlyphClass: 2
Flags: HW
LayerCount: 2
Fore
SplineSet
682 1134 m 1
 492 1134 l 1
 378 1353 l 1
 264 1134 l 1
 75 1134 l 1
 222 1478 l 1
 534 1478 l 1
 682 1134 l 1
EndSplineSet
Substitution2: "'tnum' Tabular Numbers lookup 22 subtable" asciicircum.tnum
EndChar

StartChar: asciitilde
Encoding: 126 126 76
Width: 977
GlyphClass: 2
Flags: HW
LayerCount: 2
Fore
SplineSet
82 1192 m 1
 143 1331 233 1404 329 1404 c 0
 398 1404 442 1379 513 1335 c 0
 563 1303 602 1282 643 1282 c 0
 688 1282 734 1306 780 1404 c 1
 895 1343 l 1
 835 1196 746 1134 648 1134 c 0
 581 1134 535 1155 443 1209 c 0
 396 1237 359 1256 330 1256 c 0
 290 1256 245 1238 197 1134 c 1
 82 1192 l 1
EndSplineSet
EndChar

StartChar: asterisk
Encoding: 42 42 77
Width: 1220
GlyphClass: 2
Flags: HW
LayerCount: 2
Fore
SplineSet
155 1052 m 1
 222 1256 l 1
 514 1151 l 1
 502 1462 l 1
 720 1462 l 1
 709 1150 l 1
 1002 1256 l 1
 1068 1052 l 1
 770 966 l 1
 962 718 l 1
 786 592 l 1
 611 851 l 1
 437 592 l 1
 261 718 l 1
 453 966 l 1
 155 1052 l 1
EndSplineSet
Substitution2: "'tnum' Tabular Numbers lookup 22 subtable" asterisk.tnum
EndChar

StartChar: at
Encoding: 64 64 78
Width: 1945
GlyphClass: 2
Flags: HW
LayerCount: 2
Fore
SplineSet
992 773 m 0
 819 773 719 650 719 433 c 0
 719 263 797 185 926 185 c 0
 1055 185 1129 296 1144 458 c 2
 1168 729 l 1
 1124 757 1077 773 992 773 c 0
992 961 m 0
 1171 961 1282 888 1377 814 c 1
 1333 327 l 2
 1331 308 1330 287 1330 280 c 0
 1330 217 1364 190 1425 190 c 0
 1562 190 1624 361 1624 568 c 0
 1624 910 1376 1164 1008 1164 c 0
 614 1164 334 876 334 440 c 0
 334 18 557 -187 963 -187 c 0
 1041 -187 1116 -172 1184 -150 c 1
 1252 -322 l 1
 1163 -353 1067 -373 962 -373 c 0
 443 -373 131 -77 131 438 c 0
 131 981 496 1346 1012 1346 c 0
 1500 1346 1815 1009 1815 557 c 0
 1815 273 1703 -10 1425 -10 c 0
 1321 -10 1243 40 1209 128 c 1
 1149 33 1032 -10 926 -10 c 0
 688 -10 519 163 519 433 c 0
 519 759 696 961 992 961 c 0
EndSplineSet
EndChar

StartChar: b
Encoding: 98 98 80
Width: 1177
GlyphClass: 2
Flags: HW
LayerCount: 2
Fore
SplineSet
439 0 m 1
 132 0 l 1
 132 1518 l 1
 439 1518 l 1
 439 0 l 1
EndSplineSet
Refer: 318 57359 N 1 0 0 1 49 0 2
Substitution2: "'smcp' Lowercase to Small Capitals in Latin lookup 0 subtable" uni0299
EndChar

StartChar: backslash
Encoding: 92 92 81
Width: 1156
GlyphClass: 2
Flags: HW
LayerCount: 2
Fore
SplineSet
1078 0 m 1
 712 0 l 1
 76 1462 l 1
 444 1462 l 1
 1078 0 l 1
EndSplineSet
Substitution2: "'tnum' Tabular Numbers lookup 22 subtable" backslash.tnum
EndChar

StartChar: bar
Encoding: 124 124 82
Width: 684
GlyphClass: 2
Flags: HW
LayerCount: 2
Fore
SplineSet
189 1504 m 1
 496 1504 l 1
 496 -454 l 1
 189 -454 l 1
 189 1504 l 1
EndSplineSet
Substitution2: "'tnum' Tabular Numbers lookup 22 subtable" bar.tnum
EndChar

StartChar: braceleft
Encoding: 123 123 83
Width: 972
GlyphClass: 2
Flags: HW
LayerCount: 2
Fore
SplineSet
389 713 m 1
 501 654 570 525 570 393 c 2
 570 200 l 2
 570 149 607 112 660 112 c 2
 848 112 l 1
 848 -131 l 1
 627 -131 l 2
 451 -131 323 -2 323 162 c 2
 323 393 l 2
 323 497 253 578 169 592 c 2
 91 600 l 1
 91 826 l 1
 169 834 l 2
 253 848 323 930 323 1034 c 2
 323 1264 l 2
 323 1428 450 1556 627 1556 c 2
 848 1556 l 1
 848 1314 l 1
 660 1314 l 2
 607 1314 570 1277 570 1226 c 2
 570 1034 l 2
 570 901 501 772 389 713 c 1
EndSplineSet
Substitution2: "'tnum' Tabular Numbers lookup 22 subtable" braceleft.tnum
EndChar

StartChar: braceright
Encoding: 125 125 84
Width: 972
GlyphClass: 2
Flags: HW
LayerCount: 2
Fore
SplineSet
583 712 m 1
 471 771 402 900 402 1032 c 2
 402 1226 l 2
 402 1277 365 1314 312 1314 c 2
 124 1314 l 1
 124 1556 l 1
 345 1556 l 2
 521 1556 649 1428 649 1264 c 2
 649 1032 l 2
 649 928 719 847 803 833 c 2
 881 825 l 1
 881 600 l 1
 803 591 l 2
 719 577 649 496 649 392 c 2
 649 162 l 2
 649 -2 522 -131 345 -131 c 2
 124 -131 l 1
 124 111 l 1
 312 111 l 2
 365 111 402 148 402 199 c 2
 402 392 l 2
 402 525 471 653 583 712 c 1
EndSplineSet
Substitution2: "'tnum' Tabular Numbers lookup 22 subtable" braceright.tnum
EndChar

StartChar: bracketleft
Encoding: 91 91 85
Width: 714
GlyphClass: 2
Flags: HW
LayerCount: 2
Fore
SplineSet
638 112 m 1
 638 -131 l 1
 113 -131 l 1
 113 1556 l 1
 638 1556 l 1
 638 1314 l 1
 360 1314 l 1
 360 112 l 1
 638 112 l 1
EndSplineSet
Substitution2: "'tnum' Tabular Numbers lookup 22 subtable" bracketleft.tnum
EndChar

StartChar: bracketright
Encoding: 93 93 86
Width: 715
GlyphClass: 2
Flags: HW
LayerCount: 2
Fore
SplineSet
77 1314 m 1
 77 1556 l 1
 602 1556 l 1
 602 -131 l 1
 77 -131 l 1
 77 111 l 1
 355 111 l 1
 355 1314 l 1
 77 1314 l 1
EndSplineSet
Substitution2: "'tnum' Tabular Numbers lookup 22 subtable" bracketright.tnum
EndChar

StartChar: brokenbar
Encoding: 166 166 87
Width: 474
GlyphClass: 2
Flags: HW
LayerCount: 2
Fore
SplineSet
391 877 m 1
 84 877 l 1
 84 1462 l 1
 391 1462 l 1
 391 877 l 1
391 0 m 1
 84 0 l 1
 84 600 l 1
 391 600 l 1
 391 0 l 1
EndSplineSet
EndChar

StartChar: c
Encoding: 99 99 88
Width: 1179
GlyphClass: 2
Flags: HW
LayerCount: 2
Fore
SplineSet
596 1108 m 0
 892 1108 1067 942 1083 690 c 1
 787 684 l 1
 774 809 694 864 595 864 c 0
 467 864 384 774 384 552 c 0
 384 326 467 235 595 235 c 0
 694 235 774 290 787 415 c 1
 1083 410 l 1
 1067 157 892 -10 596 -10 c 0
 250 -10 76 210 76 550 c 0
 76 890 250 1108 596 1108 c 0
EndSplineSet
Substitution2: "'smcp' Lowercase to Small Capitals in Latin lookup 0 subtable" uni1D04
EndChar

StartChar: cedilla
Encoding: 184 184 90
Width: 638
GlyphClass: 2
Flags: HW
LayerCount: 2
Fore
SplineSet
556 -269 m 0
 556 -401 451 -482 282 -482 c 0
 209 -482 143 -466 82 -436 c 1
 134 -314 l 1
 173 -332 232 -344 285 -344 c 0
 362 -344 405 -319 405 -275 c 0
 405 -225 349 -195 257 -195 c 0
 238 -195 219 -196 201 -198 c 1
 201 1 l 1
 314 1 l 1
 314 -79 l 1
 469 -79 556 -148 556 -269 c 0
EndSplineSet
EndChar

StartChar: comma
Encoding: 44 44 93
Width: 651
GlyphClass: 2
Flags: HW
LayerCount: 2
Back
SplineSet
340.25 49 m 1
 224.25 63.25 162.75 122.5 162.75 215.75 c 0
 162.75 307 234.25 370.25 326 370.25 c 0
 421.5 370.25 500.25 303.75 500.25 160.5 c 0
 500.25 -9.25 424 -171.5 251.5 -301 c 1
 153.5 -188.5 l 1
 235.5 -124 315.5 -28.25 340.25 49 c 1
EndSplineSet
Fore
SplineSet
191 360 m 1
 470 360 l 1
 290 -196 l 1
 94 -100 l 1
 191 360 l 1
EndSplineSet
Substitution2: "'tnum' Tabular Numbers lookup 22 subtable" comma.tnum
EndChar

StartChar: copyright
Encoding: 169 169 94
Width: 1791
GlyphClass: 2
Flags: HW
LayerCount: 2
Fore
SplineSet
342 738 m 0
 342 420 589 176 897 176 c 0
 1205 176 1452 420 1452 738 c 0
 1452 1055 1205 1298 897 1298 c 0
 589 1298 342 1055 342 738 c 0
124 738 m 0
 124 1152 449 1498 897 1498 c 0
 1345 1498 1670 1152 1670 738 c 0
 1670 325 1345 -25 897 -25 c 0
 449 -25 124 325 124 738 c 0
1165 956 m 1
 1080 883 l 1
 1027 945 967 971 899 971 c 0
 776 971 691 869 691 739 c 0
 691 609 776 507 899 507 c 0
 967 507 1027 532 1080 594 c 1
 1165 520 l 1
 1087 432 1013 386 890 386 c 0
 683 386 556 560 556 739 c 0
 556 918 683 1092 890 1092 c 0
 1013 1092 1087 1044 1165 956 c 1
EndSplineSet
EndChar

StartChar: currency
Encoding: 164 164 95
Width: 1398
GlyphClass: 2
Flags: HW
LayerCount: 2
Fore
SplineSet
894 96 m 1
 1064 250 l 1
 1316 -20 l 1
 1146 -173 l 1
 894 96 l 1
335 250 m 1
 505 96 l 1
 253 -173 l 1
 84 -20 l 1
 335 250 l 1
1064 810 m 1
 894 964 l 1
 1146 1233 l 1
 1316 1080 l 1
 1064 810 l 1
505 964 m 1
 335 810 l 1
 84 1080 l 1
 253 1233 l 1
 505 964 l 1
EndSplineSet
Refer: 142 111 N 1 0 0 1 115 0 2
EndChar

StartChar: d
Encoding: 100 100 96
Width: 1169
GlyphClass: 2
Flags: HW
LayerCount: 2
Fore
SplineSet
1039 0 m 1
 731 0 l 1
 731 1504 l 1
 1039 1504 l 1
 1039 0 l 1
EndSplineSet
Refer: 318 57359 N -1 0 0 -1 1122 1099 2
Substitution2: "'smcp' Lowercase to Small Capitals in Latin lookup 0 subtable" uni1D05
EndChar

StartChar: degree
Encoding: 176 176 97
Width: 691
GlyphClass: 2
Flags: HW
LayerCount: 2
Fore
SplineSet
484 1397 m 0
 484 1475 423 1535 345 1535 c 0
 267 1535 209 1475 209 1397 c 0
 209 1319 267 1260 345 1260 c 0
 423 1260 484 1319 484 1397 c 0
609 1397 m 0
 609 1251 491 1134 345 1134 c 0
 199 1134 82 1251 82 1397 c 0
 82 1543 199 1660 345 1660 c 0
 491 1660 609 1543 609 1397 c 0
EndSplineSet
EndChar

StartChar: dieresis
Encoding: 168 168 98
Width: 819
GlyphClass: 2
Flags: HW
LayerCount: 2
Fore
SplineSet
82 1265 m 0
 82 1336 143 1392 215 1392 c 0
 287 1392 346 1336 346 1265 c 0
 346 1194 287 1134 215 1134 c 0
 143 1134 82 1194 82 1265 c 0
473 1265 m 0
 473 1336 533 1392 605 1392 c 0
 677 1392 737 1336 737 1265 c 0
 737 1194 677 1134 605 1134 c 0
 533 1134 473 1194 473 1265 c 0
EndSplineSet
EndChar

StartChar: dotlessi
Encoding: 305 305 101
Width: 559
GlyphClass: 2
Flags: HW
LayerCount: 2
Fore
SplineSet
126 1099 m 1
 434 1099 l 1
 434 0 l 1
 126 0 l 1
 126 1099 l 1
EndSplineSet
EndChar

StartChar: e
Encoding: 101 101 102
Width: 1163
GlyphClass: 2
Flags: HW
LayerCount: 2
Back
SplineSet
380 463 m 1
 390 323 461 236 595 236 c 0
 681 236 748 278 775 348 c 1
 1070 302 l 1
 1000 101 839 -11 584 -11 c 0
 242 -11 69 213 69 549 c 0
 69 885 247 1108 580 1108 c 0
 992 1108 1124 825 1100 463 c 1
 380 463 l 1
383 642 m 1
 788 642 l 1
 784 798 701 864 583 864 c 0
 478 864 387 793 383 642 c 1
EndSplineSet
Fore
SplineSet
380 453 m 1
 395 321 461 236 595 236 c 0
 681 236 748 278 772 339 c 1
 1066 290 l 1
 1000 101 839 -11 584 -11 c 0
 242 -11 69 213 69 549 c 0
 69 885 247 1108 580 1108 c 0
 1002 1108 1124 815 1100 453 c 1
 380 453 l 1
383 652 m 1
 788 652 l 1
 778 801 701 864 583 864 c 0
 478 864 392 794 383 652 c 1
EndSplineSet
Substitution2: "'smcp' Lowercase to Small Capitals in Latin lookup 0 subtable" uni1D07
Colour: ffff00
EndChar

StartChar: eth
Encoding: 240 240 109
Width: 1176
GlyphClass: 2
Flags: HW
LayerCount: 2
Fore
SplineSet
585 864 m 0
 446 864 377 761 377 549 c 0
 377 337 445 233 585 233 c 0
 725 233 800 337 800 549 c 0
 800 761 724 864 585 864 c 0
555 1107 m 0
 651 1107 742 1082 818 1018 c 1
 770 1126 655 1268 583 1326 c 1
 444 1211 l 1
 350 1321 l 1
 470 1420 l 1
 419 1452 340 1484 280 1498 c 1
 338 1696 l 1
 431 1678 549 1619 636 1555 c 1
 765 1658 l 1
 857 1545 l 1
 747 1457 l 1
 1003 1199 1108 918 1108 613 c 0
 1108 205 939 -11 589 -11 c 0
 239 -11 69 224 69 549 c 0
 69 919 288 1107 555 1107 c 0
EndSplineSet
EndChar

StartChar: exclam
Encoding: 33 33 110
Width: 652
GlyphClass: 2
Flags: HW
LayerCount: 2
Fore
SplineSet
450 481 m 1
 202 481 l 1
 172 1462 l 1
 480 1462 l 1
 450 481 l 1
EndSplineSet
Refer: 160 46 N 1 0 0 1 21 0 2
Substitution2: "'tnum' Tabular Numbers lookup 22 subtable" exclam.tnum
EndChar

StartChar: f
Encoding: 102 102 112
Width: 766
GlyphClass: 2
Flags: HW
LayerCount: 2
Fore
SplineSet
791 1469 m 1
 744 1269 l 1
 707 1283 664 1291 625 1291 c 0
 544 1291 497 1257 497 1184 c 2
 497 0 l 1
 189 0 l 1
 189 1219 l 2
 189 1440 350 1523 535 1523 c 0
 626 1523 717 1503 791 1469 c 1
EndSplineSet
Refer: 313 57354 N 1 0 0 1 -50 344 2
Substitution2: "'smcp' Lowercase to Small Capitals in Latin lookup 0 subtable" uniA730
EndChar

StartChar: g
Encoding: 103 103 116
Width: 1177
GlyphClass: 2
Flags: HW
LayerCount: 2
Back
SplineSet
553.25 975.25 m 1
 553.25 1052.5 887.75 1101.5 945.75 1101.5 c 1
 980 1101.5 1014.75 342.5 1039 308 c 1
 1039 -13 831.5 -162 582.5 -162 c 1
 445.25 -132.25 338.5 -100.5 193.25 -42 c 1
 142.5 -42 206.25 132.25 206.25 61.75 c 1
 258 -36.75 357 -94.25 465.5 -94.25 c 0
 598 -94.25 717.5 -34 738.5 87.25 c 1
 738.5 87.25 746.5 -11.5 746.5 80 c 1
 722.25 45.5 687.5 -63 653.25 28.5 c 1
 595.25 28.5 553.25 897.75 553.25 975.25 c 1
EndSplineSet
Fore
SplineSet
570 -475 m 0
 258 -475 96 -322 110 -109 c 1
 372 -109 l 1
 372 -185 435 -236 555 -236 c 0
 676 -236 738 -183 738 -109 c 2
 738 1099 l 1
 1046 1099 l 1
 1046 -109 l 2
 1046 -312 886 -475 570 -475 c 0
EndSplineSet
Refer: 318 57359 N -1 0 0 -1 1129 1098 2
Substitution2: "'smcp' Lowercase to Small Capitals in Latin lookup 0 subtable" uni0262
EndChar

StartChar: germandbls
Encoding: 223 223 117
Width: 1200
GlyphClass: 2
Flags: HW
LayerCount: 2
Fore
SplineSet
526 0 m 1
 553 257 l 1
 592 252 641 248 679 248 c 0
 787 248 826 281 826 324 c 0
 826 369 786 411 736 444 c 0
 660 496 558 570 558 709 c 0
 558 810 604 878 647 935 c 0
 686 985 708 1046 708 1106 c 0
 708 1180 662 1240 563 1240 c 0
 457 1240 416 1169 416 1063 c 2
 416 0 l 1
 135 0 l 1
 135 1063 l 2
 135 1271 271 1484 563 1484 c 0
 846 1484 991 1274 991 1074 c 0
 991 932 948 851 882 784 c 0
 854 754 839 735 839 710 c 0
 839 674 872 650 921 620 c 0
 999 571 1116 466 1116 298 c 0
 1116 62 951 -11 708 -11 c 0
 651 -11 590 -6 526 0 c 1
EndSplineSet
EndChar

StartChar: grave
Encoding: 96 96 118
Width: 514
GlyphClass: 2
Flags: HW
LayerCount: 2
Fore
SplineSet
439 1134 m 1
 250 1134 l 1
 75 1478 l 1
 294 1478 l 1
 439 1134 l 1
EndSplineSet
EndChar

StartChar: greater
Encoding: 62 62 119
Width: 766
VWidth: 2124
GlyphClass: 2
Flags: HW
LayerCount: 2
Back
SplineSet
663.5 727.25 m 0
 663.5 484.5 440.25 294.5 251.75 156 c 1
 133 314.75 l 1
 259.5 403.75 457 564.75 457 727.25 c 0
 457 889.75 259.5 1049.5 133 1138.5 c 1
 251.75 1297.75 l 1
 440.25 1159.25 663.5 970 663.5 727.25 c 0
EndSplineSet
Fore
SplineSet
178 222 m 1
 55 347 l 1
 467 721 l 1
 55 1095 l 1
 178 1221 l 1
 712 721 l 1
 178 222 l 1
EndSplineSet
EndChar

StartChar: h
Encoding: 104 104 122
Width: 1229
GlyphClass: 2
Flags: HW
LayerCount: 2
Fore
SplineSet
428 0 m 1
 120 0 l 1
 120 1519 l 1
 428 1519 l 1
 428 0 l 1
EndSplineSet
Refer: 316 57357 N 1 0 0 1 54 0 2
Substitution2: "'smcp' Lowercase to Small Capitals in Latin lookup 0 subtable" uni029C
EndChar

StartChar: hyphen
Encoding: 45 45 123
Width: 1073
GlyphClass: 2
Flags: HW
LayerCount: 2
Fore
SplineSet
991 734 m 1
 991 511 l 1
 82 511 l 1
 82 734 l 1
 991 734 l 1
EndSplineSet
Substitution2: "'tnum' Tabular Numbers lookup 22 subtable" hyphen.tnum
EndChar

StartChar: k
Encoding: 107 107 130
Width: 1230
GlyphClass: 2
Flags: HW
LayerCount: 2
Fore
SplineSet
790 1099 m 1
 1176 1099 l 1
 766 612 l 1
 1217 0 l 1
 831 0 l 1
 590 416 l 1
 438 263 l 1
 438 0 l 1
 132 0 l 1
 132 1519 l 1
 438 1519 l 1
 438 646 l 1
 790 1099 l 1
EndSplineSet
Substitution2: "'smcp' Lowercase to Small Capitals in Latin lookup 0 subtable" uni1D0B
EndChar

StartChar: l
Encoding: 108 108 131
Width: 591
GlyphClass: 2
Flags: HW
LayerCount: 2
Fore
SplineSet
450 0 m 1
 142 0 l 1
 142 1519 l 1
 450 1519 l 1
 450 0 l 1
EndSplineSet
Substitution2: "'smcp' Lowercase to Small Capitals in Latin lookup 0 subtable" uni029F
EndChar

StartChar: less
Encoding: 60 60 132
Width: 766
VWidth: 2124
GlyphClass: 2
Flags: HW
LayerCount: 2
Back
SplineSet
102.25 727.25 m 0
 102.25 970 324.5 1159.25 513 1297.75 c 1
 632.75 1138.5 l 1
 506.25 1049.5 308 889.75 308 727.25 c 0
 308 564.75 506.25 403.75 632.75 314.75 c 1
 513 156 l 1
 324.5 294.5 102.25 484.5 102.25 727.25 c 0
EndSplineSet
Fore
SplineSet
588 1220 m 1
 712 1095 l 1
 300 721 l 1
 712 347 l 1
 588 221 l 1
 55 721 l 1
 588 1220 l 1
EndSplineSet
EndChar

StartChar: logicalnot
Encoding: 172 172 133
Width: 1114
GlyphClass: 2
Flags: HW
LayerCount: 2
Fore
SplineSet
79 511 m 1
 79 733 l 1
 954 733 l 1
 954 259 l 1
 731 259 l 1
 731 511 l 1
 79 511 l 1
EndSplineSet
EndChar

StartChar: m
Encoding: 109 109 134
Width: 1884
GlyphClass: 2
Flags: HW
LayerCount: 2
Fore
SplineSet
129 1099 m 1
 421 1099 l 1
 436 834 l 1
 436 0 l 1
 129 0 l 1
 129 1099 l 1
EndSplineSet
Refer: 315 57356 N 1 0 0 1 -541 0 2
Refer: 315 57356 N 1 0 0 1 123 0 2
Substitution2: "'smcp' Lowercase to Small Capitals in Latin lookup 0 subtable" uni1D0D
EndChar

StartChar: macron
Encoding: 175 175 135
Width: 946
GlyphClass: 2
Flags: HW
LayerCount: 2
Fore
SplineSet
864 1319 m 1
 864 1134 l 1
 82 1134 l 1
 82 1319 l 1
 864 1319 l 1
EndSplineSet
EndChar

StartChar: mu
Encoding: 181 181 136
Width: 1228
GlyphClass: 2
Flags: HW
LayerCount: 2
Fore
SplineSet
122 1099 m 1
 430 1099 l 1
 430 -428 l 1
 122 -428 l 1
 122 1099 l 1
EndSplineSet
Refer: 188 117 N 1 0 0 1 0 0 2
EndChar

StartChar: multiply
Encoding: 215 215 137
Width: 1073
GlyphClass: 2
Flags: HW
LayerCount: 2
Fore
SplineSet
789 1032 m 1
 947 874 l 1
 694 624 l 1
 947 371 l 1
 790 214 l 1
 537 466 l 1
 286 213 l 1
 128 371 l 1
 380 624 l 1
 128 874 l 1
 286 1032 l 1
 537 780 l 1
 789 1032 l 1
EndSplineSet
Substitution2: "'tnum' Tabular Numbers lookup 22 subtable" multiply.tnum
EndChar

StartChar: n
Encoding: 110 110 138
Width: 1229
GlyphClass: 2
Flags: HW
LayerCount: 2
Fore
SplineSet
428 0 m 1
 120 0 l 1
 120 1099 l 1
 412 1099 l 1
 428 834 l 1
 428 0 l 1
EndSplineSet
Refer: 316 57357 N 1 0 0 1 54 0 2
Substitution2: "'smcp' Lowercase to Small Capitals in Latin lookup 0 subtable" uni0274
EndChar

StartChar: numbersign
Encoding: 35 35 141
Width: 1862
GlyphClass: 2
Flags: HW
LayerCount: 2
Fore
SplineSet
1126 888 m 1
 823 888 l 1
 738 578 l 1
 1041 578 l 1
 1126 888 l 1
577 -4 m 1
 312 -4 l 1
 415 369 l 1
 163 369 l 1
 163 578 l 1
 473 578 l 1
 558 888 l 1
 261 888 l 1
 261 1097 l 1
 616 1097 l 1
 714 1448 l 1
 978 1448 l 1
 881 1097 l 1
 1184 1097 l 1
 1283 1448 l 1
 1546 1448 l 1
 1448 1097 l 1
 1700 1097 l 1
 1700 888 l 1
 1391 888 l 1
 1306 578 l 1
 1603 578 l 1
 1603 369 l 1
 1249 369 l 1
 1146 -4 l 1
 880 -4 l 1
 984 369 l 1
 680 369 l 1
 577 -4 l 1
EndSplineSet
Substitution2: "'tnum' Tabular Numbers lookup 22 subtable" numbersign.tnum
EndChar

StartChar: o
Encoding: 111 111 142
Width: 1176
GlyphClass: 2
Flags: HW
LayerCount: 2
Fore
SplineSet
589 864 m 0
 461 864 377 774 377 549 c 0
 377 324 459 233 589 233 c 0
 719 233 800 324 800 549 c 0
 800 774 717 864 589 864 c 0
589 1108 m 0
 935 1108 1108 889 1108 549 c 0
 1108 209 933 -11 589 -11 c 0
 245 -11 69 209 69 549 c 0
 69 889 243 1108 589 1108 c 0
EndSplineSet
Substitution2: "'smcp' Lowercase to Small Capitals in Latin lookup 0 subtable" uni1D0F
EndChar

StartChar: ordfeminine
Encoding: 170 170 151
Width: 815
GlyphClass: 2
Flags: HW
LayerCount: 2
Fore
SplineSet
495 1530 m 1
 495 1592 l 2
 495 1648 458 1674 386 1674 c 0
 313 1674 278 1651 278 1592 c 1
 112 1592 l 1
 103 1739 203 1826 395 1826 c 0
 588 1826 688 1732 688 1592 c 2
 688 1312 l 2
 688 1270 702 1250 748 1250 c 1
 748 1131 l 1
 638 1115 547 1140 512 1224 c 1
 468 1164 400 1124 296 1124 c 0
 176 1124 98 1193 98 1313 c 0
 98 1464 231 1542 376 1542 c 0
 418 1542 459 1537 495 1530 c 1
495 1413 m 1
 466 1420 437 1422 405 1422 c 0
 323 1422 268 1387 268 1332 c 0
 268 1287 298 1262 354 1262 c 0
 420 1262 469 1298 495 1327 c 1
 495 1413 l 1
EndSplineSet
EndChar

StartChar: p
Encoding: 112 112 155
Width: 1170
GlyphClass: 2
Flags: HW
LayerCount: 2
Fore
SplineSet
132 1099 m 1
 439 1099 l 1
 439 -441 l 1
 132 -441 l 1
 132 1099 l 1
EndSplineSet
Refer: 318 57359 N 1 0 0 1 49 0 2
Substitution2: "'smcp' Lowercase to Small Capitals in Latin lookup 0 subtable" uni1D18
EndChar

StartChar: paragraph
Encoding: 182 182 156
Width: 1443
GlyphClass: 2
Flags: HW
LayerCount: 2
Fore
SplineSet
1301 -465 m 1
 1078 -465 l 1
 1078 1198 l 1
 943 1198 l 1
 943 -465 l 1
 720 -465 l 1
 720 330 l 1
 612 330 l 2
 294 330 102 580 102 894 c 0
 102 1208 294 1462 612 1462 c 2
 1301 1462 l 1
 1301 -465 l 1
EndSplineSet
EndChar

StartChar: parenleft
Encoding: 40 40 157
Width: 686
GlyphClass: 2
Flags: HW
LayerCount: 2
Fore
SplineSet
426 1584 m 1
 624 1474 l 1
 471 1224 388 886 388 505 c 0
 388 124 471 -213 624 -464 c 1
 426 -574 l 1
 214 -229 105 104 105 505 c 0
 105 906 214 1239 426 1584 c 1
EndSplineSet
Substitution2: "'tnum' Tabular Numbers lookup 22 subtable" parenleft.tnum
EndChar

StartChar: parenright
Encoding: 41 41 158
Width: 686
GlyphClass: 2
Flags: HW
LayerCount: 2
Fore
SplineSet
260 -574 m 1
 62 -465 l 1
 215 -215 298 124 298 505 c 0
 298 886 215 1222 62 1473 c 1
 260 1584 l 1
 472 1239 581 906 581 505 c 0
 581 104 472 -229 260 -574 c 1
EndSplineSet
Substitution2: "'tnum' Tabular Numbers lookup 22 subtable" parenright.tnum
EndChar

StartChar: period
Encoding: 46 46 160
Width: 610
GlyphClass: 2
Flags: HW
LayerCount: 2
Fore
SplineSet
140 152 m 0
 140 242 215 311 305 311 c 0
 395 311 470 242 470 152 c 0
 470 62 395 -11 305 -11 c 0
 215 -11 140 62 140 152 c 0
EndSplineSet
Substitution2: "'tnum' Tabular Numbers lookup 22 subtable" period.tnum
EndChar

StartChar: periodcentered
Encoding: 183 183 161
Width: 561
GlyphClass: 2
Flags: HW
LayerCount: 2
Fore
SplineSet
116 733 m 0
 116 823 191 892 281 892 c 0
 371 892 446 823 446 733 c 0
 446 643 371 570 281 570 c 0
 191 570 116 643 116 733 c 0
EndSplineSet
EndChar

StartChar: plus
Encoding: 43 43 162
Width: 1034
GlyphClass: 2
Flags: HW
LayerCount: 2
Fore
SplineSet
953 694 m 1
 953 470 l 1
 640 470 l 1
 640 146 l 1
 395 146 l 1
 395 470 l 1
 82 470 l 1
 82 694 l 1
 395 694 l 1
 395 1018 l 1
 640 1018 l 1
 640 694 l 1
 953 694 l 1
EndSplineSet
Substitution2: "'tnum' Tabular Numbers lookup 22 subtable" plus.tnum
EndChar

StartChar: q
Encoding: 113 113 164
Width: 1169
GlyphClass: 2
Flags: HW
LayerCount: 2
Fore
SplineSet
731 1099 m 1
 1039 1099 l 1
 1039 -448 l 1
 731 -448 l 1
 731 1099 l 1
EndSplineSet
Refer: 318 57359 N -1 0 0 -1 1122 1099 2
Substitution2: "'smcp' Lowercase to Small Capitals in Latin lookup 0 subtable" uniA7EE
EndChar

StartChar: question
Encoding: 63 63 165
Width: 1138
GlyphClass: 2
Flags: HW
LayerCount: 2
Fore
SplineSet
540 -11 m 0
 450 -11 375 62 375 152 c 0
 375 242 450 311 540 311 c 0
 630 311 705 242 705 152 c 0
 705 62 630 -11 540 -11 c 0
401 918 m 1
 150 915 l 1
 136 967 129 1030 129 1077 c 0
 129 1315 294 1468 563 1468 c 0
 849 1468 1010 1267 1010 1075 c 0
 1010 883 921 801 833 725 c 0
 755 659 686 597 686 473 c 1
 403 473 l 1
 403 638 483 711 590 802 c 0
 683 880 727 941 727 1043 c 0
 727 1148 667 1225 554 1225 c 0
 440 1225 391 1141 391 1036 c 0
 391 998 394 954 401 918 c 1
EndSplineSet
Substitution2: "'tnum' Tabular Numbers lookup 22 subtable" question.tnum
EndChar

StartChar: quoteleft
Encoding: 8216 8216 170
Width: 630
GlyphClass: 2
Flags: HW
LayerCount: 2
Back
SplineSet
501.75 1409.5 m 0
 501.75 1288.25 401.25 1228.5 288 1229.75 c 1
 309.25 1148.25 384.5 1058.5 451.75 988.25 c 1
 351.25 894.5 l 1
 225.75 1008.75 131.25 1153.25 131.25 1346.5 c 0
 131.25 1499.5 213.25 1588.25 324.75 1588.25 c 0
 433.5 1588.25 501.75 1506.25 501.75 1409.5 c 0
EndSplineSet
Fore
SplineSet
407 1578 m 1
 503 1117 l 1
 308 1021 l 1
 128 1578 l 1
 407 1578 l 1
EndSplineSet
EndChar

StartChar: quoteright
Encoding: 8217 8217 171
Width: 630
GlyphClass: 2
Flags: HW
LayerCount: 2
Back
SplineSet
131.25 1423.75 m 0
 131.25 1520.5 200.25 1602.5 309 1602.5 c 0
 420.5 1602.5 501.75 1513.75 501.75 1360.75 c 0
 501.75 1167.5 407.5 1023 282 908.75 c 1
 181 1002.5 l 1
 248.25 1072.75 323.5 1162.5 344.75 1244 c 1
 231.5 1242.75 131.25 1302.5 131.25 1423.75 c 0
EndSplineSet
Fore
SplineSet
224 1578 m 1
 503 1578 l 1
 323 1021 l 1
 128 1117 l 1
 224 1578 l 1
EndSplineSet
EndChar

StartChar: quotesingle
Encoding: 39 39 172
Width: 400
GlyphClass: 2
Flags: HW
LayerCount: 2
Fore
SplineSet
100 1505 m 257
 300 1505 l 257
 280 987 l 257
 120 987 l 257
 100 1505 l 257
EndSplineSet
EndChar

StartChar: r
Encoding: 114 114 173
Width: 893
GlyphClass: 2
Flags: HW
LayerCount: 2
Fore
SplineSet
132 1099 m 1
 424 1099 l 1
 439 799 l 1
 439 0 l 1
 132 0 l 1
 132 1099 l 1
EndSplineSet
Refer: 317 57358 N 1 0 0 1 0 0 2
Substitution2: "'smcp' Lowercase to Small Capitals in Latin lookup 0 subtable" uni0280
EndChar

StartChar: registered
Encoding: 174 174 174
Width: 1791
GlyphClass: 2
Flags: HW
LayerCount: 2
Fore
SplineSet
342 738 m 0
 342 420 589 176 897 176 c 0
 1205 176 1452 420 1452 738 c 0
 1452 1055 1205 1298 897 1298 c 0
 589 1298 342 1055 342 738 c 0
124 738 m 0
 124 1152 449 1498 897 1498 c 0
 1345 1498 1670 1152 1670 738 c 0
 1670 325 1345 -25 897 -25 c 0
 449 -25 124 325 124 738 c 0
1202 411 m 1
 1036 411 l 1
 895 585 l 1
 887 585 879 584 869 584 c 1
 785 584 l 1
 785 409 l 1
 662 409 l 1
 662 1085 l 1
 912 1085 l 2
 1069 1085 1195 980 1195 834 c 0
 1195 731 1131 649 1040 610 c 1
 1202 411 l 1
785 704 m 1
 912 704 l 2
 994 704 1060 754 1060 834 c 0
 1060 914 995 967 912 967 c 2
 785 967 l 1
 785 704 l 1
EndSplineSet
EndChar

StartChar: s
Encoding: 115 115 175
Width: 1051
GlyphClass: 2
Flags: HW
LayerCount: 2
Back
SplineSet
903 1010.5 m 1
 813.5 805 l 1
 737.75 842 655.5 868.25 572.75 868.25 c 0
 464 868.25 388.75 827.75 388.75 757.25 c 0
 388.75 691.75 460.75 675.75 568.75 654 c 0
 792.707519531 608.239501953 951.5 556 951.5 343.25 c 0
 951.5 112.25 738.25 -10.25 508 -10.25 c 0
 308.5 -10.25 158.75 45 80.25 94.25 c 1
 187.5 318.75 l 1
 252 279 381.75 228.75 504.5 228.75 c 0
 637.25 228.75 688.75 259.75 688.75 321.75 c 0
 688.75 382.75 631.694335938 407.229736328 503.25 433.75 c 0
 297.75 476.25 124 539.25 124 744.75 c 0
 124 969.5 318.25 1108.5 544.75 1108.5 c 0
 691 1108.5 820.5 1062.75 903 1010.5 c 1
EndSplineSet
Fore
SplineSet
531 1109 m 0
 820 1109 982 966 966 725 c 1
 721 732 l 1
 721 818 651 868 533 868 c 0
 429 868 364 830 364 766 c 0
 364 711 415 690 562 657 c 0
 851 593 977 483 977 319 c 0
 977 121 794 -10 519 -10 c 0
 225 -10 51 140 70 376 c 1
 314 367 l 1
 314 278 389 229 529 229 c 0
 640 229 700 263 700 323 c 0
 700 380 638 405 483 440 c 0
 205 502 89 608 89 777 c 0
 89 981 259 1109 531 1109 c 0
EndSplineSet
Substitution2: "'smcp' Lowercase to Small Capitals in Latin lookup 0 subtable" uniA731
Colour: ffff00
EndChar

StartChar: section
Encoding: 167 167 176
Width: 1012
GlyphClass: 2
Flags: HW
LayerCount: 2
Fore
SplineSet
919 296 m 0
 919 66 711 -40 490 -40 c 0
 296 -40 147 14 69 64 c 1
 176 299 l 1
 239 259 369 209 492 209 c 0
 585 209 656 232 656 293 c 0
 656 346 611 372 487 399 c 0
 284 443 126 504 126 708 c 0
 126 808 169 886 231 938 c 1
 165 984 123 1046 123 1147 c 0
 123 1373 315 1494 531 1494 c 0
 672 1494 792 1450 876 1396 c 1
 786 1196 l 1
 719 1231 627 1259 543 1259 c 0
 461 1259 390 1230 390 1160 c 0
 390 1102 441 1085 546 1060 c 0
 762 1010 916 950 916 735 c 0
 916 637 876 566 812 516 c 1
 878 470 919 403 919 296 c 0
527 624 m 1
 608 626 657 671 657 727 c 0
 657 781 610 816 526 826 c 1
 452 825 396 778 396 718 c 0
 396 666 442 634 527 624 c 1
EndSplineSet
EndChar

StartChar: six
Encoding: 54 54 179
Width: 1196
GlyphClass: 2
Flags: HW
LayerCount: 2
Back
SplineSet
628.737792969 705.262207031 m 0
 545.3125 705.262207031 467.6875 674.162353516 403.162353516 621.862792969 c 1
 403.162353516 364 471.237792969 250.987792969 616.762207031 250.987792969 c 0
 735.8125 250.987792969 813.587646484 335.5 813.587646484 487.462646484 c 0
 813.587646484 628.387207031 744.512207031 705.262207031 628.737792969 705.262207031 c 0
693.25 974 m 0
 941 974 1117 789.5 1117 509.5 c 0
 1117 201.75 936 -11 631 -11 c 0
 234.5 -11 106.75 254 106.75 680.75 c 0
 106.75 1194.5 291 1472 682.5 1472 c 0
 859.5 1472 986.25 1417.5 1077.22509766 1354.16674805 c 1
 1077.22509766 1354.16674805 972.682617188 1115.2097168 972.682617188 1115.2097168 c 1
 894.5 1168 790.5 1198.25 694.75 1198.25 c 0
 509.25 1198.25 384.25 1102.75 380.25 866 c 1
 464 942 567.25 974 693.25 974 c 0
EndSplineSet
Fore
Refer: 296 1782 N 1 0 0 1 0 0 3
Substitution2: "'sups' Superscript lookup 0 subtable" uni2076
Substitution2: "'subs' Subscript lookup 0 subtable" uni2086
Substitution2: "'sinf' Scientific Inferiors lookup 20 subtable" uni2086
Substitution2: "'tnum' Tabular Numbers lookup 22 subtable" six.tnum
Substitution2: "'onum' Oldstyle Figures lookup 23 subtable" six.onum
Substitution2: "'smcp' Lowercase to Small Capitals in Latin lookup 0 subtable" six.SC
EndChar

StartChar: slash
Encoding: 47 47 180
Width: 1162
GlyphClass: 2
Flags: HW
LayerCount: 2
Fore
SplineSet
720 1462 m 1
 1087 1462 l 1
 441 0 l 1
 76 0 l 1
 720 1462 l 1
EndSplineSet
Substitution2: "'tnum' Tabular Numbers lookup 22 subtable" slash.tnum
Substitution2: "'smcp' Lowercase to Small Capitals in Latin lookup 0 subtable" slash.sc
EndChar

StartChar: sterling
Encoding: 163 163 182
Width: 1302
GlyphClass: 2
Flags: HW
LayerCount: 2
Fore
SplineSet
692 1207 m 0
 612 1207 570 1164 570 1061 c 2
 570 354 l 2
 570 320 562 288 538 262 c 1
 1194 262 l 1
 1194 0 l 1
 110 0 l 1
 110 261 l 1
 207 261 262 280 262 354 c 2
 262 1062 l 2
 262 1281 392 1472 692 1472 c 0
 985 1472 1130 1308 1119 1070 c 1
 815 1070 l 1
 815 1156 779 1207 692 1207 c 0
EndSplineSet
Refer: 313 57354 N 1 0 0 1 34 17 2
EndChar

StartChar: t
Encoding: 116 116 183
Width: 780
GlyphClass: 2
Flags: HW
LayerCount: 2
Fore
SplineSet
738 236 m 1
 781 35 l 1
 706 6 619 -11 536 -11 c 0
 351 -11 190 73 190 294 c 2
 190 1388 l 1
 497 1388 l 1
 497 329 l 2
 497 256 545 222 626 222 c 0
 660 222 700 226 738 236 c 1
EndSplineSet
Refer: 313 57354 N 1 0 0 1 -40 344 2
Substitution2: "'smcp' Lowercase to Small Capitals in Latin lookup 0 subtable" uni1D1B
EndChar

StartChar: u
Encoding: 117 117 188
Width: 1228
GlyphClass: 2
Flags: HW
LayerCount: 2
Fore
SplineSet
802 1099 m 1
 1109 1099 l 1
 1109 0 l 1
 817 0 l 1
 802 265 l 1
 802 1099 l 1
EndSplineSet
Refer: 316 57357 N -1 0 0 -1 1175 1099 2
Substitution2: "'smcp' Lowercase to Small Capitals in Latin lookup 0 subtable" uni1D1C
EndChar

StartChar: underscore
Encoding: 95 95 193
Width: 1100
GlyphClass: 2
Flags: HW
LayerCount: 2
Fore
SplineSet
1000 0 m 1
 1000 -307 l 1
 100 -307 l 1
 100 0 l 1
 1000 0 l 1
EndSplineSet
EndChar

StartChar: uni00AD
Encoding: 173 173 195
Width: 1033
GlyphClass: 2
Flags: HW
LayerCount: 2
Fore
SplineSet
953 733 m 1
 953 511 l 1
 82 511 l 1
 82 733 l 1
 953 733 l 1
EndSplineSet
EndChar

StartChar: uni00B2
Encoding: 178 178 196
Width: 666
GlyphClass: 2
Flags: HW
LayerCount: 2
Fore
SplineSet
98 1134 m 1
 98 1254 l 1
 385 1497 l 2
 422 1528 440 1552 440 1600 c 0
 440 1662 392 1701 330 1701 c 0
 263 1701 222 1659 222 1589 c 1
 98 1589 l 1
 98 1749 214 1826 330 1826 c 0
 440 1826 565 1752 565 1600 c 0
 565 1517 524 1450 469 1407 c 2
 294 1259 l 1
 566 1259 l 1
 566 1134 l 1
 98 1134 l 1
EndSplineSet
EndChar

StartChar: uni00B3
Encoding: 179 179 197
Width: 674
GlyphClass: 2
Flags: HW
LayerCount: 2
Fore
SplineSet
245 1619 m 1
 121 1619 l 1
 121 1750 206 1826 340 1826 c 0
 446 1826 562 1753 562 1619 c 0
 562 1571 531 1507 470 1482 c 1
 535 1460 577 1395 577 1327 c 0
 577 1191 475 1124 339 1124 c 0
 192 1124 98 1200 98 1340 c 1
 235 1340 l 1
 235 1275 278 1246 339 1246 c 0
 406 1246 444 1276 444 1336 c 0
 444 1395 402 1429 332 1429 c 2
 270 1429 l 1
 270 1532 l 1
 332 1532 l 2
 388 1532 422 1566 422 1615 c 0
 422 1663 388 1700 334 1700 c 0
 278 1700 245 1668 245 1619 c 1
EndSplineSet
EndChar

StartChar: uni00B9
Encoding: 185 185 198
Width: 518
GlyphClass: 2
Flags: HW
LayerCount: 2
Fore
SplineSet
98 1543 m 1
 98 1668 l 1
 296 1668 l 1
 296 1816 l 1
 421 1816 l 1
 421 1134 l 1
 296 1134 l 1
 296 1543 l 1
 98 1543 l 1
EndSplineSet
EndChar

StartChar: uni0237
Encoding: 567 567 199
Width: 552
GlyphClass: 2
Flags: HW
LayerCount: 2
Fore
SplineSet
-161 -404 m 1
 -119 -203 l 1
 -81 -213 -41 -218 -7 -218 c 0
 74 -218 120 -183 120 -110 c 2
 120 1099 l 1
 430 1099 l 1
 430 -146 l 2
 430 -367 268 -450 83 -450 c 0
 0 -450 -86 -433 -161 -404 c 1
EndSplineSet
EndChar

StartChar: uni060C
Encoding: 1548 1548 200
Width: 598
GlyphClass: 2
Flags: HW
LayerCount: 2
Back
SplineSet
315.5 396.258544922 m 0
 315.5 341.484221974 356.503689653 326.182617188 501.75 326.182617188 c 1
 477.5 -2.75 l 1
 357.75 -2.75 l 2
 203.165867529 -2.75 128 81.0660327745 128 254.079345703 c 0
 128 435.951243346 211.385294064 608.414654061 354.25 721.75 c 1
 442.5 616.75 l 1
 369.700429271 553.737045094 315.5 459.327586454 315.5 396.258544922 c 0
EndSplineSet
Fore
SplineSet
292 328 m 1
 399 334 480 264 480 163 c 0
 480 68 407 -3 319 -3 c 0
 202 -3 120 82 120 224 c 0
 120 394 207 559 339 681 c 1
 444 576 l 1
 369 496 312 425 292 328 c 1
EndSplineSet
Colour: ffff00
EndChar

StartChar: uni061F
Encoding: 1567 1567 203
Width: 1138
GlyphClass: 2
Flags: HW
LayerCount: 2
Fore
SplineSet
594 -11 m 0
 504 -11 429 62 429 152 c 0
 429 242 504 311 594 311 c 0
 684 311 759 242 759 152 c 0
 759 62 684 -11 594 -11 c 0
738 918 m 1
 745 954 750 998 750 1036 c 0
 750 1141 700 1225 586 1225 c 0
 473 1225 412 1148 412 1043 c 0
 412 941 456 880 550 802 c 0
 657 711 737 638 737 473 c 1
 454 473 l 1
 454 597 385 659 307 725 c 0
 219 801 129 883 129 1075 c 0
 129 1267 290 1468 576 1468 c 0
 845 1468 1010 1315 1010 1077 c 0
 1010 1030 1006 967 992 915 c 1
 738 918 l 1
EndSplineSet
Substitution2: "'tnum' Tabular Numbers lookup 22 subtable" uni061F.tnum
EndChar

StartChar: uni0660
Encoding: 1632 1632 255
Width: 757
VWidth: 2567
GlyphClass: 2
Flags: HW
LayerCount: 2
Fore
SplineSet
378 716 m 0
 112 449 l 0
 378 181 l 0
 644 449 l 0
 378 716 l 0
EndSplineSet
PairPos2: "'kern' Horizontal Kerning in Arabic lookup 7 subtable" uni0661 dx=45 dy=0 dh=45 dv=0 dx=0 dy=0 dh=0 dv=0
PairPos2: "'kern' Horizontal Kerning in Arabic lookup 7 subtable" uni0667 dx=-89 dy=0 dh=-89 dv=0 dx=0 dy=0 dh=0 dv=0
PairPos2: "'kern' Horizontal Kerning in Arabic lookup 7 subtable" uni0662 dx=-111 dy=0 dh=-111 dv=0 dx=0 dy=0 dh=0 dv=0
Substitution2: "'tnum' Tabular Numbers lookup 22 subtable" uni0660.tnum
EndChar

StartChar: uni0661
Encoding: 1633 1633 256
Width: 743
GlyphClass: 2
Flags: HW
LayerCount: 2
Fore
SplineSet
624 0 m 1
 316 0 l 1
 316 550 243 901 65 1373 c 1
 356 1479 l 1
 541 984 624 582 624 0 c 1
EndSplineSet
PairPos2: "'kern' Horizontal Kerning in Arabic lookup 7 subtable" uni0665 dx=-56 dy=0 dh=-56 dv=0 dx=0 dy=0 dh=0 dv=0
Substitution2: "'tnum' Tabular Numbers lookup 22 subtable" uni0661.tnum
EndChar

StartChar: uni0662
Encoding: 1634 1634 257
Width: 1259
GlyphClass: 2
Flags: HW
LayerCount: 2
Fore
SplineSet
636 1026 m 0
 760 1026 796 1106 822 1317 c 2
 843 1472 l 1
 1144 1425 l 1
 1107 1096 1055 723 689 723 c 0
 642 723 594 735 560 755 c 1
 605 517 623 276 623 0 c 1
 315 0 l 1
 315 515 254 866 64 1373 c 1
 356 1479 l 1
 414 1317 l 2
 498 1085 541 1026 636 1026 c 0
EndSplineSet
Substitution2: "'tnum' Tabular Numbers lookup 22 subtable" uni0662.tnum
EndChar

StartChar: uni0663
Encoding: 1635 1635 258
Width: 1559
GlyphClass: 2
Flags: HW
LayerCount: 2
Fore
SplineSet
580 1014 m 0
 652 1014 687 1064 692 1190 c 0
 694 1307 694 1358 694 1420 c 1
 923 1418 l 1
 918 1348 914 1292 914 1164 c 0
 914 1054 952 1014 1026 1014 c 0
 1102 1014 1129 1058 1129 1165 c 0
 1129 1243 1119 1330 1104 1429 c 1
 1407 1480 l 1
 1426 1384 1437 1290 1437 1201 c 0
 1437 922 1330 706 1058 706 c 0
 932 706 838 761 796 855 c 1
 772 760 705 708 618 706 c 0
 591 706 575 715 560 733 c 1
 603 491 613 265 613 0 c 1
 305 0 l 1
 305 564 220 960 64 1377 c 1
 356 1479 l 1
 428 1200 l 2
 470 1070 506 1014 580 1014 c 0
EndSplineSet
PairPos2: "'kern' Horizontal Kerning in Arabic lookup 7 subtable" uni0668 dx=-56 dy=0 dh=-56 dv=0 dx=0 dy=0 dh=0 dv=0
Substitution2: "'tnum' Tabular Numbers lookup 22 subtable" uni0663.tnum
EndChar

StartChar: uni0664
Encoding: 1636 1636 259
Width: 1028
GlyphClass: 2
Flags: HW
LayerCount: 2
Fore
SplineSet
360 736 m 1
 223 773 154 873 154 988 c 0
 154 1298 484 1439 799 1479 c 1
 830 1183 l 1
 560 1157 468 1077 468 996 c 0
 468 911 553 876 831 876 c 1
 831 620 l 1
 562 620 401 562 401 427 c 0
 401 331 492 298 602 298 c 2
 928 298 l 1
 928 0 l 1
 606 0 l 2
 300 0 93 111 93 380 c 0
 93 531 181 672 360 736 c 1
EndSplineSet
PairPos2: "'kern' Horizontal Kerning in Arabic lookup 7 subtable" uni0666 dx=56 dy=0 dh=56 dv=0 dx=0 dy=0 dh=0 dv=0
Substitution2: "'tnum' Tabular Numbers lookup 22 subtable" uni0664.tnum
EndChar

StartChar: uni0665
Encoding: 1637 1637 260
Width: 1324
GlyphClass: 2
Flags: HW
LayerCount: 2
Fore
SplineSet
556 1479 m 1
 874 1237 1224 914 1224 479 c 0
 1224 127 978 -14 666 -14 c 0
 367 -14 101 123 101 453 c 0
 101 729 252 949 487 1137 c 1
 459 1163 399 1215 362 1244 c 1
 556 1479 l 1
662 956 m 1
 469 784 408 624 408 490 c 0
 408 360 488 294 666 294 c 0
 842 294 916 353 916 493 c 0
 916 621 837 779 662 956 c 1
EndSplineSet
PairPos2: "'kern' Horizontal Kerning in Arabic lookup 7 subtable" uni0661 dx=56 dy=0 dh=56 dv=0 dx=0 dy=0 dh=0 dv=0
PairPos2: "'kern' Horizontal Kerning in Arabic lookup 7 subtable" uni0667 dx=-111 dy=0 dh=-111 dv=0 dx=0 dy=0 dh=0 dv=0
Substitution2: "'tnum' Tabular Numbers lookup 22 subtable" uni0665.tnum
EndChar

StartChar: uni0666
Encoding: 1638 1638 261
Width: 1212
GlyphClass: 2
Flags: HW
LayerCount: 2
Fore
SplineSet
93 1145 m 1
 93 1462 l 1
 836 1462 l 1
 1012 1261 l 1
 1009 1187 1007 1120 1007 1012 c 0
 1007 597 1042 430 1144 62 c 1
 845 -12 l 1
 741 376 698 574 698 1012 c 0
 698 1051 699 1105 700 1145 c 1
 93 1145 l 1
EndSplineSet
PairPos2: "'kern' Horizontal Kerning in Arabic lookup 7 subtable" uni0664 dx=-56 dy=0 dh=-56 dv=0 dx=0 dy=0 dh=0 dv=0
PairPos2: "'kern' Horizontal Kerning in Arabic lookup 7 subtable" uni0665 dx=-195 dy=0 dh=-195 dv=0 dx=0 dy=0 dh=0 dv=0
PairPos2: "'kern' Horizontal Kerning in Arabic lookup 7 subtable" uni0660 dx=-222 dy=0 dh=-222 dv=0 dx=0 dy=0 dh=0 dv=0
PairPos2: "'kern' Horizontal Kerning in Arabic lookup 7 subtable" uni066B dx=-167 dy=0 dh=-167 dv=0 dx=0 dy=0 dh=0 dv=0
PairPos2: "'kern' Horizontal Kerning in Arabic lookup 7 subtable" uni0668 dx=-222 dy=0 dh=-222 dv=0 dx=0 dy=0 dh=0 dv=0
Substitution2: "'tnum' Tabular Numbers lookup 22 subtable" uni0666.tnum
EndChar

StartChar: uni0667
Encoding: 1639 1639 262
Width: 1444
GlyphClass: 2
Flags: HW
LayerCount: 2
Fore
SplineSet
1139 1517 m 1
 1382 1328 l 1
 1082 939 917 617 858 0 c 1
 588 0 l 1
 529 617 363 939 63 1328 c 1
 307 1517 l 1
 505 1263 664 921 722 582 c 1
 780 921 941 1263 1139 1517 c 1
EndSplineSet
PairPos2: "'kern' Horizontal Kerning in Arabic lookup 7 subtable" uni0660 dx=-111 dy=0 dh=-111 dv=0 dx=0 dy=0 dh=0 dv=0
PairPos2: "'kern' Horizontal Kerning in Arabic lookup 7 subtable" uni0665 dx=-111 dy=0 dh=-111 dv=0 dx=0 dy=0 dh=0 dv=0
PairPos2: "'kern' Horizontal Kerning in Arabic lookup 7 subtable" uni0668 dx=-167 dy=0 dh=-167 dv=0 dx=0 dy=0 dh=0 dv=0
PairPos2: "'kern' Horizontal Kerning in Arabic lookup 7 subtable" uni066B dx=-139 dy=0 dh=-139 dv=0 dx=0 dy=0 dh=0 dv=0
Substitution2: "'tnum' Tabular Numbers lookup 22 subtable" uni0667.tnum
Substitution2: "'locl' Localized Forms in Arabic lookup 5 subtable" uni0667.urdu
EndChar

StartChar: uni0668
Encoding: 1640 1640 263
Width: 1444
GlyphClass: 2
Flags: HW
LayerCount: 2
Fore
SplineSet
307 -41 m 1
 63 148 l 1
 363 537 529 859 588 1476 c 1
 858 1476 l 1
 917 859 1082 537 1382 148 c 1
 1139 -41 l 1
 941 213 780 555 722 894 c 1
 664 555 505 213 307 -41 c 1
EndSplineSet
PairPos2: "'kern' Horizontal Kerning in Arabic lookup 7 subtable" uni0663 dx=-222 dy=0 dh=-222 dv=0 dx=0 dy=0 dh=0 dv=0
PairPos2: "'kern' Horizontal Kerning in Arabic lookup 7 subtable" uni0662 dx=-195 dy=0 dh=-195 dv=0 dx=0 dy=0 dh=0 dv=0
PairPos2: "'kern' Horizontal Kerning in Arabic lookup 7 subtable" uni0667 dx=-167 dy=0 dh=-167 dv=0 dx=0 dy=0 dh=0 dv=0
Substitution2: "'tnum' Tabular Numbers lookup 22 subtable" uni0668.tnum
EndChar

StartChar: uni0669
Encoding: 1641 1641 264
Width: 1168
GlyphClass: 2
Flags: HW
LayerCount: 2
Fore
SplineSet
668 584 m 1
 618 567 564 559 501 559 c 0
 309 559 96 654 96 955 c 0
 96 1191 209 1482 519 1482 c 0
 859 1482 934 1227 944 865 c 1
 953 531 992 317 1085 110 c 1
 801 -14 l 1
 728 185 684 388 668 584 c 1
646 872 m 1
 646 894 l 2
 646 1092 604 1173 513 1173 c 0
 446 1173 382 1110 382 977 c 0
 382 892 424 860 527 860 c 0
 571 860 610 864 646 872 c 1
EndSplineSet
PairPos2: "'kern' Horizontal Kerning in Arabic lookup 7 subtable" uni0668 dx=-167 dy=0 dh=-167 dv=0 dx=0 dy=0 dh=0 dv=0
PairPos2: "'kern' Horizontal Kerning in Arabic lookup 7 subtable" uni0665 dx=-56 dy=0 dh=-56 dv=0 dx=0 dy=0 dh=0 dv=0
Substitution2: "'tnum' Tabular Numbers lookup 22 subtable" uni0669.tnum
EndChar

StartChar: uni066B
Encoding: 1643 1643 266
Width: 885
GlyphClass: 2
Flags: HW
LayerCount: 2
Fore
SplineSet
268 -627 m 1
 -61 -626 l 1
 457 700 l 1
 785 699 l 1
 268 -627 l 1
EndSplineSet
PairPos2: "'kern' Horizontal Kerning in Arabic lookup 7 subtable" uni066B dx=-56 dy=0 dh=-56 dv=0 dx=0 dy=0 dh=0 dv=0
PairPos2: "'kern' Horizontal Kerning in Arabic lookup 7 subtable" uni0663 dx=-167 dy=0 dh=-167 dv=0 dx=0 dy=0 dh=0 dv=0
PairPos2: "'kern' Horizontal Kerning in Arabic lookup 7 subtable" uni0662 dx=-111 dy=0 dh=-111 dv=0 dx=0 dy=0 dh=0 dv=0
PairPos2: "'kern' Horizontal Kerning in Arabic lookup 7 subtable" uni0667 dx=-111 dy=0 dh=-111 dv=0 dx=0 dy=0 dh=0 dv=0
PairPos2: "'kern' Horizontal Kerning in Arabic lookup 7 subtable" zero dx=-56 dy=0 dh=-56 dv=0 dx=0 dy=0 dh=0 dv=0
PairPos2: "'kern' Horizontal Kerning in Arabic lookup 7 subtable" two dx=-111 dy=0 dh=-111 dv=0 dx=0 dy=0 dh=0 dv=0
PairPos2: "'kern' Horizontal Kerning in Arabic lookup 7 subtable" three dx=-84 dy=0 dh=-84 dv=0 dx=0 dy=0 dh=0 dv=0
PairPos2: "'kern' Horizontal Kerning in Arabic lookup 7 subtable" seven dx=-111 dy=0 dh=-111 dv=0 dx=0 dy=0 dh=0 dv=0
Substitution2: "'tnum' Tabular Numbers lookup 22 subtable" uni066B.tnum
EndChar

StartChar: uni066C
Encoding: 1644 1644 267
Width: 630
GlyphClass: 2
Flags: HW
LayerCount: 2
Fore
SplineSet
330 0 m 1
 223 14 161 71 161 159 c 0
 161 245 231 306 320 306 c 0
 413 306 488 242 488 108 c 0
 488 -52 412 -207 248 -325 c 1
 151 -214 l 1
 225 -159 305 -70 330 0 c 1
EndSplineSet
Substitution2: "'tnum' Tabular Numbers lookup 22 subtable" uni066C.tnum
EndChar

StartChar: uni066D
Encoding: 1645 1645 268
Width: 978
GlyphClass: 2
Flags: HW
LayerCount: 2
Fore
SplineSet
598 729 m 1
 382 729 l 1
 394 1030 l 1
 142 870 l 1
 32 1058 l 1
 298 1197 l 1
 32 1338 l 1
 142 1524 l 1
 394 1366 l 1
 382 1663 l 1
 598 1663 l 1
 587 1366 l 1
 839 1524 l 1
 948 1338 l 1
 683 1197 l 1
 948 1058 l 1
 839 870 l 1
 587 1030 l 1
 598 729 l 1
EndSplineSet
Substitution2: "'tnum' Tabular Numbers lookup 22 subtable" uni066D.tnum
EndChar

StartChar: uni06F0
Encoding: 1776 1776 290
Width: 965
GlyphClass: 2
Flags: HW
LayerCount: 2
Fore
SplineSet
482 636 m 0
 398 636 360 583 360 514 c 0
 360 445 398 391 482 391 c 0
 566 391 604 445 604 514 c 0
 604 582 566 636 482 636 c 0
482 868 m 0
 695 868 837 712 837 514 c 0
 837 318 698 158 482 158 c 0
 266 158 128 318 128 514 c 0
 128 710 268 868 482 868 c 0
EndSplineSet
Substitution2: "'tnum' Tabular Numbers lookup 22 subtable" uni06F0.tnum
EndChar

StartChar: uni06F4
Encoding: 1780 1780 294
Width: 1256
GlyphClass: 2
Flags: HW
LayerCount: 2
Fore
SplineSet
935 1486 m 0
 1013 1486 1099 1468 1189 1430 c 1
 1106 1145 l 1
 1048 1170 967 1187 893 1187 c 0
 755 1187 656 1103 654 969 c 1
 672 887 788 856 909 856 c 0
 993 856 1080 870 1136 896 c 1
 1200 619 l 1
 1104 581 1009 562 918 562 c 0
 783 562 659 611 564 704 c 1
 613 438 621 277 621 0 c 1
 313 0 l 1
 313 534 243 926 73 1381 c 1
 376 1479 l 1
 420 1346 460 1233 514 1127 c 1
 559 1358 722 1486 935 1486 c 0
EndSplineSet
Substitution2: "'tnum' Tabular Numbers lookup 22 subtable" uni06F4.tnum
Substitution2: "'locl' Localized Forms in Arabic lookup 5 subtable" uni0664.urdu
EndChar

StartChar: uni06F5
Encoding: 1781 1781 295
Width: 1389
GlyphClass: 2
Flags: HW
LayerCount: 2
Fore
SplineSet
705 140 m 1
 664 43 588 -8 453 -8 c 0
 248 -8 101 147 101 403 c 0
 101 665 225 927 520 1147 c 1
 495 1170 423 1227 394 1249 c 1
 562 1479 l 1
 640 1425 707 1375 790 1305 c 0
 1105 1037 1290 734 1290 426 c 0
 1290 142 1149 -8 949 -8 c 0
 827 -8 742 43 705 140 c 1
604 502 m 1
 795 502 l 1
 800 428 l 2
 804 343 836 300 908 300 c 0
 962 300 1011 326 1011 433 c 0
 1011 581 922 766 693 971 c 1
 445 771 387 584 387 452 c 0
 387 334 435 300 497 300 c 0
 568 300 597 348 600 424 c 2
 604 502 l 1
EndSplineSet
Substitution2: "'tnum' Tabular Numbers lookup 22 subtable" uni06F5.tnum
EndChar

StartChar: uni06F6
Encoding: 1782 1782 296
Width: 1196
GlyphClass: 2
Flags: HW
LayerCount: 2
Fore
SplineSet
484 593 m 1
 266 636 130 780 130 978 c 0
 130 1288 376 1472 630 1472 c 0
 774 1472 894 1428 1008 1343 c 1
 870 1104 l 1
 812 1147 736 1170 653 1170 c 0
 538 1170 426 1113 426 987 c 0
 426 882 534 831 670 831 c 0
 777 831 874 869 964 906 c 2
 1004 924 l 1
 1127 636 l 1
 1106 629 l 2
 778 511 595 291 339 -61 c 1
 93 125 l 1
 208 305 340 471 484 593 c 1
EndSplineSet
Substitution2: "'tnum' Tabular Numbers lookup 22 subtable" uni0666.tnum
Substitution2: "'locl' Localized Forms in Arabic lookup 5 subtable" uni0666
EndChar

StartChar: uni200C
Encoding: 8204 8204 301
Width: 0
GlyphClass: 2
Flags: HW
LayerCount: 2
Fore
SplineSet
52 1366 m 1
 52 -291 l 1
 -52 -291 l 1
 -52 1366 l 1
 52 1366 l 1
EndSplineSet
EndChar

StartChar: uni200D
Encoding: 8205 8205 302
Width: 0
GlyphClass: 2
Flags: HW
LayerCount: 2
Fore
SplineSet
168 -297 m 1
 44 -173 l 1
 120 -97 l 1
 244 -221 l 1
 168 -297 l 1
-120 -9 m 1
 -244 115 l 1
 -168 191 l 1
 -44 67 l 1
 -120 -9 l 1
244 115 m 1
 -168 -297 l 1
 -244 -221 l 1
 168 191 l 1
 244 115 l 1
168 1016 m 1
 44 1140 l 1
 120 1216 l 1
 244 1092 l 1
 168 1016 l 1
-120 1304 m 1
 -244 1428 l 1
 -168 1504 l 1
 -44 1380 l 1
 -120 1304 l 1
244 1428 m 1
 -168 1016 l 1
 -244 1092 l 1
 168 1504 l 1
 244 1428 l 1
-52 1030 m 1
 52 1030 l 1
 52 176 l 1
 -52 176 l 1
 -52 1030 l 1
EndSplineSet
EndChar

StartChar: uniE000
Encoding: 57344 57344 303
Width: 107
GlyphClass: 2
Flags: HW
LayerCount: 2
Fore
SplineSet
0 308 m 2
 109 308 l 1
 109 0 l 1
 0 0 l 2
 -84 0 -154 70 -154 154 c 0
 -154 238 -84 308 0 308 c 2
EndSplineSet
EndChar

StartChar: uniE001
Encoding: 57345 57345 304
Width: 323
GlyphClass: 2
Flags: HW
LayerCount: 2
Fore
SplineSet
0 308 m 2
 324 308 l 1
 324 0 l 1
 0 0 l 2
 -84 0 -154 70 -154 154 c 0
 -154 238 -84 308 0 308 c 2
EndSplineSet
EndChar

StartChar: uniE002
Encoding: 57346 57346 305
Width: 452
GlyphClass: 2
Flags: HW
LayerCount: 2
Fore
SplineSet
0 308 m 2
 455 308 l 1
 455 0 l 1
 0 0 l 2
 -84 0 -154 70 -154 154 c 0
 -154 238 -84 308 0 308 c 2
EndSplineSet
EndChar

StartChar: uniE003
Encoding: 57347 57347 306
Width: 1896
GlyphClass: 2
Flags: HW
LayerCount: 2
Fore
SplineSet
1441 1473 m 1
 1590 1318 l 1
 215 -28 l 1
 66 127 l 1
 1441 1473 l 1
EndSplineSet
EndChar

StartChar: uniE004
Encoding: 57348 57348 307
Width: 1136
GlyphClass: 2
Flags: HW
LayerCount: 2
Fore
SplineSet
127 -112 m 1
 -23 1 l 1
 887 1187 l 1
 1037 1075 l 1
 127 -112 l 1
EndSplineSet
EndChar

StartChar: uniE005
Encoding: 57349 57349 308
Width: 1516
GlyphClass: 2
Flags: HW
LayerCount: 2
Fore
SplineSet
1316 -141 m 1
 1017 -141 l 1
 705 449 l 1
 886 553 l 1
 1316 -141 l 1
EndSplineSet
EndChar

StartChar: uniE006
Encoding: 57350 57350 309
Width: 1392
GlyphClass: 2
Flags: HW
LayerCount: 2
Fore
SplineSet
303 136 m 1
 303 315 l 1
 1089 315 l 1
 1089 136 l 1
 303 136 l 1
303 416 m 1
 303 596 l 1
 1089 596 l 1
 1089 416 l 1
 303 416 l 1
EndSplineSet
EndChar

StartChar: uniE007
Encoding: 57351 57351 310
Width: 923
GlyphClass: 2
Flags: HW
LayerCount: 2
Fore
SplineSet
332 1239 m 0
 285 1239 239 1243 194 1255 c 1
 234 1392 l 1
 265 1384 318 1376 371 1376 c 0
 442 1376 509 1390 509 1435 c 0
 509 1457 482 1465 435 1472 c 0
 349 1486 261 1518 261 1632 c 0
 261 1769 349 1863 482 1863 c 0
 527 1863 575 1851 622 1829 c 1
 580 1722 l 1
 555 1733 525 1740 493 1740 c 0
 435 1740 384 1716 384 1654 c 0
 384 1613 431 1605 477 1598 c 0
 563 1583 631 1552 631 1444 c 0
 631 1304 486 1239 332 1239 c 0
EndSplineSet
Colour: ffff00
EndChar

StartChar: uniE008
Encoding: 57352 57352 311
Width: 1031
GlyphClass: 2
Flags: HW
LayerCount: 2
Fore
SplineSet
529 1296 m 0
 529 1358 487 1408 423 1408 c 0
 359 1408 317 1358 317 1296 c 0
 317 1234 360 1184 423 1184 c 0
 486 1184 529 1234 529 1296 c 0
736 1296 m 0
 736 1130 615 975 423 975 c 0
 231 975 108 1130 108 1296 c 0
 108 1461 230 1618 423 1618 c 0
 616 1618 736 1461 736 1296 c 0
EndSplineSet
EndChar

StartChar: uniE009
Encoding: 57353 57353 312
Width: 1232
GlyphClass: 2
Flags: HW
LayerCount: 2
Fore
SplineSet
559 1654 m 1
 692 1654 l 1
 692 -196 l 1
 559 -196 l 1
 559 1654 l 1
EndSplineSet
EndChar

StartChar: uniE00A
Encoding: 57354 57354 313
Width: 1307
GlyphClass: 2
Flags: HW
LayerCount: 2
Fore
SplineSet
78 513 m 1
 78 713 l 1
 779 713 l 1
 779 513 l 1
 78 513 l 1
EndSplineSet
Colour: ffff00
EndChar

StartChar: uniE00B
Encoding: 57355 57355 314
Width: 1192
GlyphClass: 2
Flags: HW
LayerCount: 2
Fore
SplineSet
830 317 m 1
 773 137 656 -11 404 -11 c 0
 210 -11 88 100 88 290 c 0
 88 533 299 659 534 659 c 0
 652 659 749 638 842 611 c 1
 744 453 l 1
 693 466 639 471 582 471 c 0
 450 471 359 422 359 336 c 0
 359 267 404 223 499 223 c 0
 616 223 697 293 734 337 c 1
 830 317 l 1
EndSplineSet
Colour: ffff00
EndChar

StartChar: uniE00C
Encoding: 57356 57356 315
Width: 1658
GlyphClass: 2
Flags: HW
LayerCount: 2
Back
SplineSet
1640 748 m 2
 1640 0 l 1
 1333 0 l 1
 1333 640 l 2
 1333 733 1274 804 1170 804 c 0
 1048 804 985 714 977 606 c 1
 932 728 l 1
 940 940 1072 1109 1300 1109 c 0
 1513 1109 1640 953 1640 748 c 2
EndSplineSet
Fore
SplineSet
1640 726 m 2
 1640 0 l 1
 1333 0 l 1
 1333 669 l 2
 1333 760 1287 804 1192 804 c 0
 1075 804 1003 737 977 606 c 1
 933 728 l 1
 945 960 1081 1109 1282 1109 c 0
 1491 1109 1640 949 1640 726 c 2
EndSplineSet
Colour: ffff00
EndChar

StartChar: uniE00D
Encoding: 57357 57357 316
Width: 1118
GlyphClass: 2
Flags: HW
LayerCount: 2
Back
SplineSet
1052 747 m 2
 1052 0 l 1
 745 0 l 1
 745 638 l 2
 745 734 682 804 572 804 c 0
 455 804 383 724 373 606 c 1
 329 728 l 1
 340 950 479 1109 701 1109 c 0
 921 1109 1052 955 1052 747 c 2
EndSplineSet
Fore
SplineSet
1052 726 m 2
 1052 0 l 1
 745 0 l 1
 745 669 l 2
 745 760 691 804 596 804 c 0
 479 804 399 737 373 606 c 1
 329 728 l 1
 341 960 485 1109 686 1109 c 0
 895 1109 1052 949 1052 726 c 2
EndSplineSet
Colour: ffff00
EndChar

StartChar: uniE00E
Encoding: 57358 57358 317
Width: 848
GlyphClass: 2
Flags: HW
LayerCount: 2
Fore
SplineSet
861 824 m 1
 840 829 813 832 787 832 c 0
 577 832 448 642 439 412 c 1
 359 425 l 1
 369 753 466 1111 810 1111 c 0
 828 1111 847 1108 865 1106 c 1
 861 824 l 1
EndSplineSet
EndChar

StartChar: uniE00F
Encoding: 57359 57359 318
Width: 1206
GlyphClass: 2
Flags: HW
LayerCount: 2
Fore
SplineSet
1064 550 m 0
 1064 240 934 -10 668 -10 c 0
 497 -10 380 89 292 252 c 1
 376 339 l 1
 422 268 487 235 556 235 c 0
 670 235 757 347 757 550 c 0
 757 754 670 863 556 863 c 0
 487 863 422 831 376 760 c 1
 292 846 l 1
 380 1009 497 1108 668 1108 c 0
 934 1108 1064 860 1064 550 c 0
EndSplineSet
EndChar

StartChar: uniE020
Encoding: 57376 57376 319
Width: 879
GlyphClass: 2
Flags: HW
LayerCount: 2
Fore
SplineSet
119 476 m 0
 119 705 285 827 461 827 c 0
 563 827 662 788 741 712 c 1
 654 581 l 1
 604 621 538 644 474 644 c 0
 381 644 300 588 300 479 c 0
 300 387 372 330 488 330 c 0
 563 330 635 343 754 382 c 1
 816 213 l 1
 117 -11 l 1
 63 162 l 1
 294 236 l 1
 194 269 119 364 119 476 c 0
EndSplineSet
EndChar

StartChar: uniE021
Encoding: 57377 57377 320
Width: 563
GlyphClass: 2
Flags: HW
LayerCount: 2
Fore
SplineSet
561 1886 m 1
 680 1824 l 1
 611 1678 543 1612 430 1612 c 0
 365 1612 302 1636 250 1659 c 0
 210 1678 174 1692 144 1692 c 0
 81 1692 46 1641 -4 1568 c 1
 -116 1636 l 1
 -44 1776 51 1857 161 1857 c 0
 211 1857 259 1838 306 1817 c 0
 352 1797 394 1779 438 1779 c 0
 483 1779 517 1806 561 1886 c 1
436 1453 m 1
 436 0 l 1
 128 0 l 1
 128 1453 l 1
 436 1453 l 1
EndSplineSet
EndChar

StartChar: uniE022
Encoding: 57378 57378 321
Width: 563
GlyphClass: 2
Flags: HW
LayerCount: 2
Fore
SplineSet
436 0 m 1
 128 0 l 1
 128 1453 l 1
 436 1453 l 1
 436 0 l 1
EndSplineSet
EndChar

StartChar: uniE023
Encoding: 57379 57379 322
Width: 1477
GlyphClass: 2
Flags: HW
LayerCount: 2
Back
SplineSet
507.25 1024.75 m 0
 601 1024.75 699 990 786.5 956 c 2
 1341 739.75 l 1
 1337 441.75 l 1
 782 312.25 369.75 96.25 369.75 -175.25 c 0
 369.75 -359.75 571.5 -426.5 795.25 -426.5 c 0
 991 -426.5 1201.25 -378.25 1301.75 -334.25 c 1
 1414.25 -622 l 1
 1245 -706.75 1023.25 -757.5 805.5 -757.5 c 0
 420 -757.5 63.25 -597 63.25 -202.25 c 0
 63.25 224 490 467.75 896.75 594.75 c 1
 630.75 697 l 2
 589.25 713.5 553.5 719.5 522.25 719.5 c 0
 440 719.5 387.75 661 363.5 545 c 2
 355.5 505.75 l 1
 115.5 548.75 l 1
 123.75 598.5 l 2
 171.5 864.5 275.5 1024.75 507.25 1024.75 c 0
EndSplineSet
Fore
SplineSet
507 1025 m 0
 599 1025 688 995 867 917 c 0
 1052 836 1190 786 1338 756 c 1
 1338 448 l 1
 785 336 370 118 370 -163 c 0
 370 -343 552 -438 827 -438 c 0
 998 -438 1189 -402 1317 -349 c 1
 1429 -637 l 1
 1262 -721 1048 -770 831 -770 c 0
 376 -770 63 -554 63 -200 c 0
 63 168 398 445 897 601 c 1
 831 616 774 640 715 666 c 0
 630 702 580 720 536 720 c 0
 444 720 394 657 371 546 c 2
 363 506 l 1
 123 549 l 1
 131 599 l 1
 182 885 297 1025 507 1025 c 0
EndSplineSet
EndChar

StartChar: uniE024
Encoding: 57380 57380 323
Width: 1040
GlyphClass: 2
Flags: HW
LayerCount: 2
Fore
SplineSet
977 423 m 0
 977 113 691 -6 411 -6 c 0
 284 -6 156 13 53 42 c 1
 122 334 l 1
 186 318 295 300 400 300 c 0
 542 300 674 333 674 448 c 0
 674 545 556 717 340 903 c 1
 539 1138 l 1
 790 922 977 691 977 423 c 0
EndSplineSet
EndChar

StartChar: uniE025
Encoding: 57381 57381 324
Width: 818
GlyphClass: 2
Flags: HW
LayerCount: 2
Back
SplineSet
421.75 668 m 1
 725.75 783 l 1
 799 580.75 845 376.5 845 199 c 0
 845 -174.5 608.5 -443.75 175 -594 c 1
 41.25 -315.75 l 1
 397 -191 529 -10.5 529 211 c 0
 529 339.5 492.75 489.25 421.75 668 c 1
EndSplineSet
Fore
SplineSet
332 672 m 1
 624 772 l 1
 700 531 745 338 745 169 c 0
 745 -183 548 -421 75 -594 c 1
 -59 -317 l 1
 298 -191 437 -65 437 168 c 0
 437 294 400 468 332 672 c 1
EndSplineSet
EndChar

StartChar: uniE026
Encoding: 57382 57382 325
Width: 2580
GlyphClass: 2
Flags: HW
LayerCount: 2
Fore
SplineSet
1623 0 m 0
 1562 0 1511 20 1478 52 c 1
 1443 -334 1152 -512 774 -512 c 0
 287 -512 63 -277 63 131 c 0
 63 303 102 509 172 710 c 1
 451 626 l 1
 406 476 362 306 362 164 c 0
 362 -70 472 -204 773 -204 c 0
 1078 -204 1180 -73 1180 133 c 0
 1180 278 1119 470 1062 631 c 1
 1364 750 l 1
 1448 472 l 2
 1479 352 1516 308 1596 308 c 0
 1671 308 1711 354 1720 452 c 2
 1737 677 l 1
 2005 658 l 1
 1992 455 l 2
 1984 354 2025 308 2111 308 c 0
 2190 308 2226 351 2226 444 c 0
 2226 496 2214 591 2190 727 c 1
 2489 798 l 1
 2516 675 2530 551 2530 447 c 0
 2530 146 2409 0 2164 0 c 0
 2006 0 1906 62 1864 173 c 1
 1835 63 1733 0 1623 0 c 0
EndSplineSet
EndChar

StartChar: uniE027
Encoding: 57383 57383 326
Width: 2547
GlyphClass: 2
Flags: HW
LayerCount: 2
Fore
SplineSet
2010 595 m 0
 1916 595 1798 519 1668 337 c 1
 1718 316 1785 308 1859 308 c 0
 2017 308 2147 353 2147 468 c 0
 2147 542 2092 595 2010 595 c 0
2066 897 m 0
 2322 897 2484 708 2484 464 c 0
 2484 120 2202 0 1829 0 c 0
 1694 0 1579 19 1485 51 c 1
 1447 -332 1159 -497 773 -497 c 0
 287 -497 63 -263 63 144 c 0
 63 318 102 523 172 724 c 1
 451 641 l 1
 406 491 362 320 362 174 c 0
 362 -55 472 -190 773 -190 c 0
 1077 -190 1180 -58 1180 148 c 0
 1180 292 1124 469 1062 643 c 1
 1363 782 l 1
 1395 689 1430 558 1452 450 c 1
 1642 721 1824 897 2066 897 c 0
EndSplineSet
EndChar

StartChar: uniE028
Encoding: 57384 57384 327
Width: 1609
GlyphClass: 2
Flags: HW
LayerCount: 2
Fore
SplineSet
706 308 m 1
 927 308 l 2
 1098 308 1208 339 1208 456 c 0
 1208 538 1155 595 1071 595 c 0
 975 595 847 514 706 308 c 1
344 308 m 1
 352 320 360 331 367 342 c 1
 367 1453 l 1
 675 1453 l 1
 675 862 l 2
 675 779 669 693 650 614 c 1
 790 800 956 897 1129 897 c 0
 1385 897 1546 703 1546 464 c 0
 1546 214 1417 0 857 0 c 2
 63 0 l 1
 63 308 l 1
 344 308 l 1
EndSplineSet
EndChar

StartChar: uniE029
Encoding: 57385 57385 328
Width: 1443
GlyphClass: 2
Flags: HW
LayerCount: 2
Fore
SplineSet
1128 1128 m 1
 967 902 l 1
 904 960 805 1005 706 1005 c 0
 581 1005 476 924 476 800 c 0
 476 668 603 614 854 614 c 0
 954 614 1060 623 1156 633 c 1
 1170 334 l 1
 707 313 372 147 372 -131 c 0
 372 -325 557 -418 836 -418 c 0
 987 -418 1163 -391 1280 -349 c 1
 1380 -643 l 1
 1234 -704 1028 -742 828 -742 c 0
 366 -742 63 -543 63 -174 c 0
 63 60 193 268 418 412 c 1
 258 481 165 586 165 758 c 0
 165 1068 407 1312 694 1312 c 0
 857 1312 1018 1239 1128 1128 c 1
EndSplineSet
EndChar

StartChar: uniE02A
Encoding: 57386 57386 329
Width: 1872
GlyphClass: 2
Flags: HW
LayerCount: 2
Fore
SplineSet
0 308 m 1
 1872 308 l 1
 1872 0 l 1
 0 0 l 1
 -28 0 -42 31 -42 154 c 0
 -42 277 -28 308 0 308 c 1
EndSplineSet
EndChar

StartChar: uniE02B
Encoding: 57387 57387 330
Width: 1711
GlyphClass: 2
Flags: HW
LayerCount: 2
Fore
SplineSet
804 308 m 0
 1168 308 1281 356 1281 630 c 2
 1281 1446 l 1
 1589 1446 l 1
 1589 630 l 2
 1589 180 1323 0 784 0 c 0
 281 0 63 151 63 498 c 0
 63 590 78 704 105 812 c 1
 384 751 l 1
 364 651 354 571 354 514 c 0
 354 349 445 308 804 308 c 0
EndSplineSet
EndChar

StartChar: uniE02C
Encoding: 57388 57388 331
Width: 1474
GlyphClass: 2
Flags: HW
LayerCount: 2
Fore
SplineSet
693 -236 m 0
 935 -236 1044 -119 1044 120 c 2
 1044 1453 l 1
 1352 1453 l 1
 1352 120 l 2
 1352 -308 1086 -544 676 -544 c 0
 264 -544 63 -318 63 7 c 0
 63 150 98 319 164 486 c 1
 435 390 l 1
 392 269 364 145 364 48 c 0
 364 -125 463 -236 693 -236 c 0
EndSplineSet
EndChar

StartChar: uniE02D
Encoding: 57389 57389 332
Width: 1326
GlyphClass: 2
Flags: HW
LayerCount: 2
Fore
SplineSet
830 590 m 0
 732 590 680 452 660 344 c 1
 678 340 705 333 724 328 c 0
 786 310 847 298 891 298 c 0
 943 298 963 326 963 386 c 0
 963 479 933 590 830 590 c 0
838 892 m 0
 1089 892 1240 681 1240 376 c 0
 1240 126 1130 -11 920 -11 c 0
 840 -11 734 7 599 39 c 0
 522 58 477 67 445 67 c 0
 393 67 372 39 372 -17 c 2
 372 -714 l 1
 63 -714 l 1
 63 18 l 2
 63 244 193 402 392 393 c 1
 442 689 604 892 838 892 c 0
EndSplineSet
EndChar

StartChar: uniE02E
Encoding: 57390 57390 333
Width: 944
GlyphClass: 2
Flags: HW
LayerCount: 2
Fore
SplineSet
466 298 m 0
 550 298 593 342 593 407 c 0
 593 476 556 565 466 648 c 1
 377 566 338 475 338 407 c 0
 338 343 380 298 466 298 c 0
466 -11 m 0
 214 -11 63 151 63 343 c 0
 63 520 146 678 298 828 c 1
 268 856 233 888 196 920 c 1
 380 1140 l 1
 613 953 881 673 881 369 c 0
 881 158 706 -11 466 -11 c 0
EndSplineSet
EndChar

StartChar: uniE02F
Encoding: 57391 57391 334
Width: 981
GlyphClass: 2
Flags: HW
LayerCount: 2
Fore
SplineSet
591 6 m 1
 546 1 500 -3 450 -3 c 0
 223 -3 90 127 90 370 c 0
 90 611 214 894 488 894 c 0
 831 894 918 547 918 157 c 0
 918 -208 680 -437 195 -592 c 1
 63 -314 l 1
 336 -232 529 -122 591 6 c 1
631 318 m 1
 615 489 574 598 482 598 c 0
 398 598 359 503 359 399 c 0
 359 331 398 305 490 305 c 0
 542 305 595 311 631 318 c 1
EndSplineSet
EndChar

StartChar: uniE030
Encoding: 57392 57392 335
Width: 0
GlyphClass: 2
Flags: HW
LayerCount: 2
Fore
SplineSet
69 1519 m 0
 32 1519 -10 1485 -10 1447 c 0
 -10 1401 39 1376 79 1362 c 1
 106 1392 114 1424 114 1457 c 0
 114 1492 99 1519 69 1519 c 0
84 1648 m 0
 179 1648 243 1570 243 1465 c 0
 243 1254 -18 1127 -208 1076 c 1
 -244 1176 -292 1245 -375 1296 c 1
 -305 1403 l 1
 -234 1364 -180 1308 -135 1234 c 1
 -104 1246 -58 1268 -21 1286 c 1
 -72 1309 -134 1359 -134 1445 c 0
 -134 1546 -29 1648 84 1648 c 0
EndSplineSet
Colour: ffff00
EndChar

StartChar: uniE031
Encoding: 57393 57393 336
Width: 0
GlyphClass: 2
Flags: HW
LayerCount: 2
Fore
SplineSet
213 1365 m 261
 250 1243 l 257
 -213 1095 l 257
 -250 1219 l 261
 213 1365 l 261
EndSplineSet
Colour: ffff00
EndChar

StartChar: uniE032
Encoding: 57394 57394 337
Width: 0
GlyphClass: 2
Flags: HW
LayerCount: 2
Fore
SplineSet
69 1519 m 0
 32 1519 -10 1485 -10 1447 c 0
 -10 1401 39 1376 79 1362 c 1
 106 1392 114 1424 114 1457 c 0
 114 1492 99 1519 69 1519 c 0
85 1648 m 0
 180 1648 243 1570 243 1465 c 0
 243 1254 -18 1127 -208 1076 c 1
 -242 1197 l 1
 -175 1216 -57 1269 -21 1287 c 1
 -75 1311 -134 1363 -134 1444 c 0
 -134 1551 -25 1648 85 1648 c 0
EndSplineSet
Colour: ffff00
EndChar

StartChar: uniE033
Encoding: 57395 57395 338
Width: 0
GlyphClass: 2
Flags: HW
LayerCount: 2
Fore
SplineSet
167 1283 m 0
 167 1324 152 1382 141 1411 c 1
 261 1450 l 1
 276 1410 295 1354 295 1267 c 0
 295 1165 236 1095 133 1095 c 0
 80 1095 20 1121 0 1170 c 1
 -20 1121 -80 1095 -133 1095 c 0
 -236 1095 -295 1165 -295 1267 c 0
 -295 1354 -276 1410 -261 1450 c 1
 -141 1411 l 1
 -152 1382 -167 1324 -167 1283 c 0
 -167 1245 -155 1224 -115 1224 c 0
 -70 1224 -54 1261 -54 1334 c 2
 -54 1374 l 1
 54 1374 l 1
 54 1334 l 2
 54 1261 70 1224 115 1224 c 0
 155 1224 167 1245 167 1283 c 0
EndSplineSet
Colour: ffff00
EndChar

StartChar: uniE034
Encoding: 57396 57396 339
Width: 0
GlyphClass: 2
Flags: HW
LayerCount: 2
Fore
SplineSet
0 1341 m 256
 -55 1341 -83 1308 -83 1263 c 256
 -83 1218 -53 1183 0 1183 c 256
 51 1183 83 1220 83 1263 c 256
 83 1306 55 1341 0 1341 c 256
0 1463 m 256
 122 1463 202 1375 202 1263 c 256
 202 1151 122 1061 0 1061 c 256
 -123 1061 -202 1152 -202 1263 c 256
 -202 1374 -123 1463 0 1463 c 256
EndSplineSet
Colour: ffff00
EndChar

StartChar: uniE035
Encoding: 57397 57397 340
Width: 0
GlyphClass: 2
Flags: HW
LayerCount: 2
Fore
SplineSet
-296 1142 m 257
 -261 1209 -199 1293 -103 1293 c 256
 -50 1293 -12 1271 21 1251 c 0
 46 1236 70 1223 92 1223 c 256
 133 1223 156 1256 177 1305 c 257
 295 1256 l 257
 262 1178 198 1095 102 1095 c 256
 56 1095 20 1115 -11 1137 c 0
 -35 1154 -59 1165 -82 1165 c 256
 -125 1165 -159 1130 -181 1085 c 257
 -296 1142 l 257
EndSplineSet
Colour: ffff00
EndChar

StartChar: uniE036
Encoding: 57398 57398 341
Width: 0
GlyphClass: 2
Flags: HW
LayerCount: 2
Fore
SplineSet
156 1600 m 1
 124 1485 l 1
 105 1490 62 1495 40 1495 c 0
 -18 1495 -56 1459 -56 1405 c 0
 -56 1353 -20 1311 26 1311 c 0
 37 1311 52 1314 64 1318 c 2
 213 1365 l 1
 250 1243 l 1
 -213 1095 l 1
 -250 1219 l 1
 -119 1261 l 1
 -152 1296 -172 1352 -172 1410 c 0
 -172 1532 -81 1618 48 1618 c 0
 81 1618 115 1612 156 1600 c 1
EndSplineSet
Colour: ffff00
EndChar

StartChar: uniE037
Encoding: 57399 57399 342
Width: 0
GlyphClass: 2
Flags: HW
LayerCount: 2
Fore
SplineSet
55 1095 m 1
 -55 1095 l 1
 -266 1371 l 257
 -164 1449 l 261
 0 1226 l 261
 164 1449 l 257
 266 1371 l 257
 55 1095 l 1
EndSplineSet
Colour: ffff00
EndChar

StartChar: uniE038
Encoding: 57400 57400 343
Width: 1805
GlyphClass: 2
Flags: HW
LayerCount: 2
Fore
SplineSet
1690 880 m 1
 1724 748 1742 631 1742 529 c 0
 1742 143 1508 0 902 0 c 0
 296 0 63 143 63 529 c 0
 63 631 82 748 116 880 c 1
 390 820 l 1
 368 717 356 631 356 563 c 0
 356 346 477 308 902 308 c 0
 1327 308 1449 346 1449 563 c 0
 1449 631 1437 717 1415 820 c 1
 1690 880 l 1
EndSplineSet
EndChar

StartChar: uniE039
Encoding: 57401 57401 344
Width: 1566
GlyphClass: 2
Flags: HW
LayerCount: 2
Fore
SplineSet
1211 305 m 1
 1195 476 1154 584 1062 584 c 0
 978 584 940 489 940 385 c 0
 940 317 978 291 1070 291 c 0
 1122 291 1175 298 1211 305 c 1
1069 894 m 0
 1372 894 1503 598 1503 190 c 1
 1503 -273 1254 -546 772 -546 c 0
 330 -546 63 -306 63 85 c 0
 63 235 100 408 176 597 c 1
 454 472 l 1
 403 321 370 190 370 86 c 0
 370 -128 515 -237 798 -237 c 0
 1016 -237 1160 -142 1181 20 c 1
 1139 6 1081 -3 1030 -3 c 0
 804 -3 671 127 671 369 c 0
 671 610 795 894 1069 894 c 0
EndSplineSet
EndChar

StartChar: uniE03A
Encoding: 57402 57402 345
Width: 0
GlyphClass: 2
Flags: HW
LayerCount: 2
Fore
SplineSet
-74 1462 m 257
 74 1462 l 261
 74 1065 l 261
 -74 1065 l 257
 -74 1462 l 257
EndSplineSet
Colour: ffff00
EndChar

StartChar: uniE03B
Encoding: 57403 57403 346
Width: 1830
GlyphClass: 2
Flags: HW
LayerCount: 2
Fore
SplineSet
1496 487 m 1
 1426 467 1355 458 1276 458 c 0
 1058 458 916 540 916 780 c 0
 916 1015 1024 1320 1311 1320 c 0
 1730 1320 1768 749 1768 550 c 0
 1768 67 1429 0 895 0 c 0
 313 0 63 129 63 520 c 0
 63 618 79 738 108 860 c 1
 389 798 l 1
 368 701 356 615 356 550 c 0
 356 350 482 308 920 308 c 0
 1425 309 1496 322 1496 487 c 1
1453 739 m 1
 1437 910 1396 1018 1304 1018 c 0
 1220 1018 1181 923 1181 819 c 0
 1181 751 1220 725 1312 725 c 0
 1364 725 1417 732 1453 739 c 1
EndSplineSet
EndChar

StartChar: uniE03C
Encoding: 57404 57404 347
Width: 1693
GlyphClass: 2
Flags: HW
LayerCount: 2
Fore
SplineSet
108 861 m 1
 389 798 l 1
 367 693 356 611 356 551 c 0
 356 367 463 308 801 308 c 0
 1127 308 1299 363 1299 469 c 0
 1299 573 1134 743 827 958 c 1
 827 1208 l 1
 1132 1400 1432 1528 1743 1599 c 1
 1806 1298 l 1
 1584 1242 1392 1171 1191 1069 c 1
 1191 1059 l 1
 1486 801 1607 627 1607 446 c 0
 1607 160 1318 0 799 0 c 0
 284 0 63 157 63 521 c 0
 63 619 79 739 108 861 c 1
EndSplineSet
EndChar

StartChar: uniE03D
Encoding: 57405 57405 348
Width: 1620
GlyphClass: 2
Flags: HW
LayerCount: 2
Fore
SplineSet
1112 648 m 1
 1404 788 l 1
 1496 574 1557 417 1557 164 c 0
 1557 -290 1228 -519 810 -519 c 0
 307 -519 63 -276 63 148 c 0
 63 320 101 523 171 730 c 1
 453 639 l 1
 412 495 366 322 366 178 c 0
 366 -60 487 -211 810 -211 c 0
 1121 -211 1248 -65 1248 152 c 0
 1248 300 1190 475 1112 648 c 1
EndSplineSet
EndChar

StartChar: uniE03E
Encoding: 57406 57406 349
Width: 1594
GlyphClass: 2
Flags: HW
LayerCount: 2
Fore
SplineSet
1479 888 m 1
 1386 612 l 1
 1335 632 1247 648 1180 648 c 0
 1023 648 907 569 907 426 c 0
 907 337 976 319 1148 309 c 0
 1353 298 1531 256 1531 -12 c 0
 1531 -405 1179 -546 773 -546 c 0
 311 -546 78 -353 78 94 c 0
 78 238 94 374 124 515 c 1
 411 462 l 1
 388 323 373 219 373 89 c 0
 373 -167 496 -237 776 -237 c 0
 970 -237 1238 -188 1238 -70 c 0
 1238 -14 1207 1 1079 9 c 0
 768 27 610 110 610 380 c 0
 610 702 823 952 1158 952 c 0
 1268 952 1389 927 1479 888 c 1
EndSplineSet
EndChar

StartChar: uniE03F
Encoding: 57407 57407 350
Width: 2961
GlyphClass: 2
Flags: HW
LayerCount: 2
Fore
SplineSet
108 861 m 1
 389 798 l 1
 367 693 356 611 356 550 c 0
 356 365 460 308 800 308 c 0
 1126 308 1292 361 1292 468 c 0
 1292 571 1141 730 827 958 c 1
 827 1208 l 1
 1132 1400 1432 1528 1743 1599 c 1
 1806 1298 l 1
 1584 1242 1392 1171 1191 1069 c 1
 1191 1059 l 1
 1383 889 1482 774 1579 600 c 0
 1706 376 1795 308 1960 308 c 2
 2962 308 l 1
 2962 0 l 1
 1960 0 l 2
 1772 0 1610 80 1512 233 c 1
 1425 80 1180 0 807 0 c 0
 285 0 63 156 63 521 c 0
 63 619 79 739 108 861 c 1
EndSplineSet
EndChar

StartChar: uniE040
Encoding: 57408 57408 351
Width: 2836
GlyphClass: 2
Flags: HW
LayerCount: 2
Fore
SplineSet
171 730 m 1
 453 639 l 1
 412 495 366 322 366 178 c 0
 366 -60 485 -211 808 -211 c 0
 1137 -211 1247 -60 1247 177 c 0
 1247 300 1189 468 1113 648 c 1
 1404 788 l 1
 1515 506 l 1
 1567 370 1653 307 1835 307 c 1
 2836 307 l 1
 2836 0 l 1
 1835 0 l 1
 1712 0 1599 45 1538 123 c 1
 1553 -288 1224 -519 810 -519 c 0
 307 -519 63 -276 63 148 c 0
 63 320 101 523 171 730 c 1
EndSplineSet
EndChar

StartChar: uniE041
Encoding: 57409 57409 352
Width: 606
GlyphClass: 2
Flags: HW
LayerCount: 2
Back
SplineSet
479.75 893.25 m 1
 518.75 732.5 543.5 586.75 543.5 463 c 0
 543.5 182.25 398.5 0 0 0 c 0
 -27.5 0 -42.5 31.75 -42.5 154.5 c 0
 -42.5 277.25 -27.5 307.5 0 307.5 c 0
 181.5 307.5 242.5 367.25 242.5 499.75 c 0
 242.5 576.5 221.75 682 190.5 813.5 c 1
 479.75 893.25 l 1
EndSplineSet
Fore
SplineSet
480 893 m 1
 519 732 544 587 544 463 c 0
 544 182 398 0 38 0 c 0
 0 0 l 0
 -28 0 -42 31 -42 154 c 0
 -42 277 -28 308 0 308 c 0
 38 308 l 0
 181 308 242 368 242 500 c 0
 242 577 221 682 190 814 c 1
 480 893 l 1
EndSplineSet
EndChar

StartChar: uniE042
Encoding: 57410 57410 353
Width: 1824
GlyphClass: 2
Flags: HW
LayerCount: 2
Back
SplineSet
568.25 542.75 m 2
 568.25 356.670072116 594.525523561 307.5 823 307.5 c 2
 824.75 307.5 l 1
 824.75 0 l 1
 823 0 l 2
 624.567073171 0 462.831003898 70.1131568338 413.25 184.5 c 1
 363.539809549 70.0740312128 202.030487805 0 0 0 c 0
 -27.5 0 -42.5 31.75 -42.5 154.5 c 0
 -42.5 277.25 -27.5 307.5 0 307.5 c 0
 230.512434555 307.5 260.5 358.952906977 260.5 542.75 c 2
 260.5 724.5 l 1
 568.25 724.5 l 1
 568.25 542.75 l 2
EndSplineSet
Fore
SplineSet
568 543 m 2
 568 358 594 308 784 308 c 2
 1825 308 l 1
 1825 0 l 1
 782 0 l 2
 616 0 462 69 413 184 c 1
 363 70 202 0 38 0 c 2
 0 0 l 1
 -28 0 -42 31 -42 154 c 0
 -42 277 -28 308 0 308 c 1
 38 308 l 2
 230 308 260 359 260 543 c 2
 260 724 l 1
 568 724 l 1
 568 543 l 2
EndSplineSet
EndChar

StartChar: uniE043
Encoding: 57411 57411 354
Width: 2497
GlyphClass: 2
Flags: HW
LayerCount: 2
Fore
SplineSet
2497 308 m 1
 2497 0 l 1
 1324 0 l 1
 1391 -58 1432 -127 1432 -209 c 0
 1432 -460 1137 -614 756 -614 c 0
 303 -614 63 -406 63 13 c 0
 63 203 99 399 166 639 c 1
 450 562 l 1
 390 328 360 170 360 29 c 0
 360 -214 486 -306 778 -306 c 0
 990 -306 1160 -257 1160 -149 c 0
 1160 -64 1049 -40 718 -0 c 1
 763 308 l 1
 2497 308 l 1
EndSplineSet
EndChar

StartChar: uniE044
Encoding: 57412 57412 355
Width: 1646
GlyphClass: 2
Flags: HW
LayerCount: 2
Fore
SplineSet
122 1453 m 1
 431 1453 l 1
 431 500 l 2
 431 359 477 308 646 308 c 2
 1646 308 l 1
 1646 0 l 1
 646 0 l 2
 317 0 122 167 122 494 c 2
 122 1453 l 1
EndSplineSet
EndChar

StartChar: uniE045
Encoding: 57413 57413 356
Width: 2465
GlyphClass: 2
Flags: HW
LayerCount: 2
Fore
SplineSet
506 1025 m 0
 599 1025 688 995 867 917 c 0
 1051 836 1190 785 1338 756 c 1
 1338 448 l 1
 1290 437 1241 426 1193 412 c 1
 1233 319 1312 308 1445 308 c 2
 2465 308 l 1
 2465 0 l 1
 1444 0 l 2
 1188 0 1030 100 986 356 c 1
 615 233 370 53 370 -163 c 0
 370 -344 552 -438 828 -438 c 0
 999 -438 1189 -402 1317 -349 c 1
 1429 -637 l 1
 1262 -720 1047 -770 831 -770 c 0
 376 -770 63 -554 63 -200 c 0
 63 168 398 445 897 601 c 1
 831 617 776 640 716 666 c 0
 632 702 581 720 536 720 c 0
 444 720 395 657 371 546 c 2
 363 506 l 1
 123 549 l 1
 131 599 l 1
 183 885 296 1025 506 1025 c 0
EndSplineSet
EndChar

StartChar: uniE046
Encoding: 57414 57414 357
Width: 1365
GlyphClass: 2
Flags: HW
LayerCount: 2
Fore
SplineSet
480 996 m 0
 583 996 694 948 827 890 c 0
 960 832 1113 765 1302 727 c 1
 1302 481 l 1
 850 179 l 2
 654 49 458 0 217 0 c 2
 0 0 l 2
 -28 0 -42 32 -42 154 c 0
 -42 276 -28 308 0 308 c 2
 276 308 l 2
 448 308 569 331 716 418 c 2
 938 552 l 1
 830 574 747 608 677 638 c 0
 608 667 552 691 494 691 c 0
 412 691 359 633 335 517 c 2
 327 477 l 1
 87 520 l 1
 95 571 l 2
 143 837 248 996 480 996 c 0
EndSplineSet
EndChar

StartChar: uniE047
Encoding: 57415 57415 358
Width: 2414
GlyphClass: 2
Flags: HW
LayerCount: 2
Fore
SplineSet
480 996 m 0
 583 996 694 948 827 890 c 0
 960 832 1113 765 1302 727 c 1
 1302 481 l 1
 1168 392 l 1
 1215 327 1263 308 1390 308 c 2
 2415 308 l 1
 2415 0 l 1
 1389 0 l 2
 1184 0 1040 72 970 260 c 1
 850 179 l 2
 654 49 458 0 217 0 c 2
 0 0 l 2
 -28 0 -42 32 -42 154 c 0
 -42 276 -28 308 0 308 c 2
 276 308 l 2
 448 308 569 331 716 418 c 2
 938 552 l 1
 830 574 747 608 677 638 c 0
 608 667 552 691 494 691 c 0
 412 691 359 633 335 517 c 2
 327 477 l 1
 87 520 l 1
 95 571 l 1
 143 837 248 996 480 996 c 0
EndSplineSet
EndChar

StartChar: uniE048
Encoding: 57416 57416 359
Width: 2317
GlyphClass: 2
Flags: HW
LayerCount: 2
Fore
SplineSet
784 1122 m 1
 1047 507 l 2
 1113 351 1178 308 1306 308 c 2
 2317 308 l 1
 2317 0 l 1
 1302 0 l 2
 1133 0 991 54 902 195 c 1
 818 55 652 -10 477 -10 c 0
 327 -10 171 39 53 139 c 1
 186 384 l 1
 275 325 377 298 471 298 c 0
 585 298 682 333 753 413 c 1
 500 986 l 1
 784 1122 l 1
EndSplineSet
EndChar

StartChar: uniE049
Encoding: 57417 57417 360
Width: 1958
GlyphClass: 2
Flags: HW
LayerCount: 2
Fore
SplineSet
332 672 m 1
 624 772 l 1
 692 549 l 2
 754 343 791 308 957 308 c 2
 1958 308 l 1
 1958 0 l 1
 957 0 l 2
 862 0 784 23 730 72 c 1
 698 -235 497 -439 75 -594 c 1
 -59 -317 l 1
 298 -191 437 -64 437 170 c 0
 437 295 400 469 332 672 c 1
EndSplineSet
EndChar

StartChar: uniE04A
Encoding: 57418 57418 361
Width: 3781
GlyphClass: 2
Flags: HW
LayerCount: 2
Fore
SplineSet
172 710 m 1
 451 626 l 1
 406 476 362 306 362 164 c 0
 362 -70 472 -204 773 -204 c 0
 1078 -204 1180 -73 1180 133 c 0
 1180 278 1119 470 1062 631 c 1
 1364 750 l 1
 1448 472 l 2
 1479 352 1516 308 1596 308 c 0
 1671 308 1711 354 1720 452 c 2
 1737 677 l 1
 2005 658 l 1
 1992 455 l 2
 1984 354 2025 308 2109 308 c 0
 2190 308 2226 350 2226 444 c 0
 2226 495 2215 583 2190 728 c 1
 2486 790 l 1
 2510 619 l 1
 2548 359 2598 308 2780 308 c 2
 3781 308 l 1
 3781 0 l 1
 2780 0 l 2
 2589 0 2467 68 2434 191 c 1
 2407 71 2299 0 2151 0 c 0
 1993 0 1906 62 1864 173 c 1
 1835 63 1733 0 1623 0 c 0
 1562 0 1511 20 1478 52 c 1
 1443 -334 1152 -512 774 -512 c 0
 287 -512 63 -277 63 131 c 0
 63 303 102 509 172 710 c 1
EndSplineSet
EndChar

StartChar: uniE04B
Encoding: 57419 57419 362
Width: 1686
GlyphClass: 2
Flags: HW
LayerCount: 2
Fore
SplineSet
680 308 m 0
 760 304 804 350 813 452 c 2
 830 677 l 1
 1098 658 l 1
 1085 455 l 2
 1077 354 1118 308 1204 308 c 0
 1283 308 1319 350 1319 444 c 0
 1319 500 1306 614 1284 739 c 1
 1582 810 l 1
 1608 692 1623 556 1623 448 c 0
 1623 147 1504 0 1258 0 c 0
 1100 0 999 62 957 173 c 1
 914 57 819 0 671 0 c 0
 520 0 426 61 388 180 c 1
 331 70 195 0 38 0 c 2
 0 0 l 2
 -30 0 -42 48 -42 158 c 0
 -42 265 -31 308 0 308 c 2
 38 308 l 2
 183 308 248 363 262 510 c 2
 281 731 l 1
 589 708 l 1
 568 468 l 2
 558 366 596 312 680 308 c 0
EndSplineSet
EndChar

StartChar: uniE04C
Encoding: 57420 57420 363
Width: 2874
GlyphClass: 2
Flags: HW
LayerCount: 2
Fore
SplineSet
1202 308 m 0
 1283 308 1319 350 1319 444 c 0
 1319 495 1307 583 1282 728 c 1
 1580 790 l 1
 1604 619 l 1
 1642 359 1691 308 1873 308 c 2
 2874 308 l 1
 2874 0 l 1
 1873 0 l 2
 1682 0 1561 68 1528 191 c 1
 1501 71 1392 0 1244 0 c 0
 1097 0 998 65 957 173 c 1
 914 57 820 0 672 0 c 0
 521 0 426 61 388 180 c 1
 331 70 195 0 38 0 c 2
 0 0 l 2
 -30 0 -42 48 -42 158 c 0
 -42 265 -30 308 0 308 c 2
 38 308 l 2
 183 308 248 363 262 510 c 2
 281 731 l 1
 589 708 l 1
 568 468 l 2
 558 366 596 312 680 308 c 0
 760 304 803 350 812 452 c 2
 830 677 l 1
 1098 658 l 1
 1084 455 l 2
 1076 354 1118 308 1202 308 c 0
EndSplineSet
EndChar

StartChar: uniE04D
Encoding: 57421 57421 364
Width: 3592
GlyphClass: 2
Flags: HW
LayerCount: 2
Fore
SplineSet
2010 595 m 0
 1916 595 1798 519 1668 337 c 1
 1718 316 1785 308 1859 308 c 0
 2017 308 2147 353 2147 468 c 0
 2147 542 2092 595 2010 595 c 0
2066 897 m 0
 2322 897 2484 708 2484 464 c 0
 2484 412 2474 367 2457 328 c 1
 2489 314 2543 308 2591 308 c 1
 3592 308 l 1
 3592 0 l 1
 2591 0 l 2
 2454 0 2358 44 2305 108 c 1
 2188 30 2020 0 1829 0 c 0
 1694 0 1579 19 1485 51 c 1
 1447 -332 1159 -497 773 -497 c 0
 287 -497 63 -263 63 144 c 0
 63 318 102 523 172 724 c 1
 451 641 l 1
 406 491 362 320 362 174 c 0
 362 -55 472 -190 773 -190 c 0
 1077 -190 1180 -58 1180 148 c 0
 1180 292 1124 469 1062 643 c 1
 1363 782 l 1
 1395 689 1430 558 1452 450 c 1
 1642 721 1824 897 2066 897 c 0
EndSplineSet
EndChar

StartChar: uniE04E
Encoding: 57422 57422 365
Width: 1691
GlyphClass: 2
Flags: HW
LayerCount: 2
Fore
SplineSet
1153 595 m 0
 1059 595 942 519 812 337 c 1
 862 316 929 308 1003 308 c 0
 1161 308 1291 353 1291 468 c 0
 1291 542 1235 595 1153 595 c 0
260 724 m 1
 568 724 l 1
 569 524 l 1
 573 470 588 453 612 438 c 1
 766 724 976 897 1210 897 c 0
 1466 897 1628 708 1628 464 c 0
 1628 120 1345 0 972 0 c 0
 706 0 507 71 413 184 c 1
 363 70 202 0 38 0 c 2
 0 0 l 1
 -28 0 -42 31 -42 154 c 0
 -42 277 -28 308 0 308 c 1
 38 308 l 2
 230 308 260 359 260 543 c 2
 260 724 l 1
EndSplineSet
EndChar

StartChar: uniE04F
Encoding: 57423 57423 366
Width: 2735
GlyphClass: 2
Flags: HW
LayerCount: 2
Fore
SplineSet
260 724 m 1
 568 724 l 1
 569 524 l 1
 573 470 588 453 612 438 c 1
 766 724 976 897 1210 897 c 0
 1466 897 1628 708 1628 464 c 0
 1628 412 1618 367 1601 328 c 1
 1639 314 1681 308 1734 308 c 1
 2735 308 l 1
 2735 0 l 1
 1734 0 l 2
 1615 0 1510 33 1449 108 c 1
 1332 31 1163 0 972 0 c 0
 706 0 507 71 413 184 c 1
 363 70 202 0 38 0 c 2
 0 0 l 1
 -28 0 -42 31 -42 154 c 0
 -42 277 -28 308 0 308 c 1
 38 308 l 2
 230 308 260 359 260 543 c 2
 260 724 l 1
1153 595 m 0
 1059 595 942 519 812 337 c 1
 862 316 929 308 1003 308 c 0
 1161 308 1291 353 1291 468 c 0
 1291 542 1235 595 1153 595 c 0
EndSplineSet
EndChar

StartChar: uniE050
Encoding: 57424 57424 367
Width: 2658
GlyphClass: 2
Flags: HW
LayerCount: 2
Back
SplineSet
705.5 307.5 m 1
 927.25 307.5 l 2
 1097.84097333 307.5 1208.25 339.295898438 1208.25 456.301269531 c 0
 1208.25 537.865722656 1154.57619295 594.75 1070.9309082 594.75 c 0
 974.497461815 594.75 846.643847024 513.108462698 705.5 307.5 c 1
343.5 307.5 m 1
 351 319 359.5 331 366.75 341.75 c 1
 365.25 1453.25 l 1
 673.5 1453.25 l 1
 674.75 649.75 l 1
 828 824.75 975.25 897.25 1129.25 897.25 c 0
 1385.75 897.25 1546 703.25 1546 464 c 0
 1546 415.5 1537.75 372.75 1524.25 334.5 c 1
 1560.75 317.5 1603.5 307.5 1657.25 307.5 c 1
 1658.25 307.5 l 1
 1658.25 0 l 1
 1657.25 0 l 2
 1520 0 1440.5 46.25 1384.5 120.25 c 1
 1260 26.5 1071.25 0 857.25 0 c 2
 63.25 0 l 1
 63.25 307.5 l 1
 343.5 307.5 l 1
EndSplineSet
Fore
SplineSet
706 308 m 1
 927 308 l 2
 1098 308 1208 339 1208 456 c 0
 1208 538 1155 595 1071 595 c 0
 975 595 847 514 706 308 c 1
344 308 m 1
 352 320 360 331 367 342 c 1
 367 1453 l 1
 675 1453 l 1
 675 862 l 2
 675 779 669 693 650 614 c 1
 790 800 956 897 1129 897 c 0
 1385 897 1546 703 1546 464 c 0
 1546 416 1538 372 1524 334 c 1
 1560 317 1603 308 1657 308 c 1
 2658 308 l 1
 2658 0 l 1
 1657 0 l 2
 1520 0 1440 46 1384 120 c 1
 1260 26 1071 0 857 0 c 2
 63 0 l 1
 63 308 l 1
 344 308 l 1
EndSplineSet
EndChar

StartChar: uniE051
Encoding: 57425 57425 368
Width: 1383
GlyphClass: 2
Flags: HW
LayerCount: 2
Fore
SplineSet
1 0 m 1
 -27 0 -41 31 -41 154 c 0
 -41 277 -27 308 1 308 c 1
 118 308 l 1
 126 320 134 331 141 342 c 1
 141 1453 l 1
 449 1453 l 1
 449 862 l 2
 449 779 443 693 424 614 c 1
 564 800 730 897 903 897 c 0
 1159 897 1320 703 1320 464 c 0
 1320 214 1191 0 631 0 c 2
 1 0 l 1
480 308 m 1
 701 308 l 2
 872 308 982 339 982 456 c 0
 982 538 929 595 845 595 c 0
 749 595 621 514 480 308 c 1
EndSplineSet
EndChar

StartChar: uniE052
Encoding: 57426 57426 369
Width: 2432
GlyphClass: 2
Flags: HW
LayerCount: 2
Fore
SplineSet
1 0 m 2
 -27 0 -41 31 -41 154 c 0
 -41 277 -27 308 1 308 c 2
 117 308 l 1
 125 320 133 331 140 342 c 1
 140 1453 l 1
 448 1453 l 1
 448 862 l 2
 448 779 443 693 424 614 c 1
 564 800 730 897 903 897 c 0
 1159 897 1320 703 1320 464 c 0
 1320 416 1312 372 1298 334 c 1
 1334 317 1377 308 1431 308 c 1
 2432 308 l 1
 2432 0 l 1
 1431 0 l 2
 1294 0 1214 46 1158 120 c 1
 1034 26 845 0 631 0 c 2
 1 0 l 2
479 308 m 1
 701 308 l 2
 872 308 982 339 982 456 c 0
 982 538 929 595 845 595 c 0
 749 595 620 514 479 308 c 1
EndSplineSet
EndChar

StartChar: uniE053
Encoding: 57427 57427 370
Width: 2288
GlyphClass: 2
Flags: HW
LayerCount: 2
Fore
SplineSet
911 585 m 0
 911 640 853 680 743 680 c 0
 673 680 607 665 544 633 c 1
 544 625 l 1
 754 415 l 1
 843 467 911 539 911 585 c 0
1191 607 m 0
 1191 497 1115 391 1021 324 c 1
 1071 308 1158 308 1214 308 c 2
 2289 308 l 1
 2289 0 l 1
 1176 0 l 2
 1014 0 850 43 739 117 c 1
 488 19 370 -117 370 -258 c 0
 370 -428 576 -489 796 -489 c 0
 951 -489 1100 -461 1199 -420 c 1
 1301 -698 l 1
 1159 -758 972 -795 790 -795 c 0
 414 -795 63 -646 63 -260 c 0
 63 4 250 193 494 307 c 1
 214 583 l 1
 220 768 l 1
 372 911 558 970 750 970 c 0
 951 970 1191 854 1191 607 c 0
EndSplineSet
EndChar

StartChar: uniE054
Encoding: 57428 57428 371
Width: 1139
GlyphClass: 2
Flags: HW
LayerCount: 2
Fore
SplineSet
393 543 m 0
 393 437 469 374 577 374 c 0
 601 374 639 379 674 386 c 2
 1019 452 l 1
 1076 148 l 1
 521 43 l 1
 373 16 196 0 40 0 c 2
 0 0 l 1
 -31 0 -42 45 -42 154 c 0
 -42 262 -31 308 0 308 c 1
 27 308 l 2
 74 308 115 309 168 315 c 1
 118 369 85 442 85 536 c 0
 85 836 313 1052 600 1052 c 0
 758 1052 877 994 1002 868 c 1
 842 645 l 1
 768 712 697 744 610 744 c 0
 486 744 393 671 393 543 c 0
EndSplineSet
EndChar

StartChar: uniE055
Encoding: 57429 57429 372
Width: 2183
GlyphClass: 2
Flags: HW
LayerCount: 2
Fore
SplineSet
637 680 m 0
 570 680 500 666 441 633 c 1
 441 625 l 1
 651 415 l 1
 741 469 808 537 808 586 c 0
 808 636 755 680 637 680 c 0
647 970 m 0
 853 970 1091 854 1091 609 c 0
 1091 497 1012 392 919 324 c 1
 970 308 1032 308 1092 308 c 2
 2184 308 l 1
 2184 0 l 1
 1058 0 l 2
 890 0 770 32 650 118 c 1
 505 41 328 0 127 0 c 2
 0 0 l 1
 -27 0 -42 31 -42 154 c 0
 -42 277 -27 308 0 308 c 1
 116 308 l 2
 211 308 292 315 370 327 c 1
 111 583 l 1
 116 768 l 1
 265 909 456 970 647 970 c 0
EndSplineSet
EndChar

StartChar: uniE056
Encoding: 57430 57430 373
Width: 2846
GlyphClass: 2
Flags: HW
LayerCount: 2
Fore
SplineSet
1589 630 m 2
 1589 360 1632 308 1846 308 c 2
 2847 308 l 1
 2847 0 l 1
 1846 0 l 2
 1632 0 1491 71 1436 204 c 1
 1352 62 1162 0 813 0 c 0
 281 0 63 145 63 497 c 0
 63 590 78 704 105 812 c 1
 384 751 l 1
 364 651 354 571 354 514 c 0
 354 354 442 308 800 308 c 0
 1188 308 1281 370 1281 630 c 2
 1281 1446 l 1
 1589 1446 l 1
 1589 630 l 2
EndSplineSet
EndChar

StartChar: uniE057
Encoding: 57431 57431 374
Width: 910
GlyphClass: 2
Flags: HW
LayerCount: 2
Fore
SplineSet
932 1599 m 1
 995 1298 l 1
 774 1242 582 1171 380 1069 c 1
 380 1059 l 1
 669 818 796 631 796 439 c 0
 796 168 547 0 145 0 c 2
 0 0 l 2
 -30 0 -42 45 -42 155 c 0
 -42 265 -30 308 0 308 c 2
 138 308 l 2
 364 308 489 361 489 460 c 0
 489 566 346 717 18 958 c 1
 18 1208 l 1
 324 1401 621 1528 932 1599 c 1
EndSplineSet
EndChar

StartChar: uniE058
Encoding: 57432 57432 375
Width: 2148
GlyphClass: 2
Flags: HW
LayerCount: 2
Fore
SplineSet
932 1599 m 1
 995 1298 l 1
 774 1242 582 1171 380 1069 c 1
 380 1059 l 1
 580 890 699 748 787 572 c 0
 885 376 979 308 1148 308 c 2
 2148 308 l 1
 2148 0 l 1
 1148 0 l 2
 958 0 787 83 686 236 c 1
 611 83 420 0 160 0 c 2
 0 0 l 2
 -30 0 -42 45 -42 155 c 0
 -42 265 -30 308 0 308 c 2
 154 308 l 2
 366 308 489 363 489 461 c 0
 489 567 342 720 18 958 c 1
 18 1208 l 1
 324 1401 621 1528 932 1599 c 1
EndSplineSet
EndChar

StartChar: uniE059
Encoding: 57433 57433 376
Width: 2612
GlyphClass: 2
Flags: HW
LayerCount: 2
Fore
SplineSet
2612 308 m 1
 2612 0 l 1
 1573 0 l 2
 1477 0 1390 32 1344 100 c 1
 1344 49 l 2
 1344 -305 1080 -544 676 -544 c 0
 264 -544 63 -318 63 7 c 0
 63 150 98 319 164 486 c 1
 435 390 l 1
 392 269 364 145 364 48 c 0
 364 -125 463 -236 693 -236 c 0
 935 -236 1044 -119 1044 120 c 2
 1044 1453 l 1
 1352 1453 l 1
 1352 525 l 2
 1352 365 1399 308 1573 308 c 2
 2612 308 l 1
EndSplineSet
EndChar

StartChar: uniE05A
Encoding: 57434 57434 377
Width: 639
GlyphClass: 2
Flags: HW
LayerCount: 2
Fore
SplineSet
0 308 m 0
 184 308 209 344 209 496 c 2
 209 1453 l 1
 517 1453 l 1
 517 496 l 2
 517 176 340 0 0 0 c 0
 -27 0 -43 32 -43 154 c 0
 -43 276 -27 308 0 308 c 0
EndSplineSet
EndChar

StartChar: uniE05B
Encoding: 57435 57435 378
Width: 1729
GlyphClass: 2
Flags: HW
LayerCount: 2
Fore
SplineSet
516 514 m 2
 516 369 553 308 728 308 c 2
 1729 308 l 1
 1729 0 l 1
 728 0 l 2
 554 0 404 73 362 188 c 1
 320 72 175 0 0 0 c 0
 -27 0 -42 32 -42 154 c 0
 -42 276 -27 308 0 308 c 0
 190 308 209 351 209 500 c 2
 209 1453 l 1
 516 1453 l 1
 516 514 l 2
EndSplineSet
EndChar

StartChar: uniE05C
Encoding: 57436 57436 379
Width: 2502
GlyphClass: 2
Flags: HW
LayerCount: 2
Fore
SplineSet
830 590 m 0
 732 590 680 452 660 344 c 1
 678 340 705 333 724 328 c 0
 788 310 847 298 891 298 c 0
 942 298 963 324 963 388 c 0
 963 476 934 590 830 590 c 0
837 892 m 0
 1059 892 1140 740 1211 585 c 0
 1274 446 1339 308 1501 308 c 2
 2502 308 l 1
 2502 0 l 1
 1501 0 l 2
 1343 0 1256 63 1192 194 c 1
 1152 76 1070 -11 928 -11 c 0
 830 -11 711 14 613 37 c 0
 543 54 476 67 439 67 c 0
 392 67 372 42 372 -14 c 2
 372 -714 l 1
 63 -714 l 1
 63 18 l 2
 63 233 184 402 392 393 c 1
 437 659 583 892 837 892 c 0
EndSplineSet
EndChar

StartChar: uniE05D
Encoding: 57437 57437 380
Width: 1141
GlyphClass: 2
Flags: HW
LayerCount: 2
Fore
SplineSet
0 308 m 0
 141 308 205 432 272 565 c 0
 356 730 440 894 660 894 c 0
 902 894 1066 658 1066 407 c 0
 1066 153 924 -10 677 -10 c 0
 539 -10 399 52 325 150 c 1
 246 56 148 0 0 0 c 0
 -28 0 -42 31 -42 154 c 0
 -42 277 -28 308 0 308 c 0
481 386 m 1
 543 327 616 297 678 297 c 0
 730 297 786 331 786 407 c 0
 786 515 720 591 657 591 c 0
 599 591 549 556 497 424 c 1
 481 386 l 1
EndSplineSet
EndChar

StartChar: uniE05E
Encoding: 57438 57438 381
Width: 2323
GlyphClass: 2
Flags: HW
LayerCount: 2
Fore
SplineSet
481 386 m 1
 543 327 616 297 678 297 c 0
 730 297 786 331 786 407 c 0
 786 515 720 591 657 591 c 0
 599 591 549 556 497 424 c 1
 481 386 l 1
0 308 m 0
 140 308 205 434 273 568 c 0
 357 732 444 894 652 894 c 0
 873 894 963 733 1036 576 c 0
 1101 437 1164 308 1322 308 c 2
 2323 308 l 1
 2323 0 l 1
 1322 0 l 2
 1173 0 1042 60 998 209 c 1
 963 71 834 -11 677 -11 c 0
 539 -11 399 52 325 150 c 1
 246 56 148 0 0 0 c 0
 -28 0 -42 31 -42 154 c 0
 -42 277 -28 308 0 308 c 0
EndSplineSet
EndChar

StartChar: uniE05F
Encoding: 57439 57439 382
Width: 2202
GlyphClass: 2
Flags: HW
LayerCount: 2
Fore
SplineSet
651 966 m 1
 639 1139 l 1
 948 1158 l 1
 985 502 l 2
 993 369 1036 308 1201 308 c 2
 2202 308 l 1
 2202 0 l 1
 1201 0 l 2
 973 0 837 58 762 173 c 1
 698 149 627 136 558 136 c 0
 334 136 125 234 125 462 c 0
 125 749 363 912 651 966 c 1
671 686 m 1
 478 674 409 588 409 516 c 0
 409 460 463 415 582 415 c 0
 614 415 662 420 693 428 c 1
 689 446 686 461 684 486 c 2
 671 686 l 1
EndSplineSet
EndChar

StartChar: uniE060
Encoding: 57440 57440 383
Width: 1437
GlyphClass: 2
Flags: HW
LayerCount: 2
Fore
SplineSet
0 308 m 1
 81 308 l 2
 136 308 170 312 209 322 c 1
 151 390 100 474 100 568 c 0
 100 681 152 795 246 875 c 1
 133 924 l 1
 254 1208 l 1
 850 952 l 2
 1219 793 1374 636 1374 388 c 0
 1374 172 1218 -11 935 -11 c 0
 771 -11 633 36 504 99 c 1
 396 39 243 0 98 0 c 2
 0 0 l 1
 -27 0 -42 32 -42 154 c 0
 -42 276 -27 308 0 308 c 1
510 384 m 1
 599 427 653 491 653 579 c 0
 653 665 613 731 525 731 c 0
 440 731 386 652 386 562 c 0
 386 484 442 425 510 384 c 1
779 323 m 1
 831 308 889 299 941 299 c 0
 1017 299 1075 326 1075 406 c 0
 1075 482 1018 548 882 606 c 1
 906 496 859 388 779 323 c 1
EndSplineSet
EndChar

StartChar: uniE061
Encoding: 57441 57441 384
Width: 2116
GlyphClass: 2
Flags: HW
LayerCount: 2
Fore
SplineSet
574 967 m 0
 776 967 906 823 906 602 c 0
 906 345 726 141 418 45 c 1
 442 -71 501 -153 600 -215 c 1
 631 -200 l 1
 736 136 896 308 1090 308 c 2
 2117 308 l 1
 2117 0 l 1
 1084 0 l 2
 962 0 894 -108 807 -452 c 1
 603 -544 l 1
 364 -444 208 -255 152 0 c 1
 0 0 l 2
 -30 0 -42 45 -42 155 c 0
 -42 264 -30 308 0 308 c 2
 127 308 l 1
 141 713 312 967 574 967 c 0
392 324 m 1
 552 335 656 425 656 550 c 0
 656 620 624 659 565 659 c 0
 457 659 387 524 392 324 c 1
EndSplineSet
EndChar

StartChar: uniE062
Encoding: 57442 57442 385
Width: 1989
GlyphClass: 2
Flags: HW
LayerCount: 2
Fore
SplineSet
632 311 m 1
 616 484 577 598 482 598 c 0
 398 598 359 506 359 402 c 0
 359 334 398 308 490 308 c 1
 538 308 591 309 632 311 c 1
592 0 m 1
 544 0 496 0 450 0 c 1
 223 0 90 130 90 373 c 0
 90 613 214 895 488 895 c 0
 788 895 890 625 912 308 c 1
 1989 308 l 1
 1989 0 l 1
 900 0 l 1
 844 -276 607 -462 195 -592 c 1
 63 -313 l 1
 332 -232 527 -124 592 0 c 1
EndSplineSet
EndChar

StartChar: uniE063
Encoding: 57443 57443 386
Width: 1342
GlyphClass: 2
Flags: HW
LayerCount: 2
Back
SplineSet
628 497.5 m 1
 331.25 451.75 l 1
 305.75 757.25 226.25 1068.75 101.75 1365 c 1
 389.75 1474.25 l 1
 518.75 1166 601.75 838.5 628 497.5 c 1
911.5 1453.25 m 1
 1220 1453.25 l 1
 1220 839.5 l 2
 1220 185.5 1033.75 0 318.75 0 c 1
 90 0 l 1
 90 307.5 l 1
 341.75 307.5 l 1
 824 307.5 911.5 351 911.5 807.75 c 2
 911.5 1453.25 l 1
EndSplineSet
Fore
SplineSet
102 1365 m 1
 390 1474 l 1
 513 1181 601 831 624 521 c 1
 325 480 l 1
 303 757 216 1093 102 1365 c 1
912 1453 m 1
 1220 1453 l 1
 1220 840 l 2
 1220 168 1015 0 319 0 c 2
 90 0 l 1
 90 308 l 1
 342 308 l 2
 821 308 912 348 912 808 c 2
 912 1453 l 1
EndSplineSet
EndChar

StartChar: uniE064
Encoding: 57444 57444 387
Width: 2435
GlyphClass: 2
Flags: HW
LayerCount: 2
Back
SplineSet
650.5 497.5 m 1
 353.75 451.75 l 1
 328.25 757.25 248.75 1068.75 124.25 1365 c 1
 412.25 1474.25 l 1
 541.25 1166 624.25 838.5 650.5 497.5 c 1
929.25 1453.25 m 1
 1237.5 1453.25 l 1
 1237.5 500.5 l 1
 1237.5 356.75 1285.5 307.5 1451.5 307.5 c 2
 1453.25 307.5 l 1
 1453.25 0 l 1
 1451.5 0 l 2
 1241.5 0 1063.65 65.55 1008.75 295 c 2
 1008 348.5 l 1
 863.25 105.75 568.5 0 107.5 0 c 1
 107.5 307.5 l 1
 705 307.5 929.25 448.75 929.25 996.75 c 2
 929.25 1453.25 l 1
EndSplineSet
Fore
SplineSet
106 1365 m 1
 394 1474 l 1
 517 1181 596 855 620 542 c 1
 322 503 l 1
 299 782 220 1093 106 1365 c 1
911 1453 m 1
 1220 1453 l 1
 1220 500 l 2
 1220 353 1271 308 1434 308 c 2
 2435 308 l 1
 2435 0 l 1
 1434 0 l 2
 1183 0 1035 98 991 295 c 2
 990 315 l 1
 836 95 567 0 90 0 c 1
 90 308 l 1
 644 308 855 407 911 688 c 1
 911 1453 l 1
EndSplineSet
EndChar

StartChar: uniE065
Encoding: 57445 57445 388
Width: 2965
GlyphClass: 2
Flags: HW
LayerCount: 2
Fore
SplineSet
1793 744 m 1
 1774 644 1761 561 1761 491 c 0
 1761 379 1802 308 1964 308 c 2
 2966 308 l 1
 2966 0 l 1
 1964 0 l 2
 1744 0 1614 72 1522 236 c 1
 1357 59 1108 0 790 0 c 0
 267 0 63 210 63 547 c 0
 63 658 84 785 124 917 c 1
 394 843 l 1
 365 743 350 655 350 586 c 0
 350 383 476 308 834 308 c 0
 1282 308 1450 450 1512 790 c 1
 1793 744 l 1
EndSplineSet
EndChar

StartChar: uniE066
Encoding: 57446 57446 389
Width: 963
GlyphClass: 2
Flags: HW
LayerCount: 2
Fore
SplineSet
586 739 m 1
 570 910 528 1018 436 1018 c 0
 352 1018 313 923 313 819 c 0
 313 751 352 725 444 725 c 0
 496 725 550 732 586 739 c 1
0 308 m 1
 88 308 l 2
 572 308 628 326 628 487 c 1
 558 467 487 458 408 458 c 0
 190 458 50 540 50 780 c 0
 50 1015 156 1320 443 1320 c 0
 862 1320 900 749 900 550 c 0
 900 170 762 0 98 0 c 1
 0 0 l 1
 -28 0 -42 31 -42 154 c 0
 -42 277 -27 308 0 308 c 1
EndSplineSet
EndChar

StartChar: uniE067
Encoding: 57447 57447 390
Width: 2952
GlyphClass: 2
Flags: HW
LayerCount: 2
Fore
SplineSet
1444 81 m 1
 1288 33 1079 0 881 0 c 0
 323 0 63 140 63 486 c 0
 63 613 97 757 151 916 c 1
 420 830 l 1
 382 714 358 616 358 538 c 0
 358 349 527 308 881 308 c 0
 965 308 1079 311 1159 320 c 1
 1073 385 1014 477 1014 612 c 0
 1014 866 1202 1049 1448 1049 c 0
 1689 1049 1882 868 1882 617 c 0
 1882 485 1822 386 1737 319 c 1
 1782 311 1825 308 1878 308 c 2
 2952 308 l 1
 2952 0 l 1
 1848 0 l 2
 1703 0 1560 29 1444 81 c 1
1446 387 m 1
 1527 431 1575 506 1575 597 c 0
 1575 671 1533 742 1448 742 c 0
 1361 742 1322 673 1322 597 c 0
 1322 508 1370 431 1446 387 c 1
EndSplineSet
EndChar

StartChar: uniE068
Encoding: 57448 57448 391
Width: 2039
GlyphClass: 2
Flags: HW
LayerCount: 2
Fore
SplineSet
85 612 m 0
 85 866 274 1049 520 1049 c 0
 761 1049 954 868 954 617 c 0
 954 485 893 386 807 319 c 1
 852 311 897 308 949 308 c 2
 2039 308 l 1
 2039 0 l 1
 919 0 l 2
 774 0 629 29 513 81 c 1
 397 29 254 0 108 0 c 2
 0 0 l 1
 -28 0 -43 31 -43 154 c 0
 -43 277 -28 308 0 308 c 1
 80 308 l 2
 134 308 182 311 231 319 c 1
 146 384 85 478 85 612 c 0
518 388 m 1
 600 432 645 506 645 597 c 0
 645 671 605 742 520 742 c 0
 433 742 393 673 393 597 c 0
 393 508 443 432 518 388 c 1
EndSplineSet
EndChar

StartChar: uniE069
Encoding: 57449 57449 392
Width: 2574
GlyphClass: 2
Flags: HW
LayerCount: 2
Fore
SplineSet
1213 298 m 1
 1197 471 1158 584 1063 584 c 0
 979 584 941 492 941 388 c 0
 941 320 979 294 1071 294 c 1
 1119 294 1172 296 1213 298 c 1
1181 14 m 1
 1141 8 1080 0 1031 0 c 1
 805 0 672 130 672 372 c 0
 672 612 796 895 1070 895 c 0
 1343 895 1475 657 1498 308 c 1
 2574 308 l 1
 2574 0 l 1
 1483 0 l 1
 1438 -351 1136 -546 772 -546 c 0
 330 -546 63 -306 63 85 c 0
 63 235 100 408 176 597 c 1
 454 472 l 1
 403 321 370 190 370 86 c 0
 370 -128 515 -237 798 -237 c 0
 1009 -237 1160 -144 1181 14 c 1
EndSplineSet
EndChar

StartChar: uniFD3E
Encoding: 64830 64830 421
Width: 794
GlyphClass: 2
Flags: HW
LayerCount: 2
Fore
SplineSet
223 723 m 0
 223 627 285 554 382 554 c 0
 479 554 542 627 542 723 c 0
 542 818 480 892 382 892 c 0
 284 892 223 818 223 723 c 0
728 -46 m 1
 546 -164 l 1
 420 20 327 200 282 419 c 1
 150 461 68 587 68 723 c 0
 68 857 148 984 281 1026 c 1
 326 1251 420 1439 546 1624 c 1
 728 1506 l 1
 628 1350 563 1183 534 1002 c 1
 636 950 697 839 697 723 c 0
 697 606 634 497 534 445 c 1
 565 269 629 108 728 -46 c 1
EndSplineSet
EndChar

StartChar: uniFD3F
Encoding: 64831 64831 422
Width: 794
GlyphClass: 2
Flags: HW
LayerCount: 2
Fore
SplineSet
573 723 m 0
 573 818 512 892 414 892 c 0
 316 892 255 818 255 723 c 0
 255 627 317 554 414 554 c 0
 511 554 573 627 573 723 c 0
69 -46 m 1
 168 108 231 269 262 445 c 1
 162 497 100 606 100 723 c 0
 100 839 161 950 263 1002 c 1
 234 1183 169 1350 69 1506 c 1
 250 1624 l 1
 376 1439 470 1251 515 1026 c 1
 648 984 729 857 729 723 c 0
 729 587 646 461 514 419 c 1
 469 200 376 20 250 -164 c 1
 69 -46 l 1
EndSplineSet
EndChar

StartChar: v
Encoding: 118 118 520
Width: 1137
GlyphClass: 2
Flags: HW
LayerCount: 2
Fore
SplineSet
813 1099 m 1
 1142 1099 l 1
 751 0 l 1
 394 0 l 1
 -4 1099 l 1
 325 1099 l 1
 572 332 l 1
 813 1099 l 1
EndSplineSet
Substitution2: "'smcp' Lowercase to Small Capitals in Latin lookup 0 subtable" uni1D20
EndChar

StartChar: w
Encoding: 119 119 521
Width: 1640
GlyphClass: 2
Flags: HW
LayerCount: 2
Fore
SplineSet
38 1099 m 1
 325 1099 l 1
 518 382 l 1
 705 1093 l 1
 936 1093 l 1
 1124 382 l 1
 1317 1099 l 1
 1604 1099 l 1
 1310 0 l 1
 1003 0 l 1
 820 649 l 1
 638 0 l 1
 332 0 l 1
 38 1099 l 1
EndSplineSet
Substitution2: "'smcp' Lowercase to Small Capitals in Latin lookup 0 subtable" uni1D21
EndChar

StartChar: x
Encoding: 120 120 522
Width: 1136
GlyphClass: 2
Flags: HW
LayerCount: 2
Fore
SplineSet
772 1099 m 1
 1126 1099 l 1
 759 534 l 1
 1126 0 l 1
 772 0 l 1
 568 314 l 1
 366 0 l 1
 10 0 l 1
 378 534 l 1
 10 1099 l 1
 365 1099 l 1
 568 754 l 1
 772 1099 l 1
EndSplineSet
Substitution2: "'smcp' Lowercase to Small Capitals in Latin lookup 0 subtable" uniA7EF
EndChar

StartChar: y
Encoding: 121 121 523
Width: 1137
GlyphClass: 2
Flags: HW
LayerCount: 2
Fore
SplineSet
813 1099 m 1
 1142 1099 l 1
 583 -465 l 1
 234 -465 l 1
 420 -11 l 1
 -4 1099 l 1
 326 1099 l 1
 572 332 l 1
 813 1099 l 1
EndSplineSet
Substitution2: "'smcp' Lowercase to Small Capitals in Latin lookup 0 subtable" uni028F
EndChar

StartChar: z
Encoding: 122 122 527
Width: 1051
GlyphClass: 2
Flags: HW
LayerCount: 2
Fore
SplineSet
78 836 m 1
 78 1099 l 1
 967 1099 l 1
 967 882 l 1
 435 262 l 1
 967 262 l 1
 967 0 l 1
 78 0 l 1
 78 216 l 1
 609 836 l 1
 78 836 l 1
EndSplineSet
Substitution2: "'smcp' Lowercase to Small Capitals in Latin lookup 0 subtable" uni1D22
EndChar

StartChar: uniFBE8.Extended_1
Encoding: 1114122 -1 529
Width: 666
Flags: HW
LayerCount: 2
Fore
SplineSet
540 893 m 1
 579 732 604 587 604 463 c 0
 604 182 458 0 60 0 c 2
 0 0 l 2
 -28 0 -43 31 -43 154 c 0
 -43 277 -28 308 0 308 c 2
 60 308 l 2
 242 308 302 368 302 500 c 0
 302 577 281 682 250 814 c 1
 540 893 l 1
EndSplineSet
EndChar

StartChar: uniFBE9.Extended_1
Encoding: 1114123 -1 530
Width: 884
Flags: HW
LayerCount: 2
Fore
SplineSet
628 724 m 1
 628 543 l 2
 628 353 658 308 883 308 c 2
 885 308 l 1
 885 0 l 1
 883 0 l 2
 681 0 521 72 473 184 c 1
 424 71 264 0 59 0 c 2
 0 0 l 2
 -28 0 -43 31 -43 154 c 0
 -43 277 -28 308 0 308 c 2
 59 308 l 2
 285 308 320 355 320 543 c 2
 320 724 l 1
 628 724 l 1
EndSplineSet
EndChar

StartChar: uniFBE8.Extended_2
Encoding: 1114132 -1 539
Width: 861
Flags: HW
LayerCount: 2
Fore
SplineSet
735 893 m 1
 774 732 798 587 798 463 c 0
 798 182 653 0 255 0 c 2
 1 0 l 2
 -27 0 -42 31 -42 154 c 0
 -42 277 -27 308 1 308 c 2
 255 308 l 2
 437 308 498 368 498 500 c 0
 498 577 477 682 446 814 c 1
 735 893 l 1
EndSplineSet
EndChar

StartChar: uniFBE9.Extended_2
Encoding: 1114133 -1 540
Width: 1079
Flags: HW
LayerCount: 2
Fore
SplineSet
823 724 m 1
 823 543 l 2
 823 353 853 308 1078 308 c 2
 1080 308 l 1
 1080 0 l 1
 1078 0 l 2
 876 0 716 72 668 184 c 1
 619 71 459 0 254 0 c 2
 0 0 l 2
 -28 0 -43 31 -43 154 c 0
 -43 277 -28 308 0 308 c 2
 254 308 l 2
 480 308 515 355 515 543 c 2
 515 724 l 1
 823 724 l 1
EndSplineSet
EndChar

StartChar: uniE019
Encoding: 57369 57369 553
Width: 1556
Flags: HW
LayerCount: 2
Fore
SplineSet
605 55 m 257
 755 205 l 257
 905 55 l 257
 755 -95 l 257
 605 55 l 257
873 55 m 257
 1023 205 l 257
 1173 55 l 257
 1023 -95 l 257
 873 55 l 257
749 -168 m 257
 889 -28 l 257
 1029 -168 l 257
 889 -308 l 257
 749 -168 l 257
EndSplineSet
Colour: ffff00
EndChar

StartChar: dollar.alt
Encoding: 1114146 -1 554
Width: 1259
Flags: HW
LayerCount: 2
Fore
SplineSet
694 127 m 1
 694 -196 l 1
 561 -196 l 1
 561 127 l 1
 694 127 l 1
561 1357 m 1
 561 1654 l 1
 694 1654 l 1
 694 1357 l 1
 561 1357 l 1
EndSplineSet
Refer: 46 83 N 1 0 0 1 0 0 2
EndChar

StartChar: uniFEE0.alt
Encoding: 1114147 -1 555
Width: 1727
Flags: HW
LayerCount: 2
Fore
SplineSet
516 514 m 2
 516 370 552 308 728 308 c 2
 1729 308 l 1
 1729 0 l 1
 728 0 l 2
 552 0 404 74 362 188 c 1
 320 74 178 0 0 0 c 0
 -28 0 -43 31 -43 154 c 0
 -43 277 -28 308 0 308 c 0
 194 308 209 363 209 581 c 2
 209 1294 l 1
 516 1294 l 1
 516 514 l 2
EndSplineSet
EndChar

StartChar: uniFBE8.Extended_3
Encoding: 1114148 -1 556
Width: 749
Flags: HW
LayerCount: 2
Fore
SplineSet
622 893 m 1
 661 732 686 587 686 463 c 0
 686 182 540 0 142 0 c 2
 1 0 l 2
 -27 0 -42 31 -42 154 c 0
 -42 277 -27 308 1 308 c 2
 142 308 l 2
 324 308 385 368 385 500 c 0
 385 577 364 682 333 814 c 1
 622 893 l 1
EndSplineSet
EndChar

StartChar: uniFBE9.Extended_3
Encoding: 1114149 -1 557
Width: 967
Flags: HW
LayerCount: 2
Fore
SplineSet
711 724 m 1
 711 543 l 2
 711 353 741 308 966 308 c 2
 968 308 l 1
 968 0 l 1
 966 0 l 2
 764 0 604 72 556 184 c 1
 507 71 347 0 142 0 c 2
 0 0 l 2
 -28 0 -43 31 -43 154 c 0
 -43 277 -28 308 0 308 c 2
 142 308 l 2
 368 308 403 355 403 543 c 2
 403 724 l 1
 711 724 l 1
EndSplineSet
EndChar

StartChar: Arabic_Single_Dot
Encoding: 1114152 -1 560
Width: 563
Flags: HW
LayerCount: 2
Fore
SplineSet
92 180 m 1
 282 370 l 1
 471 180 l 1
 282 -9 l 1
 92 180 l 1
EndSplineSet
EndChar

StartChar: uniE06E
Encoding: 57454 57454 567
Width: 0
Flags: HW
LayerCount: 2
Fore
SplineSet
-36 1226 m 5
 20 1226 l 6
 86 1226 200 1235 200 1304 c 4
 200 1338 171 1368 132 1368 c 4
 75 1368 21 1300 -36 1226 c 5
-200 1226 m 5
 -200 1618 l 1
 -68 1618 l 1
 -68 1348 l 5
 0 1432 62 1499 161 1499 c 4
 249 1499 332 1437 332 1305 c 0
 332 1144 188 1095 20 1095 c 2
 -322 1095 l 1
 -322 1226 l 5
 -200 1226 l 5
EndSplineSet
Colour: ffff00
EndChar

StartChar: figuredash
Encoding: 8210 8210 569
Width: 1486
Flags: HW
LayerCount: 2
Fore
SplineSet
1405 734 m 1
 1405 511 l 1
 82 511 l 1
 82 734 l 1
 1405 734 l 1
EndSplineSet
EndChar

StartChar: uni200E
Encoding: 8206 8206 571
Width: 0
Flags: HW
LayerCount: 2
Fore
SplineSet
298 1027 m 1
 222 1103 l 1
 390 1271 l 1
 222 1439 l 1
 298 1515 l 1
 542 1271 l 1
 298 1027 l 1
299 -306 m 1
 223 -230 l 1
 392 -62 l 1
 223 106 l 1
 299 182 l 1
 542 -62 l 1
 299 -306 l 1
52 49 m 2
 52 11 74 -10 112 -10 c 2
 236 -10 l 1
 236 -116 l 1
 112 -116 l 2
 18 -116 -52 -45 -52 49 c 2
 -52 1159 l 2
 -52 1253 18 1324 112 1324 c 2
 236 1324 l 1
 236 1218 l 1
 112 1218 l 2
 74 1218 52 1197 52 1159 c 2
 52 49 l 2
EndSplineSet
EndChar

StartChar: uni200F
Encoding: 8207 8207 572
Width: 0
Flags: HW
LayerCount: 2
Fore
SplineSet
-298 1027 m 1
 -542 1271 l 1
 -298 1515 l 1
 -222 1439 l 1
 -390 1271 l 1
 -222 1103 l 1
 -298 1027 l 1
-299 -306 m 1
 -542 -62 l 1
 -299 182 l 1
 -223 106 l 1
 -392 -62 l 1
 -223 -230 l 1
 -299 -306 l 1
-52 49 m 2
 -52 1159 l 2
 -52 1197 -74 1218 -112 1218 c 2
 -236 1218 l 1
 -236 1324 l 1
 -112 1324 l 2
 -18 1324 52 1253 52 1159 c 2
 52 49 l 2
 52 -45 -18 -116 -112 -116 c 2
 -236 -116 l 1
 -236 -10 l 1
 -112 -10 l 2
 -74 -10 -52 11 -52 49 c 2
EndSplineSet
EndChar

StartChar: uni202A
Encoding: 8234 8234 573
Width: 0
Flags: HW
LayerCount: 2
Fore
SplineSet
-60 985 m 1
 -135 1060 l 1
 33 1229 l 1
 -135 1397 l 1
 -60 1472 l 1
 184 1229 l 1
 -60 985 l 1
-58 863 m 25
 57 863 l 25
 57 48 l 1
 -58 48 l 25
 -58 863 l 25
EndSplineSet
EndChar

StartChar: uni202B
Encoding: 8235 8235 574
Width: 0
Flags: HW
LayerCount: 2
Fore
SplineSet
60 985 m 1
 -184 1229 l 1
 60 1472 l 1
 135 1397 l 1
 -33 1229 l 1
 135 1060 l 1
 60 985 l 1
-57 863 m 25
 58 863 l 25
 58 48 l 25
 -57 48 l 1
 -57 863 l 25
EndSplineSet
EndChar

StartChar: uni202C
Encoding: 8236 8236 575
Width: 0
Flags: HW
LayerCount: 2
Fore
SplineSet
-243 1147 m 1
 0 1390 l 1
 244 1147 l 1
 169 1071 l 1
 0 1239 l 1
 -168 1071 l 1
 -243 1147 l 1
-58 876 m 25
 57 876 l 25
 57 48 l 1
 -58 48 l 1
 -58 876 l 25
EndSplineSet
EndChar

StartChar: uni202D
Encoding: 8237 8237 576
Width: 0
Flags: HW
LayerCount: 2
Fore
SplineSet
89 985 m 1
 14 1060 l 1
 182 1229 l 1
 14 1397 l 1
 89 1472 l 1
 333 1229 l 1
 89 985 l 1
-173 985 m 1
 -249 1060 l 1
 -80 1229 l 1
 -249 1397 l 1
 -173 1472 l 1
 70 1229 l 1
 -173 985 l 1
-58 863 m 25
 57 863 l 25
 57 48 l 1
 -58 48 l 25
 -58 863 l 25
EndSplineSet
EndChar

StartChar: uni202E
Encoding: 8238 8238 577
Width: 0
Flags: HW
LayerCount: 2
Fore
SplineSet
-89 985 m 1
 -333 1229 l 1
 -89 1472 l 1
 -14 1397 l 1
 -182 1229 l 1
 -14 1060 l 1
 -89 985 l 1
173 985 m 1
 -70 1229 l 1
 173 1472 l 1
 249 1397 l 1
 80 1229 l 1
 249 1060 l 1
 173 985 l 1
-57 863 m 25
 58 863 l 25
 58 48 l 25
 -57 48 l 1
 -57 863 l 25
EndSplineSet
EndChar

StartChar: uni220E
Encoding: 8718 8718 578
Width: 1087
Flags: HW
LayerCount: 2
Fore
SplineSet
167 1224 m 1
 922 1224 l 1
 922 0 l 1
 167 0 l 1
 167 1224 l 1
EndSplineSet
EndChar

StartChar: filledbox
Encoding: 9632 9632 579
Width: 1086
Flags: HW
LayerCount: 2
Fore
SplineSet
167 755 m 1
 922 755 l 1
 922 0 l 1
 167 0 l 1
 167 755 l 1
EndSplineSet
EndChar

StartChar: g.alt
Encoding: 1114159 -1 580
Width: 1153
Flags: HW
LayerCount: 2
Fore
SplineSet
849 1009 m 1
 905 1099 1012 1178 1154 1178 c 1
 1154 964 l 1
 1067 964 1021 937 964 881 c 1
 849 1009 l 1
584 1109 m 0
 904 1109 1048 930 1048 716 c 0
 1048 502 902 320 584 320 c 0
 266 320 121 502 121 716 c 0
 121 930 264 1109 584 1109 c 0
1133 -110 m 0
 1133 -370 905 -491 579 -491 c 0
 218 -491 63 -370 63 -192 c 0
 63 -80 134 25 257 72 c 1
 427 -30 l 1
 355 -63 318 -112 318 -170 c 0
 318 -260 414 -290 583 -290 c 0
 760 -290 835 -234 835 -160 c 0
 835 -92 773 -66 594 -66 c 0
 247 -66 126 28 126 220 c 0
 126 330 180 425 286 475 c 1
 413 362 l 1
 374 334 354 303 354 269 c 0
 354 193 427 170 709 170 c 0
 1038 170 1133 84 1133 -110 c 0
584 891 m 0
 477 891 428 827 428 716 c 0
 428 605 476 540 584 540 c 0
 692 540 742 605 742 716 c 0
 742 827 691 891 584 891 c 0
EndSplineSet
EndChar

StartChar: uni0601
Encoding: 1537 1537 581
Width: 3996
Flags: HW
LayerCount: 2
Fore
SplineSet
64 348 m 1
 309 472 l 1
 369 332 395 289 441 289 c 0
 485 289 507 338 546 438 c 0
 650 693 746 814 909 814 c 0
 1053 814 1157 717 1295 506 c 0
 1391 360 1452 290 1536 290 c 0
 1631 290 1695 391 1768 590 c 1
 1948 615 l 1
 2140 391 2395 290 2640 290 c 0
 2854 290 3036 372 3268 527 c 0
 3447 647 3544 691 3648 691 c 0
 3813 691 3932 566 3932 397 c 0
 3932 258 3855 120 3665 -75 c 1
 3484 100 l 1
 3560 165 3596 219 3596 262 c 0
 3596 296 3573 318 3545 318 c 0
 3514 318 3482 300 3410 252 c 0
 3158 85 2905 -18 2643 -18 c 0
 2406 -18 2144 59 1914 238 c 1
 1819 78 1709 -18 1537 -18 c 0
 1341 -18 1204 101 1048 346 c 0
 984 444 944 494 899 494 c 0
 847 494 820 436 782 331 c 0
 688 85 598 -18 427 -18 c 0
 259 -18 182 70 64 348 c 1
EndSplineSet
EndChar

StartChar: uni0603
Encoding: 1539 1539 582
Width: 2058
Flags: HW
LayerCount: 2
Fore
SplineSet
64 0 m 1
 64 308 l 1
 360 308 504 435 598 840 c 1
 897 772 l 1
 775 230 524 0 64 0 c 1
1658 462 m 0
 1658 538 1608 587 1524 587 c 0
 1420 587 1291 503 1156 314 c 1
 956 446 l 1
 1184 764 1371 890 1578 890 c 0
 1830 890 1995 711 1995 457 c 0
 1995 151 1756 0 1372 0 c 0
 1033 0 791 123 551 394 c 1
 755 628 l 1
 985 408 1173 307 1401 307 c 0
 1552 307 1658 350 1658 462 c 0
EndSplineSet
EndChar

StartChar: uni0604
Encoding: 1540 1540 583
Width: 2868
Flags: HW
LayerCount: 2
Fore
SplineSet
1282 -199 m 1
 1060 -85 889 0 662 0 c 2
 64 0 l 1
 64 308 l 1
 518 308 l 2
 572 308 614 301 660 286 c 1
 638 320 629 364 629 409 c 0
 629 685 835 930 1114 930 c 0
 1338 930 1451 804 1554 683 c 0
 1652 567 1714 508 1845 508 c 0
 1953 508 2006 558 2006 676 c 2
 2006 921 l 1
 2270 921 l 1
 2270 676 l 2
 2270 574 2292 508 2386 508 c 0
 2480 508 2499 567 2499 658 c 0
 2499 742 2483 862 2460 964 c 1
 2760 1027 l 1
 2792 887 2804 786 2804 638 c 0
 2804 352 2676 200 2428 200 c 0
 2260 200 2168 272 2144 374 c 1
 2120 272 2037 200 1869 200 c 0
 1646 200 1522 329 1412 447 c 0
 1326 540 1246 622 1133 622 c 0
 998 622 935 522 935 407 c 0
 935 279 1100 210 1241 152 c 0
 1303 126 1360 101 1416 76 c 1
 1282 -199 l 1
EndSplineSet
EndChar

StartChar: uni060D
Encoding: 1549 1549 587
Width: 885
Flags: HW
LayerCount: 2
Fore
SplineSet
268 -627 m 1
 -62 -627 l 1
 456 699 l 1
 785 699 l 1
 268 -627 l 1
EndSplineSet
EndChar

StartChar: uni060E
Encoding: 1550 1550 588
Width: 2191
Flags: HW
LayerCount: 2
Fore
SplineSet
1112 415 m 0
 1112 193 976 -5 895 -107 c 1
 657 79 l 1
 713 147 805 268 805 386 c 0
 805 517 722 594 598 594 c 0
 478 594 370 505 370 368 c 0
 370 229 522 182 672 182 c 2
 2127 182 l 1
 2127 -124 l 1
 668 -124 l 2
 330 -124 64 28 64 351 c 0
 64 677 325 901 598 901 c 0
 887 901 1112 706 1112 415 c 0
EndSplineSet
EndChar

StartChar: uni060F
Encoding: 1551 1551 589
Width: 1560
Flags: HW
LayerCount: 2
Fore
SplineSet
829 -743 m 0
 382 -743 64 -523 64 -148 c 0
 64 76 184 262 418 412 c 1
 268 474 166 610 166 790 c 0
 166 1088 403 1312 695 1312 c 0
 863 1312 1014 1242 1128 1128 c 1
 968 902 l 1
 904 961 805 1005 702 1005 c 0
 576 1005 477 929 477 807 c 0
 477 673 608 614 853 614 c 0
 929 614 1030 622 1156 633 c 1
 1170 334 l 1
 705 313 372 150 372 -128 c 0
 372 -329 576 -436 846 -436 c 0
 1024 -436 1159 -388 1159 -276 c 0
 1159 -204 1107 -154 1022 -154 c 0
 919 -154 796 -229 680 -404 c 1
 354 -891 l 1
 136 -744 l 1
 480 -274 l 1
 674 0 896 133 1103 133 c 0
 1340 133 1496 -33 1496 -266 c 0
 1496 -572 1221 -743 829 -743 c 0
EndSplineSet
EndChar

StartChar: uni06DD
Encoding: 1757 1757 694
Width: 0
Flags: HW
LayerCount: 2
Fore
SplineSet
1056 641 m 0
 1056 418 1068 153 1098 -106 c 0
 1098 -107 1098 -109 1098 -110 c 0
 1098 -123 1087 -134 1075 -136 c 0
 823 -182 669 -248 532 -308 c 0
 372 -378 214 -436 0 -436 c 0
 -214 -436 -372 -378 -532 -308 c 0
 -669 -248 -823 -182 -1075 -136 c 0
 -1087 -134 -1098 -123 -1098 -110 c 0
 -1098 -109 -1098 -107 -1098 -106 c 0
 -1068 153 -1056 418 -1056 641 c 0
 -1056 864 -1068 1131 -1098 1390 c 0
 -1098 1391 -1098 1391 -1098 1392 c 0
 -1098 1405 -1087 1417 -1075 1419 c 0
 -823 1465 -669 1531 -532 1591 c 0
 -372 1661 -214 1719 0 1719 c 0
 214 1719 372 1661 532 1591 c 0
 669 1531 823 1465 1075 1419 c 0
 1087 1417 1098 1405 1098 1392 c 0
 1098 1391 1098 1391 1098 1390 c 0
 1068 1131 1056 864 1056 641 c 0
0 1594 m 0
 -189 1594 -328 1544 -475 1479 c 0
 -598 1425 -743 1363 -969 1320 c 1
 -943 1084 -933 843 -933 641 c 0
 -933 439 -943 199 -969 -37 c 1
 -743 -80 -598 -142 -475 -196 c 0
 -328 -261 -189 -311 0 -311 c 0
 189 -311 328 -261 475 -196 c 0
 598 -142 743 -80 969 -37 c 1
 943 199 933 439 933 641 c 0
 933 843 943 1084 969 1320 c 1
 743 1363 598 1425 475 1479 c 0
 328 1544 189 1594 0 1594 c 0
EndSplineSet
EndChar

StartChar: uni06DE
Encoding: 1758 1758 695
Width: 2663
Flags: HW
LayerCount: 2
Fore
SplineSet
1331 1485 m 0
 1371 1485 1404 1451 1404 1411 c 0
 1404 1371 1371 1337 1331 1337 c 0
 1291 1337 1257 1371 1257 1411 c 0
 1257 1451 1291 1485 1331 1485 c 0
1331 -117 m 0
 1371 -117 1405 -151 1405 -191 c 0
 1405 -231 1371 -265 1331 -265 c 0
 1291 -265 1258 -231 1258 -191 c 0
 1258 -151 1291 -117 1331 -117 c 0
530 683 m 0
 570 683 604 650 604 610 c 0
 604 570 570 536 530 536 c 0
 490 536 456 570 456 610 c 0
 456 650 490 683 530 683 c 0
2132 684 m 0
 2172 684 2206 650 2206 610 c 0
 2206 570 2172 537 2132 537 c 0
 2092 537 2058 570 2058 610 c 0
 2058 650 2092 684 2132 684 c 0
790 1224 m 0
 829 1224 864 1189 864 1150 c 0
 864 1111 829 1077 790 1077 c 0
 751 1077 717 1111 717 1150 c 0
 717 1189 751 1224 790 1224 c 0
1872 143 m 0
 1911 143 1945 109 1945 70 c 0
 1945 31 1911 -4 1872 -4 c 0
 1833 -4 1798 31 1798 70 c 0
 1798 109 1833 143 1872 143 c 0
791 143 m 0
 830 143 864 108 864 69 c 0
 864 30 830 -4 791 -4 c 0
 752 -4 717 30 717 69 c 0
 717 108 752 143 791 143 c 0
1871 1224 m 0
 1910 1224 1945 1190 1945 1151 c 0
 1945 1112 1910 1077 1871 1077 c 0
 1832 1077 1798 1112 1798 1151 c 0
 1798 1190 1832 1224 1871 1224 c 0
1332 1670 m 1
 1021 1360 l 1
 581 1360 l 1
 581 921 l 1
 271 610 l 1
 581 299 l 1
 581 -140 l 1
 1021 -140 l 1
 1332 -450 l 1
 1642 -140 l 1
 2081 -140 l 1
 2081 299 l 1
 2392 610 l 1
 2081 921 l 1
 2081 1360 l 1
 1642 1360 l 1
 1332 1670 l 1
1331 1826 m 1
 1688 1470 l 1
 2191 1470 l 1
 2191 967 l 1
 2548 610 l 1
 2191 253 l 1
 2191 -250 l 1
 1688 -250 l 1
 1331 -606 l 1
 975 -250 l 1
 471 -250 l 1
 471 254 l 1
 115 610 l 1
 471 966 l 1
 471 1470 l 1
 975 1470 l 1
 1331 1826 l 1
EndSplineSet
Refer: 333 57390 N 1 0 0 1 864 84 2
EndChar

StartChar: uni06DF
Encoding: 1759 1759 696
Width: 0
Flags: HW
LayerCount: 2
Fore
SplineSet
-82 1464 m 0
 -82 1509 -45 1545 0 1545 c 0
 45 1545 82 1509 82 1464 c 0
 82 1419 45 1382 0 1382 c 0
 -45 1382 -82 1419 -82 1464 c 0
EndSplineSet
EndChar

StartChar: uni06E0
Encoding: 1760 1760 697
Width: 0
Flags: HW
LayerCount: 2
Fore
SplineSet
-82 1382 m 1
 -82 1545 l 1
 82 1545 l 1
 82 1382 l 1
 -82 1382 l 1
EndSplineSet
EndChar

StartChar: uni06E9
Encoding: 1769 1769 706
Width: 1236
Flags: HW
LayerCount: 2
Fore
SplineSet
338 74 m 1
 338 680 l 1
 96 956 l 1
 618 1434 l 1
 1140 956 l 1
 898 680 l 1
 898 74 l 1
 1072 74 l 1
 1072 0 l 1
 164 0 l 1
 164 74 l 1
 338 74 l 1
812 716 m 1
 1025 947 l 1
 618 1316 l 1
 211 947 l 1
 424 716 l 1
 424 74 l 1
 812 74 l 1
 812 716 l 1
658 914 m 1
 658 200 l 1
 578 200 l 1
 578 914 l 1
 658 914 l 1
EndSplineSet
EndChar

StartChar: arrowleft
Encoding: 8592 8592 795
Width: 1524
VWidth: 2630
Flags: HW
LayerCount: 2
Fore
SplineSet
1374 494 m 1
 489 494 l 1
 424 510 l 1
 732 202 l 1
 624 94 l 1
 150 569 l 1
 624 1044 l 1
 732 936 l 1
 424 628 l 1
 489 644 l 1
 1374 644 l 1
 1374 494 l 1
EndSplineSet
EndChar

StartChar: arrowup
Encoding: 8593 8593 796
Width: 1250
VWidth: 2633
Flags: HW
LayerCount: 2
Fore
SplineSet
550 -62 m 1
 550 824 l 1
 566 889 l 1
 258 580 l 1
 150 688 l 1
 625 1163 l 1
 1100 688 l 1
 992 580 l 1
 684 889 l 1
 700 824 l 1
 700 -62 l 1
 550 -62 l 1
EndSplineSet
EndChar

StartChar: arrowright
Encoding: 8594 8594 797
Width: 1524
VWidth: 2630
Flags: HW
LayerCount: 2
Fore
SplineSet
150 644 m 1
 1035 644 l 1
 1100 628 l 1
 792 936 l 1
 900 1044 l 1
 1374 569 l 1
 900 94 l 1
 792 202 l 1
 1100 510 l 1
 1035 494 l 1
 150 494 l 1
 150 644 l 1
EndSplineSet
EndChar

StartChar: arrowdown
Encoding: 8595 8595 798
Width: 1250
VWidth: 2633
Flags: HW
LayerCount: 2
Fore
SplineSet
700 1188 m 1
 700 302 l 1
 684 237 l 1
 992 546 l 1
 1100 438 l 1
 625 -37 l 1
 150 438 l 1
 258 546 l 1
 566 237 l 1
 550 302 l 1
 550 1188 l 1
 700 1188 l 1
EndSplineSet
EndChar

StartChar: arrowboth
Encoding: 8596 8596 799
Width: 1986
VWidth: 2630
Flags: HW
LayerCount: 2
Fore
SplineSet
624 1044 m 1
 732 936 l 1
 424 628 l 1
 489 644 l 1
 1497 644 l 1
 1562 628 l 1
 1254 936 l 1
 1362 1044 l 1
 1836 569 l 1
 1362 94 l 1
 1254 202 l 1
 1562 510 l 1
 1497 494 l 1
 489 494 l 1
 424 510 l 1
 732 202 l 1
 624 94 l 1
 150 569 l 1
 624 1044 l 1
EndSplineSet
EndChar

StartChar: arrowupdn
Encoding: 8597 8597 800
Width: 1250
VWidth: 2630
Flags: HW
LayerCount: 2
Fore
SplineSet
625 1413 m 1
 1100 938 l 1
 992 830 l 1
 684 1138 l 1
 700 1073 l 1
 700 65 l 1
 684 -0 l 1
 992 308 l 1
 1100 200 l 1
 625 -275 l 1
 150 200 l 1
 258 308 l 1
 566 -0 l 1
 550 65 l 1
 550 1073 l 1
 566 1138 l 1
 258 830 l 1
 150 938 l 1
 625 1413 l 1
EndSplineSet
EndChar

StartChar: uni2196
Encoding: 8598 8598 801
Width: 1288
VWidth: 2640
Flags: HW
LayerCount: 2
Fore
SplineSet
1032 52 m 1
 337 748 l 1
 301 805 l 1
 301 370 l 1
 150 370 l 1
 150 1040 l 1
 820 1040 l 1
 820 888 l 1
 384 888 l 1
 442 853 l 1
 1138 158 l 1
 1032 52 l 1
EndSplineSet
EndChar

StartChar: uni2197
Encoding: 8599 8599 802
Width: 1288
VWidth: 2640
Flags: HW
LayerCount: 2
Fore
SplineSet
150 158 m 1
 846 853 l 1
 904 888 l 1
 468 888 l 1
 468 1040 l 1
 1138 1040 l 1
 1138 370 l 1
 987 370 l 1
 987 805 l 1
 951 748 l 1
 256 52 l 1
 150 158 l 1
EndSplineSet
EndChar

StartChar: uni2198
Encoding: 8600 8600 803
Width: 1288
VWidth: 2640
Flags: HW
LayerCount: 2
Fore
SplineSet
256 1040 m 1
 951 344 l 1
 987 286 l 1
 987 722 l 1
 1138 722 l 1
 1138 52 l 1
 468 52 l 1
 468 203 l 1
 904 203 l 1
 846 239 l 1
 150 934 l 1
 256 1040 l 1
EndSplineSet
EndChar

StartChar: uni2199
Encoding: 8601 8601 804
Width: 1288
VWidth: 2640
Flags: HW
LayerCount: 2
Fore
SplineSet
1138 934 m 1
 442 239 l 1
 384 203 l 1
 820 203 l 1
 820 52 l 1
 150 52 l 1
 150 722 l 1
 301 722 l 1
 301 286 l 1
 337 344 l 1
 1032 1040 l 1
 1138 934 l 1
EndSplineSet
EndChar

StartChar: uni0664.urdu
Encoding: 1114160 -1 872
Width: 1221
Flags: HW
LayerCount: 2
Fore
SplineSet
1158 1214 m 1
 1004 1125 884 1031 782 913 c 1
 642 914 l 1
 490 1118 l 2
 470 1144 447 1155 425 1155 c 0
 393 1155 365 1130 365 1096 c 0
 365 1082 370 1066 381 1050 c 2
 684 550 l 2
 741 455 772 347 772 238 c 0
 772 136 747 33 698 -64 c 1
 415 57 l 1
 448 115 467 171 467 228 c 0
 467 283 450 338 419 392 c 2
 125 901 l 2
 83 971 55 1044 55 1119 c 0
 55 1316 217 1472 408 1472 c 0
 526 1472 624 1415 692 1334 c 2
 726 1290 l 1
 806 1359 914 1428 1004 1480 c 1
 1158 1214 l 1
EndSplineSet
Substitution2: "'tnum' Tabular Numbers lookup 22 subtable" uni0664.urdu.tnum
EndChar

StartChar: uni0667.urdu
Encoding: 1114161 -1 873
Width: 1235
Flags: HW
LayerCount: 2
Fore
SplineSet
1062 378 m 1
 1172 92 l 1
 999 25 814 -10 626 -10 c 0
 467 -10 309 19 148 70 c 1
 63 298 l 1
 247 618 372 1060 429 1482 c 1
 734 1441 l 1
 682 1054 577 654 425 321 c 1
 497 306 565 298 632 298 c 0
 786 298 924 324 1062 378 c 1
EndSplineSet
Substitution2: "'tnum' Tabular Numbers lookup 22 subtable" uni0667.urdu.tnum
EndChar

StartChar: uniE06F
Encoding: 57455 57455 1208
Width: 0
Flags: HW
LayerCount: 2
Fore
SplineSet
75 1357 m 1
 101 1345 137 1335 169 1335 c 0
 229 1335 290 1358 290 1410 c 0
 290 1442 267 1462 225 1462 c 0
 174 1462 120 1421 75 1357 c 1
-60 1409 m 1
 42 1541 135 1628 239 1628 c 0
 350 1628 434 1566 434 1401 c 0
 434 1258 307 1137 159 1137 c 0
 82 1137 17 1159 -33 1182 c 0
 -70 1199 -101 1211 -126 1211 c 0
 -183 1211 -213 1171 -266 1095 c 1
 -402 1176 l 1
 -331 1319 -229 1413 -104 1413 c 0
 -88 1413 -74 1411 -60 1409 c 1
EndSplineSet
Colour: ffff00
EndChar

StartChar: uniE070
Encoding: 57456 57456 1209
Width: 0
Flags: HW
LayerCount: 2
Fore
SplineSet
230 1363 m 257
 230 1200 146 1115 0 1115 c 256
 -148 1115 -230 1201 -230 1363 c 257
 -105 1363 l 261
 -105 1276 -74 1240 0 1240 c 256
 72 1240 105 1280 105 1363 c 257
 230 1363 l 257
EndSplineSet
Colour: ffff00
EndChar

StartChar: uniE071
Encoding: 57457 57457 1210
Width: 0
Flags: HW
LayerCount: 2
Fore
SplineSet
230 1136 m 281
 -230 1136 l 281
 -230 1261 l 285
 230 1261 l 261
 230 1136 l 281
EndSplineSet
Colour: ffff00
EndChar

StartChar: uniE072
Encoding: 57458 57458 1211
Width: 0
Flags: HW
LayerCount: 2
Fore
SplineSet
-69 1519 m 0
 -99 1519 -114 1492 -114 1457 c 0
 -114 1424 -106 1392 -79 1362 c 1
 -39 1376 10 1401 10 1447 c 0
 10 1485 -32 1519 -69 1519 c 0
-85 1648 m 0
 25 1648 134 1551 134 1444 c 0
 134 1363 75 1311 21 1287 c 1
 57 1269 175 1216 242 1197 c 1
 208 1076 l 1
 18 1127 -243 1254 -243 1465 c 0
 -243 1570 -180 1648 -85 1648 c 0
EndSplineSet
Colour: ffff00
EndChar

StartChar: uniE073
Encoding: 57459 57459 1212
Width: 0
Flags: HW
LayerCount: 2
Fore
SplineSet
-180 1095 m 1
 -232 1208 l 1
 180 1404 l 1
 232 1291 l 1
 -180 1095 l 1
-195 1420 m 257
 -111 1504 l 257
 -27 1420 l 257
 -111 1337 l 257
 -195 1420 l 257
1 1063 m 257
 85 1147 l 257
 169 1063 l 257
 85 980 l 257
 1 1063 l 257
EndSplineSet
Colour: ffff00
EndChar

StartChar: uniE09E
Encoding: 57502 57502 1213
Width: 1018
Flags: HW
LayerCount: 2
Fore
SplineSet
800 217 m 0
 800 271 779 336 762 382 c 1
 888 420 l 1
 910 357 930 288 930 218 c 0
 930 -7 745 -42 509 -42 c 0
 273 -42 88 -7 88 218 c 0
 88 288 107 358 129 420 c 1
 253 383 l 1
 239 335 218 263 218 217 c 0
 218 98 347 88 509 88 c 0
 671 88 800 98 800 217 c 0
320 413 m 1
 412 505 l 1
 503 413 l 1
 412 321 l 1
 320 413 l 1
504 413 m 1
 596 505 l 1
 687 413 l 1
 596 321 l 1
 504 413 l 1
EndSplineSet
Colour: ffff00
EndChar

StartChar: uniE075
Encoding: 57461 57461 1214
Width: 2194
Flags: HW
LayerCount: 2
Fore
SplineSet
1174 1480 m 1
 1334 1220 l 1
 1026 1048 862 939 772 844 c 1
 1452 844 l 2
 1820 844 2131 801 2131 503 c 0
 2131 158 1746 0 1338 0 c 2
 63 0 l 1
 63 308 l 1
 1422 308 l 2
 1664 308 1808 378 1808 454 c 0
 1808 508 1738 536 1542 536 c 2
 482 536 l 1
 370 659 l 1
 404 957 574 1135 1174 1480 c 1
EndSplineSet
EndChar

StartChar: uniE076
Encoding: 57462 57462 1215
Width: 2005
Flags: HW
LayerCount: 2
Fore
SplineSet
822 462 m 1
 606 330 l 1
 502 300 281 228 152 171 c 1
 64 409 l 1
 249 479 423 545 576 545 c 0
 666 545 750 522 822 462 c 1
EndSplineSet
Refer: 349 57406 N 1 0 0 1 412 0 2
EndChar

StartChar: uniE077
Encoding: 57463 57463 1216
Width: 1752
Flags: HW
LayerCount: 2
Fore
SplineSet
1287 802 m 1
 1245 969 1221 1044 1173 1044 c 0
 1139 1044 1118 1003 1102 970 c 0
 992 744 849 568 587 506 c 0
 425 468 368 427 368 371 c 0
 368 323 416 308 574 308 c 2
 1689 308 l 1
 1689 0 l 1
 497 0 l 2
 256 0 63 101 63 346 c 0
 63 633 302 747 526 807 c 0
 681 849 758 946 830 1090 c 0
 894 1220 984 1378 1175 1378 c 0
 1447 1378 1504 1138 1560 869 c 1
 1287 802 l 1
EndSplineSet
EndChar

StartChar: uniE078
Encoding: 57464 57464 1217
Width: 1500
Flags: HW
LayerCount: 2
Fore
SplineSet
1071 1219 m 1
 1083 1217 1100 1216 1116 1216 c 0
 1184 1216 1272 1218 1272 1281 c 0
 1272 1314 1255 1330 1221 1330 c 0
 1163 1330 1112 1270 1071 1219 c 1
974 1255 m 1
 1033 1359 1118 1446 1228 1446 c 0
 1326 1446 1400 1383 1400 1281 c 0
 1400 1129 1264 1090 1131 1090 c 0
 1025 1090 952 1110 900 1157 c 1
 865 1110 815 1090 744 1090 c 0
 680 1090 627 1107 591 1147 c 1
 559 1107 513 1090 453 1090 c 2
 421 1090 l 2
 340 1090 230 1066 230 997 c 0
 230 977 252 974 283 974 c 2
 892 974 l 1
 892 848 l 1
 277 848 l 2
 181 848 100 888 100 988 c 0
 100 1144 265 1216 421 1216 c 2
 453 1216 l 2
 523 1216 526 1242 526 1311 c 2
 526 1632 l 1
 654 1632 l 1
 654 1314 l 2
 654 1235 655 1216 744 1216 c 0
 831 1216 834 1238 834 1323 c 2
 834 1390 l 1
 962 1390 l 1
 962 1328 l 2
 962 1278 966 1266 974 1255 c 1
EndSplineSet
Colour: ffff00
EndChar

StartChar: uniE079
Encoding: 57465 57465 1218
Width: 1186
Flags: HW
LayerCount: 2
Fore
SplineSet
854 1407 m 0
 854 1380 871 1371 903 1371 c 0
 927 1371 945 1374 965 1379 c 1
 960 1424 948 1499 904 1499 c 0
 870 1499 854 1449 854 1407 c 0
974 1271 m 1
 944 1264 915 1261 888 1261 c 0
 800 1261 736 1300 736 1396 c 0
 736 1510 784 1620 904 1620 c 0
 1055 1620 1098 1467 1098 1317 c 0
 1098 1126 968 1090 791 1090 c 2
 744 1090 l 2
 680 1090 627 1107 591 1147 c 1
 559 1107 513 1090 453 1090 c 2
 421 1090 l 2
 340 1090 230 1066 230 997 c 0
 230 977 252 974 283 974 c 2
 892 974 l 1
 892 848 l 1
 277 848 l 2
 181 848 100 888 100 988 c 0
 100 1144 265 1216 421 1216 c 2
 453 1216 l 2
 523 1216 526 1242 526 1311 c 2
 526 1632 l 1
 654 1632 l 1
 654 1314 l 2
 654 1235 655 1216 744 1216 c 2
 827 1216 l 2
 926 1216 956 1227 974 1271 c 1
1035 1731 m 1
 966 1662 l 1
 898 1731 l 1
 966 1799 l 1
 1035 1731 l 1
906 1731 m 1
 837 1662 l 1
 768 1731 l 1
 837 1799 l 1
 906 1731 l 1
EndSplineSet
Colour: ffff00
EndChar

StartChar: uniE07A
Encoding: 57466 57466 1219
Width: 0
Flags: HW
LayerCount: 2
Fore
SplineSet
-160 1477 m 1
 160 1477 l 1
 160 1331 l 1
 -160 1331 l 1
 -160 1477 l 1
EndSplineSet
Colour: ffff00
EndChar

StartChar: uniE07B
Encoding: 57467 57467 1220
Width: 0
Flags: HW
LayerCount: 2
Fore
SplineSet
-157 1307 m 1
 -252 1659 l 1
 -114 1699 l 1
 -21 1341 l 1
 -157 1307 l 1
246 1693 m 1
 246 1444 l 2
 246 1160 160 1081 -152 1081 c 2
 -248 1081 l 1
 -248 1225 l 1
 -138 1225 l 2
 69 1225 101 1253 101 1430 c 2
 101 1693 l 1
 246 1693 l 1
EndSplineSet
Colour: ffff00
EndChar

StartChar: uniE07C
Encoding: 57468 57468 1221
Width: 0
Flags: HW
LayerCount: 2
Fore
SplineSet
40 1202 m 1
 110 1132 l 1
 40 1062 l 1
 -30 1132 l 1
 40 1202 l 1
73 1383 m 1
 -3 1413 l 2
 -37 1427 -61 1433 -80 1433 c 0
 -119 1433 -140 1406 -151 1343 c 1
 -252 1361 l 1
 -233 1497 -181 1561 -92 1561 c 0
 -56 1561 -20 1551 65 1516 c 2
 258 1438 l 1
 258 1319 l 1
 2 1267 -134 1189 -134 1095 c 0
 -134 1032 -72 996 37 996 c 0
 107 996 187 1011 244 1034 c 1
 291 913 l 1
 219 877 129 857 39 857 c 0
 -146 857 -262 942 -262 1078 c 0
 -262 1212 -150 1313 73 1383 c 1
EndSplineSet
Colour: ffff00
EndChar

StartChar: uniE07D
Encoding: 57469 57469 1222
Width: 0
Flags: HW
LayerCount: 2
Fore
SplineSet
-106 1277 m 1
 -19 1189 l 1
 -106 1102 l 1
 -193 1189 l 1
 -106 1277 l 1
106 1277 m 1
 193 1189 l 1
 106 1102 l 1
 18 1189 l 1
 106 1277 l 1
-0 1452 m 1
 88 1365 l 1
 -0 1277 l 1
 -87 1365 l 1
 -0 1452 l 1
EndSplineSet
Colour: ffff00
EndChar

StartChar: uniE07E
Encoding: 57470 57470 1223
Width: 0
Flags: HW
LayerCount: 2
Fore
SplineSet
238 1149 m 1
 226 1103 183 1077 137 1077 c 0
 111 1077 90 1086 76 1099 c 1
 61 937 -60 862 -219 862 c 0
 -423 862 -518 960 -518 1132 c 0
 -518 1204 -502 1291 -473 1375 c 1
 -355 1340 l 1
 -374 1277 -392 1205 -392 1146 c 0
 -392 1048 -346 991 -220 991 c 0
 -92 991 -49 1047 -49 1133 c 0
 -49 1194 -74 1274 -98 1342 c 1
 29 1392 l 1
 63 1275 l 2
 76 1224 92 1206 126 1206 c 0
 157 1206 174 1225 178 1266 c 2
 185 1361 l 1
 298 1353 l 1
 292 1268 l 2
 292 1265 292 1262 292 1259 c 0
 292 1223 309 1206 342 1206 c 0
 375 1206 390 1224 390 1263 c 0
 390 1285 385 1325 375 1382 c 1
 501 1412 l 1
 512 1360 518 1309 518 1265 c 0
 518 1139 468 1077 365 1077 c 0
 299 1077 256 1102 238 1149 c 1
EndSplineSet
Colour: ffff00
EndChar

StartChar: uniE07F
Encoding: 57471 57471 1224
Width: 0
Flags: HW
LayerCount: 2
Fore
SplineSet
-118 1413 m 0
 -118 1478 -65 1530 0 1530 c 0
 65 1530 118 1478 118 1413 c 0
 118 1348 65 1295 0 1295 c 0
 -65 1295 -118 1348 -118 1413 c 0
EndSplineSet
Colour: ffff00
EndChar

StartChar: uniE080
Encoding: 57472 57472 1225
Width: 0
Flags: HW
LayerCount: 2
Fore
SplineSet
-122 1291 m 1
 -122 1534 l 1
 122 1534 l 1
 122 1291 l 1
 -122 1291 l 1
EndSplineSet
Colour: ffff00
EndChar

StartChar: uniE081
Encoding: 57473 57473 1226
Width: 0
Flags: HW
LayerCount: 2
Fore
SplineSet
-75 1484 m 0
 -46 1484 -13 1477 25 1462 c 2
 243 1375 l 1
 244 1290 l 1
 132 1168 -14 1100 -244 1095 c 1
 -244 1223 l 1
 -109 1223 -12 1249 68 1307 c 1
 -25 1342 l 2
 -43 1349 -57 1351 -69 1351 c 0
 -113 1351 -125 1313 -132 1276 c 1
 -234 1296 l 1
 -222 1398 -176 1484 -75 1484 c 0
EndSplineSet
Colour: ffff00
EndChar

StartChar: uniE082
Encoding: 57474 57474 1227
Width: 0
Flags: HW
LayerCount: 2
Fore
SplineSet
131 1264 m 0
 131 1303 118 1350 75 1350 c 0
 34 1350 13 1293 4 1247 c 1
 31 1239 75 1228 101 1228 c 0
 123 1228 131 1239 131 1264 c 0
-86 1130 m 0
 -108 1130 -117 1118 -117 1095 c 2
 -117 802 l 1
 -247 802 l 1
 -247 1110 l 2
 -247 1205 -193 1272 -109 1268 c 1
 -88 1392 -19 1477 79 1477 c 0
 184 1477 248 1388 248 1260 c 0
 248 1155 201 1098 113 1098 c 0
 80 1098 35 1106 -22 1119 c 0
 -54 1127 -73 1130 -86 1130 c 0
EndSplineSet
Colour: ffff00
EndChar

StartChar: uniE083
Encoding: 57475 57475 1228
Width: 0
Flags: HW
LayerCount: 2
Fore
SplineSet
57 1422 m 0
 80 1422 108 1444 129 1475 c 1
 220 1418 l 1
 163 1322 126 1290 63 1290 c 0
 29 1290 4 1303 -19 1315 c 0
 -34 1323 -44 1326 -53 1326 c 0
 -77 1326 -103 1304 -123 1272 c 1
 -220 1328 l 1
 -167 1415 -123 1460 -58 1460 c 0
 -21 1460 4 1446 28 1432 c 0
 40 1425 49 1422 57 1422 c 0
EndSplineSet
Colour: ffff00
EndChar

StartChar: uniE084
Encoding: 57476 57476 1229
Width: 0
Flags: HW
LayerCount: 2
Fore
SplineSet
43 1098 m 1
 24 1096 5 1094 -16 1094 c 0
 -111 1094 -167 1149 -167 1251 c 0
 -167 1352 -115 1471 0 1471 c 0
 144 1471 181 1325 181 1161 c 0
 181 1008 81 912 -123 847 c 1
 -178 964 l 1
 -63 999 17 1044 43 1098 c 1
-54 1263 m 0
 -54 1235 -38 1223 1 1223 c 0
 23 1223 45 1226 60 1229 c 1
 53 1301 36 1346 -3 1346 c 0
 -38 1346 -54 1306 -54 1263 c 0
EndSplineSet
Colour: ffff00
EndChar

StartChar: uniE085
Encoding: 57477 57477 1230
Width: 1022
Flags: HW
LayerCount: 2
Fore
SplineSet
892 1205 m 1
 892 1076 l 1
 261 1076 l 2
 160 1076 79 1118 79 1221 c 0
 79 1342 179 1390 273 1415 c 0
 338 1432 371 1474 401 1534 c 0
 428 1588 466 1655 546 1655 c 0
 660 1655 684 1554 708 1441 c 1
 593 1413 l 1
 575 1483 565 1515 545 1515 c 0
 531 1515 522 1497 515 1483 c 0
 469 1388 409 1315 299 1289 c 0
 231 1273 207 1255 207 1232 c 0
 207 1212 227 1205 293 1205 c 2
 892 1205 l 1
EndSplineSet
Colour: ffff00
EndChar

StartChar: uniE086
Encoding: 57478 57478 1231
Width: 0
Flags: HW
LayerCount: 2
Fore
SplineSet
127 1449 m 1
 249 1508 l 1
 288 1418 314 1352 314 1246 c 0
 314 1055 176 959 0 959 c 0
 -211 959 -314 1061 -314 1239 c 0
 -314 1311 -297 1396 -268 1483 c 1
 -150 1445 l 1
 -167 1385 -186 1312 -186 1251 c 0
 -186 1151 -136 1088 0 1088 c 0
 131 1088 184 1150 184 1241 c 0
 184 1303 160 1376 127 1449 c 1
0 1424 m 1
 77 1347 l 1
 0 1270 l 1
 -77 1347 l 1
 0 1424 l 1
EndSplineSet
Colour: ffff00
EndChar

StartChar: uniE087
Encoding: 57479 57479 1232
Width: 0
Flags: HW
LayerCount: 2
Fore
SplineSet
-70 1346 m 1
 0 1277 l 1
 70 1347 l 1
 0 1415 l 1
 -70 1346 l 1
-216 1346 m 1
 0 1562 l 1
 216 1347 l 1
 0 1131 l 1
 -216 1346 l 1
EndSplineSet
Colour: ffff00
EndChar

StartChar: uniE088
Encoding: 57480 57480 1233
Width: 596
Flags: HW
LayerCount: 2
Fore
SplineSet
123 378 m 1
 283 378 l 1
 283 0 l 1
 123 0 l 1
 123 378 l 1
398 378 m 1
 558 378 l 1
 558 0 l 1
 398 0 l 1
 398 378 l 1
EndSplineSet
Colour: ffff00
EndChar

StartChar: uniE091
Encoding: 57489 57489 1234
Width: 2080
Flags: HW
LayerCount: 2
Fore
SplineSet
0 308 m 1
 229 308 296 495 365 709 c 1
 634 628 l 1
 581 484 551 355 551 230 c 0
 551 107 581 -11 644 -105 c 1
 681 37 744 145 824 213 c 0
 887 273 964 308 1060 308 c 2
 2080 308 l 1
 2080 0 l 1
 1060 0 l 2
 1002 0 965 -20 933 -59 c 0
 865 -126 826 -266 799 -470 c 1
 616 -563 l 1
 392 -429 296 -213 297 119 c 1
 222 38 119 0 0 0 c 1
 -28 0 -42 32 -42 154 c 0
 -42 274 -27 308 0 308 c 1
EndSplineSet
EndChar

StartChar: uniE092
Encoding: 57490 57490 1235
Width: 2080
Flags: HW
LayerCount: 2
Fore
SplineSet
573 970 m 0
 783 970 920 835 920 631 c 0
 920 511 870 393 786 308 c 1
 2080 308 l 1
 2080 0 l 1
 824 0 l 1
 902 -70 946 -166 946 -269 c 0
 946 -456 811 -577 599 -577 c 0
 280 -577 105 -302 105 201 c 0
 105 694 272 970 573 970 c 0
578 -270 m 0
 636 -270 666 -243 666 -190 c 0
 666 -92 565 0 458 0 c 2
 0 0 l 2
 -30 0 -42 44 -42 153 c 0
 -42 263 -30 308 0 308 c 2
 452 308 l 2
 553 308 652 428 652 550 c 0
 652 621 616 663 561 663 c 0
 459 663 393 521 393 308 c 2
 393 22 l 2
 394 -162 463 -270 578 -270 c 0
EndSplineSet
EndChar

StartChar: uniE093
Encoding: 57491 57491 1236
Width: 1497
Flags: HW
LayerCount: 2
Fore
SplineSet
497 0 m 2
 256 0 63 101 63 346 c 0
 63 682 386 912 857 912 c 2
 1123 912 l 1
 1123 605 l 1
 856 605 l 2
 533 605 374 512 374 386 c 0
 374 327 421 308 494 308 c 2
 1434 308 l 1
 1434 0 l 1
 497 0 l 2
EndSplineSet
EndChar

StartChar: uniE094
Encoding: 57492 57492 1237
Width: 2323
Flags: HW
LayerCount: 2
Fore
SplineSet
497 -605 m 2
 256 -605 63 -504 63 -259 c 0
 63 77 386 308 857 308 c 2
 2323 308 l 1
 2323 0 l 1
 856 0 l 2
 533 0 374 -93 374 -219 c 0
 374 -278 421 -298 494 -298 c 2
 869 -298 l 1
 869 -605 l 1
 497 -605 l 2
EndSplineSet
EndChar

StartChar: uniE095
Encoding: 57493 57493 1238
Width: 1606
Flags: HW
LayerCount: 2
Fore
SplineSet
127 893 m 1
 416 814 l 1
 385 682 364 577 364 500 c 0
 364 368 425 308 606 308 c 2
 1607 308 l 0
 1635 308 1649 277 1649 154 c 0
 1649 31 1635 0 1607 0 c 0
 606 0 l 2
 209 0 63 182 63 463 c 0
 63 587 88 732 127 893 c 1
EndSplineSet
EndChar

StartChar: uniE096
Encoding: 57494 57494 1239
Width: 762
Flags: HW
LayerCount: 2
Fore
SplineSet
251 1010 m 1
 409 1078 461 1098 611 1143 c 1
 662 954 l 1
 525 910 473 890 332 829 c 1
 251 1010 l 1
EndSplineSet
Colour: ffff00
EndChar

StartChar: uniE097
Encoding: 57495 57495 1240
Width: 2400
Flags: HW
LayerCount: 2
Fore
SplineSet
871 153 m 1
 879 318 821 526 765 669 c 1
 1068 783 l 1
 1136 566 l 2
 1199 364 1224 308 1400 308 c 1
 2400 308 l 1
 2400 0 l 1
 1400 0 l 1
 1304 0 1223 25 1168 73 c 1
 1163 18 1154 -32 1137 -80 c 1
 1218 -145 1296 -212 1372 -280 c 1
 1190 -466 l 1
 1128 -407 1064 -349 1000 -295 c 1
 888 -437 709 -546 504 -546 c 0
 219 -546 63 -387 63 -172 c 0
 63 94 287 246 527 246 c 0
 647 246 767 214 871 153 c 1
788 -86 m 1
 703 -14 603 18 506 18 c 0
 406 18 318 -27 318 -121 c 0
 318 -205 397 -237 489 -237 c 0
 624 -237 732 -167 788 -86 c 1
EndSplineSet
EndChar

StartChar: uniE098
Encoding: 57496 57496 1241
Width: 1987
Flags: HW
LayerCount: 2
Fore
SplineSet
455 598 m 0
 371 598 332 506 332 402 c 0
 332 334 371 308 463 308 c 2
 606 308 l 1
 590 481 550 598 455 598 c 0
461 895 m 0
 746 895 874 627 890 308 c 1
 1988 308 l 1
 1988 0 l 1
 882 0 l 1
 866 -199 817 -411 713 -628 c 1
 424 -522 l 1
 512 -308 549 -174 565 0 c 1
 423 0 l 2
 196 0 63 130 63 373 c 0
 63 613 187 895 461 895 c 0
EndSplineSet
EndChar

StartChar: uniE099
Encoding: 57497 57497 1242
Width: 2067
Flags: HW
LayerCount: 2
Fore
SplineSet
123 1453 m 1
 431 1453 l 1
 431 500 l 2
 431 359 477 308 646 308 c 2
 2068 308 l 1
 2068 0 l 1
 646 0 l 2
 317 0 123 167 123 494 c 2
 123 1453 l 1
EndSplineSet
EndChar

StartChar: uniE09A
Encoding: 57498 57498 1243
Width: 3387
Flags: HW
LayerCount: 2
Fore
SplineSet
1175 1480 m 1
 1334 1220 l 1
 1014 1040 862 935 772 844 c 1
 1453 844 l 2
 1805 844 2132 806 2132 503 c 0
 2132 347 2172 308 2386 308 c 2
 3388 308 l 1
 3388 0 l 1
 2386 0 l 2
 2176 0 2043 67 1977 180 c 1
 1838 64 1598 0 1339 0 c 2
 63 0 l 25
 63 308 l 25
 1423 308 l 2
 1677 308 1809 382 1809 454 c 0
 1809 512 1722 536 1543 536 c 2
 483 536 l 1
 371 659 l 1
 405 955 569 1132 1175 1480 c 1
EndSplineSet
EndChar

StartChar: uniE09B
Encoding: 57499 57499 1244
Width: 1959
Flags: HW
LayerCount: 2
Fore
SplineSet
939 1480 m 1
 1099 1220 l 1
 779 1040 626 935 536 844 c 1
 1218 844 l 2
 1570 844 1896 806 1896 503 c 0
 1896 164 1524 0 1103 0 c 2
 0 0 l 2
 -28 0 -42 31 -42 154 c 0
 -42 277 -28 308 0 308 c 2
 1187 308 l 2
 1441 308 1574 382 1574 454 c 0
 1574 512 1486 536 1307 536 c 2
 247 536 l 1
 135 659 l 1
 169 955 333 1132 939 1480 c 1
EndSplineSet
EndChar

StartChar: uniE09C
Encoding: 57500 57500 1245
Width: 3151
Flags: HW
LayerCount: 2
Fore
SplineSet
939 1480 m 1
 1099 1220 l 1
 779 1040 626 935 536 844 c 1
 1218 844 l 2
 1570 844 1896 806 1896 503 c 0
 1896 347 1936 308 2150 308 c 2
 3152 308 l 1
 3152 0 l 1
 2150 0 l 2
 1940 0 1807 67 1741 180 c 1
 1602 64 1362 0 1103 0 c 2
 0 0 l 2
 -28 0 -42 31 -42 154 c 0
 -42 277 -28 308 0 308 c 2
 1187 308 l 2
 1441 308 1574 382 1574 454 c 0
 1574 512 1486 536 1307 536 c 2
 247 536 l 1
 135 659 l 1
 169 955 333 1132 939 1480 c 1
EndSplineSet
EndChar

StartChar: uniE09D
Encoding: 57501 57501 1246
Width: 2878
Flags: HW
LayerCount: 2
Fore
SplineSet
830 562 m 1
 613 430 l 1
 509 400 288 327 159 270 c 1
 72 508 l 1
 257 578 431 644 584 644 c 0
 674 644 758 622 830 562 c 1
EndSplineSet
Refer: 354 57411 N 1 0 0 1 381 0 2
EndChar

StartChar: uniE089
Encoding: 57481 57481 1247
Width: 753
Flags: HW
LayerCount: 2
Fore
SplineSet
713 130 m 257
 713 0 l 257
 40 0 l 257
 40 130 l 257
 713 130 l 257
EndSplineSet
Colour: ffff00
EndChar

StartChar: uniE08A
Encoding: 57482 57482 1248
Width: 589
Flags: HW
LayerCount: 2
Fore
SplineSet
208 514 m 1
 258 390 l 2
 272 354 287 335 312 335 c 0
 336 335 354 349 359 402 c 2
 370 511 l 1
 498 503 l 1
 487 352 470 207 306 207 c 0
 303 207 302 207 296 208 c 1
 306 141 312 78 312 0 c 1
 182 0 l 1
 182 187 148 317 90 456 c 1
 208 514 l 1
EndSplineSet
Colour: ffff00
EndChar

StartChar: uniE08B
Encoding: 57483 57483 1249
Width: 701
Flags: HW
LayerCount: 2
Fore
SplineSet
211 514 m 1
 257 382 l 2
 269 348 278 341 295 341 c 0
 315 341 324 354 326 388 c 2
 333 493 l 1
 436 485 l 1
 431 441 426 394 426 371 c 0
 426 350 443 341 464 341 c 0
 486 341 500 355 500 376 c 0
 500 409 490 468 487 484 c 1
 615 506 l 1
 619 484 628 430 628 385 c 0
 628 287 570 214 469 214 c 0
 436 214 401 226 379 243 c 1
 358 226 331 216 299 215 c 1
 308 147 312 76 312 0 c 1
 182 0 l 1
 182 187 148 324 92 457 c 1
 211 514 l 1
EndSplineSet
Colour: ffff00
EndChar

StartChar: uniE08C
Encoding: 57484 57484 1250
Width: 602
Flags: HW
LayerCount: 2
Fore
SplineSet
241 532 m 0
 279 532 321 514 350 476 c 2
 357 467 l 1
 445 534 l 1
 525 427 l 1
 378 307 l 1
 330 307 l 1
 280 386 l 2
 273 397 264 401 254 401 c 0
 239 401 224 390 224 375 c 0
 224 370 226 364 229 359 c 2
 352 160 l 2
 373 128 383 88 383 47 c 0
 383 21 379 -5 370 -31 c 1
 252 17 l 1
 257 27 259 37 259 46 c 0
 259 63 252 79 242 96 c 2
 120 301 l 2
 103 330 95 358 95 385 c 0
 95 467 166 532 241 532 c 0
EndSplineSet
Colour: ffff00
EndChar

StartChar: uniE08D
Encoding: 57485 57485 1251
Width: 1297
Flags: HW
LayerCount: 2
Fore
SplineSet
871 153 m 1
 879 292 834 495 765 669 c 1
 1068 783 l 1
 1143 575 1187 365 1187 197 c 0
 1187 101 1169 7 1137 -80 c 1
 1211 -136 1287 -201 1372 -280 c 1
 1190 -466 l 1
 1128 -407 1066 -350 1000 -295 c 1
 883 -441 703 -546 499 -546 c 0
 239 -546 63 -404 63 -172 c 0
 63 76 268 246 523 246 c 0
 648 246 768 214 871 153 c 1
788 -86 m 1
 707 -19 609 18 508 18 c 0
 402 18 318 -29 318 -118 c 0
 318 -199 387 -237 498 -237 c 0
 622 -237 730 -168 788 -86 c 1
EndSplineSet
EndChar

StartChar: uniE08E
Encoding: 57486 57486 1252
Width: 2696
Flags: HW
LayerCount: 2
Fore
SplineSet
1175 388 m 1
 1257 432 1302 506 1302 597 c 0
 1302 671 1261 741 1176 741 c 0
 1089 741 1050 673 1050 597 c 0
 1050 508 1100 432 1175 388 c 1
1170 81 m 1
 1051 26 918 0 772 0 c 0
 671 0 580 14 503 38 c 0
 470 47 443 54 418 54 c 0
 384 54 373 35 373 4 c 0
 373 -18 379 -47 388 -81 c 0
 404 -137 426 -200 446 -255 c 1
 155 -361 l 1
 131 -297 108 -224 88 -150 c 0
 74 -92 63 -31 63 30 c 0
 63 204 180 364 366 364 c 0
 416 364 464 352 514 339 c 0
 576 323 659 304 757 304 c 0
 805 304 843 308 886 319 c 1
 801 384 742 478 742 612 c 0
 742 866 930 1049 1176 1049 c 0
 1417 1049 1610 868 1610 617 c 0
 1610 485 1552 386 1466 319 c 1
 1515 311 1570 308 1624 308 c 1
 2696 308 l 1
 2696 0 l 1
 1581 0 l 2
 1436 0 1286 29 1170 81 c 1
EndSplineSet
EndChar

StartChar: uniE08F
Encoding: 57487 57487 1253
Width: 1200
Flags: HW
LayerCount: 2
Fore
SplineSet
605 318 m 1
 589 489 547 598 455 598 c 0
 371 598 332 503 332 399 c 0
 332 331 371 306 463 306 c 0
 515 306 569 311 605 318 c 1
564 6 m 1
 529 1 474 -2 423 -2 c 0
 196 -2 63 127 63 370 c 0
 63 611 187 895 461 895 c 0
 742 895 873 641 890 321 c 1
 949 329 1002 339 1056 355 c 1
 1114 90 l 1
 1039 70 961 54 886 45 c 1
 867 -195 818 -407 712 -628 c 1
 424 -522 l 1
 513 -306 549 -171 564 6 c 1
EndSplineSet
EndChar

StartChar: uniE090
Encoding: 57488 57488 1254
Width: 2274
Flags: HW
LayerCount: 2
Fore
SplineSet
2274 308 m 1
 2274 0 l 1
 1273 0 l 2
 1029 0 850 123 716 236 c 0
 674 271 638 303 602 335 c 0
 573 361 551 376 532 376 c 0
 509 376 492 353 470 298 c 0
 449 250 430 186 414 114 c 0
 394 22 380 -69 368 -151 c 1
 63 -101 l 1
 76 -11 89 77 110 169 c 0
 128 250 150 328 180 396 c 0
 231 540 322 700 514 700 c 0
 589 700 652 674 702 644 c 0
 762 609 813 562 865 513 c 0
 971 413 1089 308 1273 308 c 2
 2274 308 l 1
EndSplineSet
EndChar

StartChar: uniE09F
Encoding: 57503 57503 1259
Width: 769
Flags: HW
LayerCount: 2
Fore
SplineSet
60 372 m 257
 195 507 l 257
 330 372 l 257
 195 237 l 257
 60 372 l 257
301 372 m 257
 436 507 l 257
 571 372 l 257
 436 237 l 257
 301 372 l 257
60 135 m 257
 195 270 l 257
 330 135 l 257
 195 0 l 257
 60 135 l 257
301 135 m 257
 436 270 l 257
 571 135 l 257
 436 0 l 257
 301 135 l 257
EndSplineSet
Colour: ffff00
EndChar

StartChar: uniE0A0
Encoding: 57504 57504 1260
Width: 0
Flags: HW
LayerCount: 2
Fore
SplineSet
158 1452 m 2
 89 1468 16 1444 16 1374 c 0
 16 1327 47 1298 101 1298 c 0
 125 1298 158 1306 188 1314 c 2
 241 1329 l 1
 278 1207 l 1
 53 1138 l 2
 30 1131 6 1127 -18 1127 c 0
 -47 1127 -75 1133 -99 1144 c 0
 -112 1150 -124 1155 -134 1155 c 0
 -148 1155 -159 1144 -181 1095 c 1
 -298 1149 l 1
 -252 1246 -216 1290 -145 1290 c 0
 -136 1290 -124 1288 -113 1285 c 0
 -102 1282 -90 1281 -82 1281 c 0
 -80 1281 -77 1281 -75 1281 c 1
 -98 1303 -112 1342 -112 1379 c 0
 -112 1522 34 1621 190 1577 c 2
 233 1565 l 1
 202 1442 l 1
 158 1452 l 2
EndSplineSet
Colour: ffff00
EndChar

StartChar: Arabic_Single_Dot.alt
Encoding: 1114500 -1 1261
Width: 392
Flags: HW
LayerCount: 2
Fore
SplineSet
40 156 m 257
 196 312 l 257
 352 156 l 257
 196 0 l 257
 40 156 l 257
EndSplineSet
Colour: ffff00
EndChar

StartChar: Arabic_Double_Dot_H.alt
Encoding: 1114501 -1 1262
Width: 758
Flags: HW
LayerCount: 2
Fore
SplineSet
352 117 m 257
 492 257 l 257
 632 117 l 257
 492 -23 l 257
 352 117 l 257
117 117 m 257
 257 257 l 257
 397 117 l 257
 257 -23 l 257
 117 117 l 257
EndSplineSet
Colour: ffff00
EndChar

StartChar: uni0615.alt
Encoding: 1114502 -1 1263
Width: 740
Flags: HW
LayerCount: 2
Fore
SplineSet
344 98 m 1
 384 98 l 2
 431 98 508 99 508 149 c 0
 508 173 492 190 464 190 c 0
 424 190 384 148 344 98 c 1
222 98 m 1
 222 408 l 1
 321 408 l 1
 321 189 l 1
 371 242 415 288 485 288 c 0
 548 288 607 244 607 150 c 0
 607 35 504 0 384 0 c 2
 133 0 l 1
 133 98 l 1
 222 98 l 1
EndSplineSet
Colour: ffff00
EndChar

StartChar: uni0652.alt
Encoding: 1114503 -1 1264
Width: 342
Flags: HW
LayerCount: 2
Fore
SplineSet
171 182 m 256
 135 182 120 161 120 131 c 256
 120 101 136 79 171 79 c 256
 205 79 222 103 222 131 c 256
 222 159 207 182 171 182 c 256
171 261 m 256
 250 261 302 204 302 131 c 256
 302 58 250 0 171 0 c 256
 91 0 40 59 40 131 c 256
 40 203 91 261 171 261 c 256
EndSplineSet
Colour: ffff00
EndChar

StartChar: caron
Encoding: 711 711 1265
Width: 756
Flags: HW
LayerCount: 2
Fore
SplineSet
75 1478 m 1
 264 1478 l 1
 378 1258 l 1
 492 1478 l 1
 682 1478 l 1
 534 1134 l 1
 222 1134 l 1
 75 1478 l 1
EndSplineSet
EndChar

StartChar: circumflex
Encoding: 710 710 1266
Width: 756
Flags: HW
LayerCount: 2
Fore
SplineSet
682 1134 m 1
 492 1134 l 1
 378 1353 l 1
 264 1134 l 1
 75 1134 l 1
 222 1478 l 1
 534 1478 l 1
 682 1134 l 1
EndSplineSet
EndChar

StartChar: K.alt
Encoding: 1114592 -1 1355
Width: 1392
Flags: HW
LayerCount: 2
Fore
SplineSet
1013 1462 m 1
 1376 1462 l 1
 765 729 l 1
 1376 0 l 1
 1013 0 l 1
 516 633 l 1
 452 633 l 1
 452 0 l 1
 145 0 l 1
 145 1462 l 1
 452 1462 l 1
 452 855 l 1
 515 855 l 1
 1013 1462 l 1
EndSplineSet
Substitution2: "'c2sc' Capitals to Small Capitals in Latin lookup 0 subtable" uni1D0B
EndChar

StartChar: k.alt
Encoding: 1114593 -1 1356
Width: 1230
Flags: HW
LayerCount: 2
Fore
SplineSet
790 1099 m 1
 1176 1099 l 1
 768 592 l 1
 1217 0 l 1
 831 0 l 1
 500 483 l 1
 438 483 l 1
 438 0 l 1
 132 0 l 1
 132 1519 l 1
 438 1519 l 1
 438 668 l 1
 500 668 l 1
 790 1099 l 1
EndSplineSet
Substitution2: "'smcp' Lowercase to Small Capitals in Latin lookup 0 subtable" uni1D0B
EndChar

StartChar: Arabic_Double_Dot_V.alt
Encoding: 1114594 -1 1357
Width: 497
Flags: HW
LayerCount: 2
Fore
SplineSet
244 225 m 257
 104 365 l 257
 244 505 l 257
 384 365 l 257
 244 225 l 257
244 -10 m 257
 104 130 l 257
 244 270 l 257
 384 130 l 257
 244 -10 l 257
EndSplineSet
Colour: ffff00
EndChar

StartChar: uniE010
Encoding: 57360 57360 1359
Width: 1573
Flags: HW
LayerCount: 2
Fore
SplineSet
1368 -221 m 1
 1042 -221 l 1
 886 103 l 1
 1082 220 l 1
 1368 -221 l 1
EndSplineSet
EndChar

StartChar: uniE011
Encoding: 57361 57361 1363
Width: 1130
Flags: HW
LayerCount: 2
Fore
SplineSet
424 1504 m 1
 732 1504 l 1
 732 914 l 1
 424 914 l 1
 424 1504 l 1
424 145 m 1
 732 145 l 1
 732 -454 l 1
 424 -454 l 1
 424 145 l 1
EndSplineSet
EndChar

StartChar: uniE012
Encoding: 57362 57362 1364
Width: 1644
Flags: HW
LayerCount: 2
Fore
SplineSet
1164 1214 m 1
 1436 1473 l 1
 1585 1318 l 1
 1231 984 l 1
 1164 1214 l 1
433 189 m 1
 210 -28 l 1
 60 127 l 1
 348 403 l 1
 433 189 l 1
EndSplineSet
EndChar

StartChar: uniE013
Encoding: 57363 57363 1365
Width: 1146
Flags: HW
LayerCount: 2
Fore
SplineSet
780 941 m 1
 969 1187 l 1
 1119 1075 l 1
 903 794 l 1
 780 941 l 1
402 140 m 1
 209 -112 l 1
 59 1 l 1
 290 301 l 1
 402 140 l 1
EndSplineSet
EndChar

StartChar: uniE014
Encoding: 57364 57364 1367
Width: 1392
Flags: HW
LayerCount: 2
Fore
SplineSet
303 276 m 1
 303 455 l 1
 1089 455 l 1
 1089 276 l 1
 303 276 l 1
EndSplineSet
EndChar

StartChar: kgreenlandic
Encoding: 312 312 1425
Width: 1142
VWidth: 4096
Flags: HW
LayerCount: 2
Fore
SplineSet
119 1099 m 1
 426 1099 l 1
 426 696 l 1
 758 1099 l 1
 1111 1099 l 1
 674 546 l 1
 1117 0 l 1
 758 0 l 1
 495 331 l 1
 426 250 l 1
 426 0 l 1
 119 0 l 1
 119 1099 l 1
EndSplineSet
EndChar

StartChar: Eng
Encoding: 330 330 1443
Width: 1474
Flags: HW
LayerCount: 2
Fore
SplineSet
156 1462 m 1
 465 1462 l 1
 465 0 l 1
 156 0 l 1
 156 1462 l 1
880 1472 m 0
 1227 1472 1360 1249 1360 883 c 1
 1360 293 l 2
 1360 72 1201 -11 1016 -11 c 0
 933 -11 847 6 772 35 c 1
 814 236 l 1
 852 226 892 221 926 221 c 0
 1007 221 1053 256 1053 329 c 2
 1053 883 l 1
 1053 1068 979 1194 777 1194 c 0
 582 1194 476 1054 464 873 c 1
 386 874 l 1
 413 1230 568 1472 880 1472 c 0
EndSplineSet
EndChar

StartChar: eng
Encoding: 331 331 1444
Width: 1229
Flags: HW
LayerCount: 2
Fore
SplineSet
800 20 m 1
 1108 20 l 1
 1108 -183 l 2
 1108 -404 947 -487 762 -487 c 0
 671 -487 580 -467 506 -433 c 1
 553 -234 l 1
 590 -248 633 -255 672 -255 c 0
 753 -255 800 -221 800 -148 c 2
 800 20 l 1
EndSplineSet
Refer: 138 110 N 1 0 0 1 0 0 3
EndChar

StartChar: longs
Encoding: 383 383 1494
Width: 766
Flags: HW
LayerCount: 2
Fore
SplineSet
791 1469 m 1
 744 1269 l 1
 707 1283 664 1291 625 1291 c 0
 544 1291 497 1257 497 1184 c 2
 497 0 l 1
 189 0 l 1
 189 1219 l 2
 189 1440 350 1523 535 1523 c 0
 626 1523 717 1503 791 1469 c 1
EndSplineSet
Refer: 1984 57366 N 1 0 0 1 -41 0 2
Colour: ffff00
EndChar

StartChar: uni018F
Encoding: 399 399 1497
Width: 1539
Flags: HW
LayerCount: 2
Fore
SplineSet
1105 568 m 1
 423 568 l 1
 447 378 559 253 770 253 c 0
 958 253 1077 366 1105 568 c 1
1116 811 m 1
 1099 1080 973 1209 765 1209 c 0
 593 1209 482 1127 432 969 c 1
 150 1068 l 1
 235 1304 443 1472 761 1472 c 0
 1211 1472 1429 1138 1429 728 c 0
 1429 336 1228 -12 753 -12 c 0
 302 -12 56 366 114 811 c 1
 1116 811 l 1
EndSplineSet
EndChar

StartChar: uni01B7
Encoding: 439 439 1502
Width: 1348
Flags: HW
LayerCount: 2
Fore
SplineSet
654 -487 m 0
 346 -487 98 -332 77 -20 c 1
 389 -16 l 1
 410 -139 510 -225 663 -225 c 0
 868 -225 966 -100 966 136 c 0
 966 430 759 535 487 471 c 1
 366 608 l 1
 852 1198 l 1
 105 1198 l 1
 105 1462 l 1
 1201 1462 l 1
 1201 1245 l 1
 803 754 l 1
 1134 702 1272 491 1272 136 c 0
 1272 -264 1053 -487 654 -487 c 0
EndSplineSet
EndChar

StartChar: uni0239
Encoding: 569 569 1603
Width: 1769
Flags: HW
LayerCount: 2
Fore
SplineSet
730 1099 m 1
 1038 1099 l 1
 1038 -448 l 1
 730 -448 l 1
 730 1099 l 1
EndSplineSet
Refer: 318 57359 N -1 0 0 -1 1122 1098 2
Refer: 318 57359 N 1 0 0 1 648 0 2
EndChar

StartChar: uni0240
Encoding: 576 576 1604
Width: 1051
Flags: HW
LayerCount: 2
Fore
SplineSet
802 -280 m 0
 647 -280 569 -217 494 -150 c 0
 408 -73 318 0 78 0 c 1
 78 216 l 1
 609 836 l 1
 78 836 l 1
 78 1099 l 1
 967 1099 l 1
 967 882 l 1
 378 196 l 1
 494 187 554 138 611 82 c 0
 665 30 723 -18 802 -18 c 0
 890 -18 942 36 993 108 c 1
 1197 -42 l 1
 1103 -178 996 -280 802 -280 c 0
EndSplineSet
EndChar

StartChar: uni0255
Encoding: 597 597 1607
Width: 1152
Flags: HW
LayerCount: 2
Fore
SplineSet
614 236 m 0
 466 236 384 332 384 549 c 0
 384 766 467 864 598 864 c 0
 689 864 766 822 787 692 c 1
 1083 755 l 1
 1029 985 853 1108 591 1108 c 0
 244 1108 76 873 76 549 c 0
 76 225 244 -11 598 -11 c 0
 846 -11 1051 121 1051 351 c 0
 1051 518 902 624 752 624 c 0
 465 624 246 360 40 42 c 1
 217 -78 l 1
 455 267 584 443 709 443 c 0
 769 443 797 405 797 357 c 0
 797 283 713 236 614 236 c 0
EndSplineSet
EndChar

StartChar: uni0262
Encoding: 610 610 1609
Width: 1155
Flags: HW
LayerCount: 2
Fore
SplineSet
340 552 m 0
 340 334 439 236 623 236 c 0
 715 236 785 266 821 315 c 1
 821 432 l 1
 547 432 l 1
 547 614 l 1
 1086 621 l 1
 1086 213 l 1
 976 69 831 -10 621 -10 c 0
 279 -10 68 192 68 552 c 0
 68 890 264 1109 593 1109 c 0
 820 1109 972 978 1034 810 c 1
 818 719 l 1
 788 803 700 863 592 863 c 0
 426 863 340 746 340 552 c 0
EndSplineSet
EndChar

StartChar: uni0274
Encoding: 628 628 1612
Width: 1307
Flags: HW
LayerCount: 2
Fore
SplineSet
868 1099 m 1
 1176 1099 l 1
 1176 0 l 1
 881 0 l 1
 439 657 l 1
 439 0 l 1
 132 0 l 1
 132 1099 l 1
 426 1099 l 1
 868 441 l 1
 868 1099 l 1
EndSplineSet
EndChar

StartChar: uni0280
Encoding: 640 640 1613
Width: 1166
Flags: HW
LayerCount: 2
Fore
SplineSet
451 568 m 1
 571 568 l 2
 695 568 752 609 752 730 c 0
 752 852 693 889 571 889 c 2
 451 889 l 1
 451 568 l 1
451 360 m 1
 451 0 l 1
 144 0 l 1
 144 1099 l 1
 623 1099 l 2
 902 1099 1059 968 1059 730 c 0
 1059 490 900 360 623 360 c 2
 451 360 l 1
612 474 m 1
 880 474 l 1
 1149 0 l 1
 845 0 l 1
 612 474 l 1
EndSplineSet
EndChar

StartChar: uni0283
Encoding: 643 643 1614
Width: 788
Flags: HW
LayerCount: 2
Fore
SplineSet
813 1469 m 1
 766 1269 l 1
 729 1283 686 1291 647 1291 c 0
 566 1291 519 1257 519 1184 c 2
 519 -171 l 2
 519 -392 358 -475 173 -475 c 0
 82 -475 -9 -455 -83 -421 c 1
 -36 -222 l 1
 1 -236 44 -243 83 -243 c 0
 164 -243 211 -209 211 -136 c 2
 211 1219 l 2
 211 1440 372 1523 557 1523 c 0
 648 1523 739 1503 813 1469 c 1
EndSplineSet
EndChar

StartChar: uni028F
Encoding: 655 655 1615
Width: 1141
Flags: HW
LayerCount: 2
Fore
SplineSet
792 1099 m 1
 1148 1099 l 1
 726 472 l 1
 726 0 l 1
 417 0 l 1
 417 472 l 1
 -7 1099 l 1
 351 1099 l 1
 572 724 l 1
 792 1099 l 1
EndSplineSet
EndChar

StartChar: uni0291
Encoding: 657 657 1616
Width: 1557
Flags: HW
LayerCount: 2
Fore
SplineSet
1057 262 m 0
 435 262 l 1
 967 882 l 1
 967 1099 l 1
 78 1099 l 1
 78 836 l 1
 609 836 l 1
 78 216 l 1
 78 0 l 1
 1042 0 l 1
 1290 0 1494 132 1494 362 c 0
 1494 529 1397 677 1178 677 c 0
 881 677 663 358 324 -176 c 1
 508 -294 l 1
 869 252 1029 452 1154 452 c 0
 1209 452 1238 418 1238 372 c 0
 1238 298 1156 262 1057 262 c 0
EndSplineSet
EndChar

StartChar: uni0292
Encoding: 658 658 1617
Width: 1165
VWidth: 4096
Flags: HW
LayerCount: 2
Fore
SplineSet
574 -487 m 0
 298 -487 106 -366 69 -79 c 1
 374 -55 l 1
 400 -178 468 -242 572 -242 c 0
 688 -242 783 -178 783 18 c 0
 783 270 609 302 424 253 c 1
 296 393 l 1
 649 836 l 1
 107 836 l 1
 107 1099 l 1
 1037 1099 l 1
 1037 882 l 1
 732 501 l 1
 934 473 1092 322 1092 18 c 0
 1092 -317 900 -487 574 -487 c 0
EndSplineSet
EndChar

StartChar: uni0293
Encoding: 659 659 1618
Width: 1171
VWidth: 4096
Flags: HW
LayerCount: 2
Fore
SplineSet
113 836 m 1
 113 1099 l 1
 1043 1099 l 1
 1043 882 l 1
 738 501 l 1
 940 473 1098 322 1098 18 c 0
 1098 -317 868 -488 542 -488 c 0
 288 -488 72 -361 72 -126 c 0
 72 41 222 147 372 147 c 0
 659 147 878 -118 1084 -436 c 1
 907 -555 l 1
 669 -210 539 -35 414 -35 c 0
 354 -35 326 -73 326 -121 c 0
 326 -203 436 -242 541 -242 c 0
 657 -242 789 -178 789 18 c 0
 789 270 615 302 430 253 c 1
 302 393 l 1
 655 836 l 1
 113 836 l 1
EndSplineSet
EndChar

StartChar: uni0299
Encoding: 665 665 1619
Width: 1163
Flags: HW
LayerCount: 2
Fore
SplineSet
144 1099 m 1
 642 1099 l 2
 902 1099 1011 963 1011 776 c 0
 1011 688 971 615 907 574 c 1
 1004 527 1062 428 1062 316 c 0
 1062 112 933 0 717 0 c 2
 144 0 l 1
 144 1099 l 1
452 889 m 1
 452 628 l 1
 607 628 l 2
 689 628 741 665 741 760 c 0
 741 856 687 889 607 889 c 2
 452 889 l 1
452 470 m 1
 452 209 l 1
 618 209 l 2
 700 209 752 245 752 340 c 0
 752 436 698 470 618 470 c 2
 452 470 l 1
EndSplineSet
EndChar

StartChar: uni029C
Encoding: 668 668 1620
Width: 1295
Flags: HW
LayerCount: 2
Fore
SplineSet
856 1099 m 1
 1164 1099 l 1
 1164 0 l 1
 856 0 l 1
 856 428 l 1
 439 428 l 1
 439 0 l 1
 132 0 l 1
 132 1099 l 1
 439 1099 l 1
 439 671 l 1
 856 671 l 1
 856 1099 l 1
EndSplineSet
EndChar

StartChar: uni029F
Encoding: 671 671 1622
Width: 964
Flags: HW
LayerCount: 2
Fore
SplineSet
145 1099 m 1
 452 1099 l 1
 452 246 l 1
 918 246 l 1
 918 0 l 1
 145 0 l 1
 145 1099 l 1
EndSplineSet
EndChar

StartChar: uni02C2
Encoding: 706 706 1632
Width: 672
Flags: HW
LayerCount: 2
Fore
SplineSet
320 717 m 1
 604 433 l 1
 478 306 l 1
 68 717 l 1
 478 1128 l 1
 604 1001 l 1
 320 717 l 1
EndSplineSet
EndChar

StartChar: uni02C3
Encoding: 707 707 1633
Width: 672
Flags: HW
LayerCount: 2
Fore
SplineSet
352 717 m 1
 68 1001 l 1
 194 1128 l 1
 604 717 l 1
 194 306 l 1
 68 433 l 1
 352 717 l 1
EndSplineSet
EndChar

StartChar: uni02C4
Encoding: 708 708 1634
Width: 956
Flags: HW
LayerCount: 2
Fore
SplineSet
478 732 m 1
 194 448 l 1
 68 575 l 1
 478 986 l 1
 888 575 l 1
 762 448 l 1
 478 732 l 1
EndSplineSet
EndChar

StartChar: uni02C5
Encoding: 709 709 1635
Width: 956
Flags: HW
LayerCount: 2
Fore
SplineSet
478 702 m 1
 762 986 l 1
 888 859 l 1
 478 448 l 1
 68 859 l 1
 194 986 l 1
 478 702 l 1
EndSplineSet
EndChar

StartChar: uni02D2
Encoding: 722 722 1636
Width: 466
VWidth: 0
Flags: HW
LayerCount: 2
Fore
SplineSet
82 1269 m 1
 189 1269 246 1330 246 1426 c 0
 246 1522 190 1582 83 1582 c 1
 83 1720 l 1
 263 1720 384 1612 384 1426 c 0
 384 1240 263 1131 82 1131 c 1
 82 1269 l 1
EndSplineSet
EndChar

StartChar: uni02D3
Encoding: 723 723 1637
Width: 601
VWidth: 0
Flags: HW
LayerCount: 2
Fore
SplineSet
452 1582 m 1
 345 1582 288 1522 288 1426 c 0
 288 1330 344 1269 451 1269 c 1
 451 1131 l 1
 271 1131 150 1240 150 1426 c 0
 150 1612 271 1720 452 1720 c 1
 452 1582 l 1
EndSplineSet
EndChar

StartChar: breve
Encoding: 728 728 1638
Width: 787
VWidth: 0
Flags: HW
LayerCount: 2
Fore
SplineSet
704 1451 m 1
 704 1251 593 1134 394 1134 c 0
 195 1134 82 1251 82 1451 c 1
 231 1451 l 1
 231 1333 290 1278 394 1278 c 0
 498 1278 556 1333 556 1451 c 1
 704 1451 l 1
EndSplineSet
EndChar

StartChar: dotaccent
Encoding: 729 729 1639
Width: 454
VWidth: 4096
Flags: HW
LayerCount: 2
Fore
SplineSet
82 1277 m 0
 82 1355 150 1417 228 1417 c 0
 306 1417 372 1355 372 1277 c 0
 372 1199 306 1134 228 1134 c 0
 150 1134 82 1199 82 1277 c 0
EndSplineSet
EndChar

StartChar: ring
Encoding: 730 730 1640
Width: 707
VWidth: 0
Flags: HW
LayerCount: 2
Fore
SplineSet
353 1552 m 0
 267 1552 208 1487 208 1405 c 0
 208 1323 267 1259 353 1259 c 0
 439 1259 500 1323 500 1405 c 0
 500 1487 439 1552 353 1552 c 0
353 1676 m 0
 506 1676 624 1555 624 1405 c 0
 624 1255 506 1134 353 1134 c 0
 200 1134 82 1255 82 1405 c 0
 82 1555 200 1676 353 1676 c 0
EndSplineSet
EndChar

StartChar: ogonek
Encoding: 731 731 1641
Width: 679
VWidth: 4096
Flags: HW
LayerCount: 2
Fore
SplineSet
337 -522 m 0
 181 -522 82 -430 82 -287 c 0
 82 -232 98 -179 126 -130 c 2
 200 0 l 1
 200 1 l 1
 373 1 l 1
 373 0 l 1
 258 -204 l 1
 243 -229 234 -260 234 -288 c 0
 234 -345 270 -375 336 -375 c 0
 406 -375 444 -341 444 -280 c 1
 596 -280 l 1
 596 -428 495 -522 337 -522 c 0
EndSplineSet
EndChar

StartChar: uni1D00
Encoding: 7424 7424 1646
Width: 1094
Flags: HW
LayerCount: 2
Fore
SplineSet
745 236 m 1
 354 236 l 1
 413 420 l 1
 688 420 l 1
 745 236 l 1
311 0 m 1
 -3 0 l 1
 366 1099 l 1
 720 1099 l 1
 1094 0 l 1
 780 0 l 1
 544 806 l 1
 311 0 l 1
EndSplineSet
EndChar

StartChar: uni1D04
Encoding: 7428 7428 1647
Width: 1092
Flags: HW
LayerCount: 2
Fore
SplineSet
569 1109 m 0
 856 1109 1030 922 1040 695 c 1
 772 690 l 1
 749 795 681 864 576 864 c 0
 432 864 360 746 360 549 c 0
 360 353 432 234 573 234 c 0
 681 234 749 302 772 408 c 1
 1040 403 l 1
 1030 177 856 -11 573 -11 c 0
 254 -11 79 190 79 549 c 0
 79 908 254 1109 569 1109 c 0
EndSplineSet
EndChar

StartChar: uni1D05
Encoding: 7429 7429 1648
Width: 1136
Flags: HW
LayerCount: 2
Fore
SplineSet
119 1099 m 1
 563 1099 l 2
 901 1099 1053 874 1053 549 c 0
 1053 224 901 0 563 0 c 2
 119 0 l 1
 119 1099 l 1
426 889 m 1
 426 221 l 1
 533 221 l 2
 683 221 758 307 758 549 c 0
 758 790 683 889 533 889 c 2
 426 889 l 1
EndSplineSet
EndChar

StartChar: uni1D07
Encoding: 7431 7431 1649
Width: 912
Flags: HW
LayerCount: 2
Fore
SplineSet
854 246 m 1
 854 0 l 1
 119 0 l 1
 119 1099 l 1
 854 1099 l 1
 854 850 l 1
 426 850 l 1
 426 647 l 1
 802 647 l 1
 802 450 l 1
 426 450 l 1
 426 246 l 1
 854 246 l 1
EndSplineSet
EndChar

StartChar: uni1D0A
Encoding: 7434 7434 1650
Width: 753
Flags: HW
LayerCount: 2
Fore
SplineSet
46 35 m 1
 88 236 l 1
 126 226 167 222 201 222 c 0
 282 222 327 256 327 329 c 2
 327 1099 l 1
 634 1099 l 1
 634 294 l 2
 634 73 475 -11 290 -11 c 0
 207 -11 121 6 46 35 c 1
EndSplineSet
EndChar

StartChar: uni1D0B
Encoding: 7435 7435 1651
Width: 1135
VWidth: 4096
Flags: HW
LayerCount: 2
Fore
SplineSet
119 1099 m 1
 426 1099 l 1
 426 696 l 1
 758 1099 l 1
 1116 1099 l 1
 674 546 l 1
 1117 0 l 1
 759 0 l 1
 495 331 l 1
 426 250 l 1
 426 0 l 1
 119 0 l 1
 119 1099 l 1
EndSplineSet
EndChar

StartChar: uni1D0D
Encoding: 7437 7437 1652
Width: 1549
Flags: HW
LayerCount: 2
Fore
SplineSet
426 0 m 1
 119 0 l 1
 119 1099 l 1
 479 1099 l 1
 767 301 l 1
 1068 1099 l 1
 1430 1099 l 1
 1430 0 l 1
 1122 0 l 1
 1122 636 l 1
 870 0 l 1
 664 0 l 1
 426 634 l 1
 426 0 l 1
EndSplineSet
EndChar

StartChar: uni1D18
Encoding: 7448 7448 1653
Width: 1090
Flags: HW
LayerCount: 2
Fore
SplineSet
426 0 m 1
 119 0 l 1
 119 1099 l 1
 608 1099 l 2
 873 1099 1022 962 1022 738 c 0
 1022 512 871 374 608 374 c 2
 426 374 l 1
 426 0 l 1
426 889 m 1
 426 583 l 1
 555 583 l 2
 667 583 715 628 715 738 c 0
 715 848 665 889 555 889 c 2
 426 889 l 1
EndSplineSet
EndChar

StartChar: uni1D1B
Encoding: 7451 7451 1654
Width: 1048
Flags: HW
LayerCount: 2
Fore
SplineSet
679 0 m 1
 370 0 l 1
 370 835 l 1
 38 835 l 1
 38 1099 l 1
 1011 1099 l 1
 1011 835 l 1
 679 835 l 1
 679 0 l 1
EndSplineSet
EndChar

StartChar: uni1D1C
Encoding: 7452 7452 1655
Width: 1174
Flags: HW
LayerCount: 2
Fore
SplineSet
788 1099 m 1
 1075 1099 l 1
 1075 433 l 2
 1075 136 881 -9 587 -9 c 0
 293 -9 99 136 99 433 c 2
 99 1099 l 1
 385 1099 l 1
 385 456 l 2
 385 320 429 240 587 240 c 0
 745 240 788 320 788 456 c 2
 788 1099 l 1
EndSplineSet
EndChar

StartChar: uni1D20
Encoding: 7456 7456 1656
Width: 1090
Flags: HW
LayerCount: 2
Fore
SplineSet
311 1099 m 1
 547 293 l 1
 780 1099 l 1
 1094 1099 l 1
 725 0 l 1
 370 0 l 1
 -3 1099 l 1
 311 1099 l 1
EndSplineSet
EndChar

StartChar: uni1D21
Encoding: 7457 7457 1657
Width: 1626
Flags: HW
LayerCount: 2
Fore
SplineSet
28 1099 m 1
 316 1099 l 1
 491 374 l 1
 693 1099 l 1
 932 1099 l 1
 1136 374 l 1
 1309 1099 l 1
 1598 1099 l 1
 1327 0 l 1
 1010 0 l 1
 813 658 l 1
 614 0 l 1
 299 0 l 1
 28 1099 l 1
EndSplineSet
EndChar

StartChar: uni1D22
Encoding: 7458 7458 1658
Width: 1035
Flags: HW
LayerCount: 2
Fore
SplineSet
91 1099 m 1
 937 1099 l 1
 937 904 l 1
 434 261 l 1
 937 261 l 1
 937 0 l 1
 91 0 l 1
 91 196 l 1
 593 836 l 1
 91 836 l 1
 91 1099 l 1
EndSplineSet
EndChar

StartChar: uni1E9E
Encoding: 7838 7838 1818
Width: 1330
Flags: HW
LayerCount: 2
Fore
SplineSet
125 0 m 1
 125 997 l 2
 125 1323 300 1546 644 1546 c 0
 911 1546 1136 1404 1136 1141 c 0
 1136 959 1051 862 911 818 c 1
 1118 773 1259 656 1259 384 c 0
 1259 116 1099 -10 862 -10 c 0
 626 -10 506 121 506 360 c 1
 691 360 l 1
 691 278 737 237 818 237 c 0
 918 237 955 319 955 421 c 0
 955 635 796 701 612 701 c 1
 612 945 l 1
 779 945 832 1031 832 1117 c 0
 832 1241 744 1292 644 1292 c 0
 496 1292 433 1184 433 1040 c 2
 433 0 l 1
 125 0 l 1
EndSplineSet
EndChar

StartChar: emdash
Encoding: 8212 8212 1910
Width: 2048
Flags: HW
LayerCount: 2
Fore
SplineSet
1978 734 m 1
 1978 511 l 1
 70 511 l 1
 70 734 l 1
 1978 734 l 1
EndSplineSet
EndChar

StartChar: dagger
Encoding: 8224 8224 1916
Width: 1466
Flags: HW
LayerCount: 2
Fore
SplineSet
200 862 m 1
 200 1130 l 1
 1266 1130 l 1
 1266 862 l 1
 200 862 l 1
598 1462 m 1
 868 1462 l 1
 868 -465 l 1
 598 -465 l 1
 598 1462 l 1
EndSplineSet
EndChar

StartChar: daggerdbl
Encoding: 8225 8225 1917
Width: 1466
Flags: HW
LayerCount: 2
Fore
SplineSet
200 -134 m 1
 200 135 l 1
 1266 135 l 1
 1266 -134 l 1
 200 -134 l 1
200 862 m 1
 200 1130 l 1
 1266 1130 l 1
 1266 862 l 1
 200 862 l 1
598 1462 m 1
 868 1462 l 1
 868 -465 l 1
 598 -465 l 1
 598 1462 l 1
EndSplineSet
EndChar

StartChar: bullet
Encoding: 8226 8226 1918
Width: 588
Flags: HW
LayerCount: 2
Fore
SplineSet
100 688 m 0
 100 796 185 882 294 882 c 0
 403 882 489 796 489 688 c 0
 489 580 403 493 294 493 c 0
 185 493 100 580 100 688 c 0
EndSplineSet
EndChar

StartChar: uni2070
Encoding: 8304 8304 1921
Width: 732
Flags: HW
LayerCount: 2
Fore
SplineSet
367 1687 m 0
 284 1687 249 1632 249 1476 c 0
 249 1320 284 1263 367 1263 c 0
 450 1263 484 1320 484 1476 c 0
 484 1632 450 1687 367 1687 c 0
367 1827 m 0
 607 1827 635 1620 635 1476 c 0
 635 1332 607 1124 367 1124 c 0
 127 1124 98 1332 98 1476 c 0
 98 1620 127 1827 367 1827 c 0
EndSplineSet
EndChar

StartChar: uni2074
Encoding: 8308 8308 1922
Width: 760
VWidth: 2047
Flags: HW
LayerCount: 2
Fore
SplineSet
414 1369 m 1
 414 1621 l 1
 226 1369 l 1
 414 1369 l 1
414 1251 m 1
 98 1251 l 1
 98 1364 l 1
 428 1816 l 1
 565 1816 l 1
 565 1369 l 1
 663 1369 l 1
 663 1251 l 1
 565 1251 l 1
 565 1134 l 1
 414 1134 l 1
 414 1251 l 1
EndSplineSet
EndChar

StartChar: uni2075
Encoding: 8309 8309 1923
Width: 678
VWidth: 2047
Flags: HW
LayerCount: 2
Fore
SplineSet
98 1344 m 1
 247 1344 l 1
 247 1282 271 1251 335 1251 c 0
 405 1251 433 1286 433 1372 c 0
 433 1451 392 1483 324 1483 c 0
 271 1483 230 1448 196 1412 c 1
 102 1466 l 1
 136 1816 l 1
 567 1816 l 1
 567 1694 l 1
 262 1694 l 1
 249 1579 l 1
 285 1595 325 1604 362 1604 c 0
 492 1604 580 1522 580 1384 c 0
 580 1216 489 1124 326 1124 c 0
 179 1124 98 1205 98 1344 c 1
EndSplineSet
EndChar

StartChar: uni2076
Encoding: 8310 8310 1924
Width: 678
VWidth: 2047
Flags: HW
LayerCount: 2
Fore
SplineSet
358 1826 m 0
 479 1826 574 1755 574 1627 c 1
 448 1627 l 1
 448 1671 419 1700 354 1700 c 0
 274 1700 241 1640 240 1542 c 1
 280 1580 319 1592 374 1592 c 0
 492 1592 581 1505 581 1371 c 0
 581 1225 493 1124 344 1124 c 0
 159 1124 98 1251 98 1451 c 0
 98 1698 188 1826 358 1826 c 0
344 1460 m 0
 312 1460 274 1450 243 1419 c 1
 243 1295 276 1254 342 1254 c 0
 395 1254 432 1292 432 1360 c 0
 432 1425 396 1460 344 1460 c 0
EndSplineSet
EndChar

StartChar: uni2077
Encoding: 8311 8311 1925
Width: 674
VWidth: 2047
Flags: HW
LayerCount: 2
Fore
SplineSet
576 1688 m 1
 430 1530 342 1354 342 1134 c 1
 198 1134 l 1
 198 1338 279 1535 401 1682 c 1
 98 1682 l 1
 98 1816 l 1
 550 1816 l 1
 576 1688 l 1
EndSplineSet
EndChar

StartChar: uni2078
Encoding: 8312 8312 1926
Width: 688
Flags: HW
LayerCount: 2
Fore
SplineSet
344 1826 m 0
 483 1826 569 1737 569 1638 c 0
 569 1583 542 1529 490 1491 c 1
 556 1446 591 1383 591 1320 c 0
 591 1215 502 1124 344 1124 c 0
 186 1124 98 1215 98 1320 c 0
 98 1383 132 1447 198 1492 c 1
 147 1530 120 1583 120 1638 c 0
 120 1737 204 1826 344 1826 c 0
344 1707 m 0
 297 1707 268 1677 268 1626 c 0
 268 1574 298 1543 344 1543 c 0
 390 1543 420 1574 420 1626 c 0
 420 1678 391 1707 344 1707 c 0
342 1429 m 0
 287 1429 251 1395 251 1340 c 0
 251 1284 286 1250 344 1250 c 0
 401 1250 436 1282 436 1338 c 0
 436 1394 399 1429 342 1429 c 0
EndSplineSet
EndChar

StartChar: uni2079
Encoding: 8313 8313 1927
Width: 678
VWidth: 2047
Flags: HW
LayerCount: 2
Fore
SplineSet
435 1530 m 1
 435 1654 402 1696 336 1696 c 0
 283 1696 247 1658 247 1590 c 0
 247 1525 283 1490 335 1490 c 0
 367 1490 404 1499 435 1530 c 1
439 1408 m 1
 399 1370 359 1357 304 1357 c 0
 186 1357 98 1444 98 1578 c 0
 98 1724 185 1826 334 1826 c 0
 519 1826 581 1698 581 1498 c 0
 581 1251 490 1124 320 1124 c 0
 199 1124 104 1194 104 1322 c 1
 231 1322 l 1
 231 1278 260 1250 325 1250 c 0
 405 1250 438 1310 439 1408 c 1
EndSplineSet
EndChar

StartChar: uni25CC
Encoding: 9676 9676 1957
Width: 1702
Flags: HW
LayerCount: 2
Fore
SplineSet
778 91 m 0
 778 145 797 164 851 164 c 0
 905 164 924 145 924 91 c 0
 924 37 905 18 851 18 c 0
 797 18 778 37 778 91 c 0
778 1447 m 0
 778 1501 797 1520 851 1520 c 0
 905 1520 924 1501 924 1447 c 0
 924 1393 905 1374 851 1374 c 0
 797 1374 778 1393 778 1447 c 0
1529 696 m 0
 1475 696 1456 715 1456 769 c 0
 1456 823 1475 842 1529 842 c 0
 1583 842 1602 823 1602 769 c 0
 1602 715 1583 696 1529 696 c 0
173 696 m 0
 119 696 100 715 100 769 c 0
 100 823 119 842 173 842 c 0
 227 842 246 823 246 769 c 0
 246 715 227 696 173 696 c 0
1257 290 m 0
 1257 344 1276 363 1330 363 c 0
 1384 363 1403 344 1403 290 c 0
 1403 236 1384 217 1330 217 c 0
 1276 217 1257 236 1257 290 c 0
299 1248 m 0
 299 1302 318 1321 372 1321 c 0
 426 1321 445 1302 445 1248 c 0
 445 1194 426 1175 372 1175 c 0
 318 1175 299 1194 299 1248 c 0
1330 1175 m 0
 1276 1175 1257 1194 1257 1248 c 0
 1257 1302 1276 1321 1330 1321 c 0
 1384 1321 1403 1302 1403 1248 c 0
 1403 1194 1384 1175 1330 1175 c 0
372 217 m 0
 318 217 299 236 299 290 c 0
 299 344 318 363 372 363 c 0
 426 363 445 344 445 290 c 0
 445 236 426 217 372 217 c 0
519 143 m 0
 519 197 538 215 592 215 c 0
 646 215 665 197 665 143 c 0
 665 89 646 69 592 69 c 0
 538 69 519 89 519 143 c 0
1110 1469 m 0
 1164 1469 1183 1449 1183 1395 c 0
 1183 1341 1164 1323 1110 1323 c 0
 1056 1323 1037 1341 1037 1395 c 0
 1037 1449 1056 1469 1110 1469 c 0
1477 437 m 0
 1423 437 1405 456 1405 510 c 0
 1405 564 1423 583 1477 583 c 0
 1531 583 1551 564 1551 510 c 0
 1551 456 1531 437 1477 437 c 0
151 1028 m 0
 151 1082 171 1101 225 1101 c 0
 279 1101 297 1082 297 1028 c 0
 297 974 279 955 225 955 c 0
 171 955 151 974 151 1028 c 0
1037 143 m 0
 1037 197 1056 215 1110 215 c 0
 1164 215 1183 197 1183 143 c 0
 1183 89 1164 69 1110 69 c 0
 1056 69 1037 89 1037 143 c 0
519 1395 m 0
 519 1449 538 1469 592 1469 c 0
 646 1469 665 1449 665 1395 c 0
 665 1341 646 1323 592 1323 c 0
 538 1323 519 1341 519 1395 c 0
1477 955 m 0
 1423 955 1405 974 1405 1028 c 0
 1405 1082 1423 1101 1477 1101 c 0
 1531 1101 1551 1082 1551 1028 c 0
 1551 974 1531 955 1477 955 c 0
225 437 m 0
 171 437 151 456 151 510 c 0
 151 564 171 583 225 583 c 0
 279 583 297 564 297 510 c 0
 297 456 279 437 225 437 c 0
EndSplineSet
EndChar

StartChar: uniA729
Encoding: 42793 42793 1959
Width: 1888
Flags: HW
LayerCount: 2
Fore
SplineSet
738 236 m 1
 781 35 l 1
 706 6 619 -11 536 -11 c 0
 351 -11 190 73 190 294 c 2
 190 1388 l 1
 497 1388 l 1
 497 329 l 2
 497 256 545 222 626 222 c 0
 660 222 700 226 738 236 c 1
EndSplineSet
Refer: 313 57354 N 1 0 0 1 -24 396 2
Refer: 1617 658 N 1 0 0 1 723 0 2
EndChar

StartChar: uniA730
Encoding: 42800 42800 1960
Width: 906
Flags: HW
LayerCount: 2
Fore
SplineSet
119 0 m 1
 119 1099 l 1
 854 1099 l 1
 854 850 l 1
 426 850 l 1
 426 606 l 1
 802 606 l 1
 802 409 l 1
 426 409 l 1
 426 0 l 1
 119 0 l 1
EndSplineSet
EndChar

StartChar: uniA731
Encoding: 42801 42801 1961
Width: 981
Flags: HW
LayerCount: 2
Fore
SplineSet
68 365 m 1
 335 365 l 1
 335 265 395 228 504 228 c 0
 581 228 645 251 645 317 c 0
 645 388 568 412 450 447 c 0
 288 494 93 554 93 778 c 0
 93 985 258 1109 472 1109 c 0
 718 1109 899 986 899 752 c 1
 631 754 l 1
 631 830 572 870 492 870 c 0
 411 870 362 840 362 778 c 0
 362 714 435 689 547 658 c 0
 715 612 914 550 914 322 c 0
 914 103 733 -10 513 -10 c 0
 251 -10 68 108 68 365 c 1
EndSplineSet
EndChar

StartChar: uniA733
Encoding: 42803 42803 1963
Width: 1794
Flags: HW
LayerCount: 2
Fore
SplineSet
554 1109 m 0
 865 1109 1022 957 1022 735 c 2
 1022 300 l 1
 715 302 l 1
 715 735 l 2
 715 827 656 870 540 870 c 0
 424 870 364 829 364 735 c 1
 102 735 l 1
 88 966 246 1109 554 1109 c 0
1216 1109 m 0
 1527 1109 1688 957 1688 735 c 2
 1688 289 l 1
 1688 221 1710 186 1783 186 c 1
 1783 -1 l 1
 1558 -35 1380 43 1380 291 c 2
 1380 735 l 2
 1380 827 1318 870 1202 870 c 0
 1086 870 1022 829 1022 735 c 1
 760 735 l 1
 746 966 908 1109 1216 1109 c 0
EndSplineSet
Refer: 314 57355 N 1 0 0 1 676 0 2
Refer: 314 57355 N 1 0 0 1 -10 0 2
EndChar

StartChar: uniA735
Encoding: 42805 42805 1965
Width: 1823
Flags: HW
LayerCount: 2
Fore
SplineSet
714 300 m 25
 714 735 l 2
 714 827 655 870 539 870 c 0
 423 870 363 829 363 735 c 1
 101 735 l 1
 87 966 246 1109 554 1109 c 0
 865 1109 1022 957 1022 735 c 2
 1022 297 l 1
 714 300 l 25
78 288 m 0
 78 531 295 631 522 631 c 2
 989 631 l 1
 989 463 l 1
 542 463 l 2
 440 463 349 422 349 326 c 0
 349 266 387 216 484 216 c 0
 601 216 680 282 718 330 c 1
 809 324 l 1
 765 200 663 -18 383 -18 c 0
 183 -18 78 96 78 288 c 0
EndSplineSet
Refer: 142 111 N 1 0 0 1 646 0 2
EndChar

StartChar: uniA736
Encoding: 42806 42806 1966
Width: 2135
Flags: HW
LayerCount: 2
Fore
SplineSet
1694 1470 m 1
 2002 1470 l 1
 2002 588 l 2
 2002 222 1791 0 1399 0 c 1
 1277 278 l 1
 1399 278 l 1
 1613 278 1694 404 1694 589 c 2
 1694 1470 l 1
EndSplineSet
Refer: 0 65 N 1 0 0 1 0 0 2
EndChar

StartChar: uniA737
Encoding: 42807 42807 1967
Width: 1819
Flags: HW
LayerCount: 2
Fore
SplineSet
101 735 m 1
 87 966 246 1109 554 1109 c 0
 865 1109 1022 957 1022 735 c 1
 1022 462 l 2
 1022 369 1082 296 1194 296 c 0
 1319 296 1385 386 1394 494 c 1
 1438 372 l 1
 1428 160 1294 -10 1062 -10 c 0
 842 -10 714 147 714 352 c 2
 714 735 l 1
 714 827 655 870 539 870 c 0
 423 870 363 829 363 735 c 1
 101 735 l 1
1394 1099 m 1
 1701 1099 l 1
 1701 0 l 1
 1409 0 l 1
 1394 265 l 1
 1394 1099 l 1
984 631 m 1
 984 463 l 1
 542 463 l 2
 440 463 349 422 349 326 c 0
 349 266 387 216 484 216 c 0
 601 216 680 282 718 330 c 1
 809 324 l 1
 765 200 663 -18 383 -18 c 0
 183 -18 78 96 78 288 c 0
 78 531 295 631 522 631 c 2
 984 631 l 1
EndSplineSet
EndChar

StartChar: uniA738
Encoding: 42808 42808 1968
Width: 1938
Flags: HW
LayerCount: 2
Fore
SplineSet
518 578 m 1
 880 578 l 1
 700 1109 l 1
 518 578 l 1
440 338 m 1
 326 0 l 1
 -3 0 l 1
 532 1462 l 1
 867 1462 l 1
 1240 352 l 1
 1612 1462 l 1
 1941 1462 l 1
 1407 0 l 1
 1071 0 l 1
 957 338 l 1
 440 338 l 1
EndSplineSet
EndChar

StartChar: uniA739
Encoding: 42809 42809 1969
Width: 1736
Flags: HW
LayerCount: 2
Fore
SplineSet
101 735 m 1
 87 966 246 1109 554 1109 c 0
 808 1109 952 1005 1001 848 c 2
 1171 332 l 1
 1412 1099 l 1
 1740 1099 l 1
 1350 0 l 1
 993 0 l 1
 711 777 l 2
 686 844 626 870 539 870 c 0
 423 870 363 829 363 735 c 1
 101 735 l 1
839 631 m 1
 839 463 l 1
 542 463 l 2
 440 463 349 422 349 326 c 0
 349 266 387 216 484 216 c 0
 601 216 680 282 718 330 c 1
 809 324 l 1
 765 200 663 -18 383 -18 c 0
 183 -18 78 96 78 288 c 0
 78 531 295 631 522 631 c 2
 839 631 l 1
EndSplineSet
EndChar

StartChar: uniA73A
Encoding: 42810 42810 1970
Width: 1938
Flags: HW
LayerCount: 2
Fore
SplineSet
923 1123 m 1
 1562 1123 l 1
 1562 883 l 1
 923 883 l 1
 923 1123 l 1
518 578 m 1
 880 578 l 1
 700 1109 l 1
 518 578 l 1
440 338 m 1
 326 0 l 1
 -3 0 l 1
 532 1462 l 1
 867 1462 l 1
 1240 352 l 1
 1612 1462 l 1
 1941 1462 l 1
 1407 0 l 1
 1071 0 l 1
 957 338 l 1
 440 338 l 1
EndSplineSet
EndChar

StartChar: uniA73B
Encoding: 42811 42811 1971
Width: 1736
Flags: HW
LayerCount: 2
Fore
SplineSet
952 884 m 1
 1353 884 l 1
 1353 716 l 1
 1003 716 l 1
 952 884 l 1
101 735 m 1
 87 966 246 1109 554 1109 c 0
 808 1109 952 1005 1001 848 c 2
 1171 332 l 1
 1412 1099 l 1
 1740 1099 l 1
 1350 0 l 1
 993 0 l 1
 711 777 l 2
 686 844 626 870 539 870 c 0
 423 870 363 829 363 735 c 1
 101 735 l 1
839 631 m 1
 839 463 l 1
 542 463 l 2
 440 463 349 422 349 326 c 0
 349 266 387 216 484 216 c 0
 601 216 680 282 718 330 c 1
 809 324 l 1
 765 200 663 -18 383 -18 c 0
 183 -18 78 96 78 288 c 0
 78 531 295 631 522 631 c 2
 839 631 l 1
EndSplineSet
EndChar

StartChar: uniA73C
Encoding: 42812 42812 1972
Width: 1925
Flags: HW
LayerCount: 2
Fore
SplineSet
722 1180 m 1
 518 578 l 1
 1085 578 l 1
 1085 634 l 1
 722 1180 l 1
532 1462 m 1
 894 1462 l 1
 1240 888 l 1
 1584 1462 l 1
 1940 1462 l 1
 1394 634 l 1
 1394 0 l 1
 1085 0 l 1
 1085 338 l 1
 440 338 l 1
 326 0 l 1
 -3 0 l 1
 532 1462 l 1
EndSplineSet
EndChar

StartChar: uniA73D
Encoding: 42813 42813 1973
Width: 1736
Flags: HW
LayerCount: 2
Fore
SplineSet
101 735 m 1
 87 966 246 1109 554 1109 c 0
 808 1109 952 1005 1001 848 c 2
 1171 332 l 1
 1412 1099 l 1
 1740 1099 l 1
 1182 -465 l 1
 833 -465 l 1
 1020 -11 l 1
 711 777 l 2
 686 844 626 870 539 870 c 0
 423 870 363 829 363 735 c 1
 101 735 l 1
839 631 m 1
 839 463 l 1
 542 463 l 2
 440 463 349 422 349 326 c 0
 349 266 387 216 484 216 c 0
 601 216 680 282 718 330 c 1
 809 324 l 1
 765 200 663 -18 383 -18 c 0
 183 -18 78 96 78 288 c 0
 78 531 295 631 522 631 c 2
 839 631 l 1
EndSplineSet
EndChar

StartChar: uniA760
Encoding: 42848 42848 1976
Width: 2460
Flags: HW
LayerCount: 2
Fore
SplineSet
2119 1462 m 1
 2475 1462 l 1
 1928 634 l 1
 1928 0 l 1
 1620 0 l 1
 1620 634 l 1
 1283 1140 l 1
 866 0 l 1
 530 0 l 1
 -3 1462 l 1
 326 1462 l 1
 698 352 l 1
 1071 1462 l 1
 1429 1462 l 1
 1774 888 l 1
 2119 1462 l 1
EndSplineSet
EndChar

StartChar: uniA761
Encoding: 42849 42849 1977
Width: 1954
Flags: HW
LayerCount: 2
Fore
SplineSet
1144 1099 m 1
 1389 332 l 1
 1630 1099 l 1
 1959 1099 l 1
 1400 -465 l 1
 1051 -465 l 1
 1238 -11 l 1
 984 650 l 1
 751 0 l 1
 394 0 l 1
 -4 1099 l 1
 325 1099 l 1
 572 332 l 1
 813 1099 l 1
 1144 1099 l 1
EndSplineSet
EndChar

StartChar: uniAB50
Encoding: 43856 43856 1980
Width: 1907
Flags: HW
LayerCount: 2
Fore
SplineSet
802 606 m 1
 1110 606 l 1
 1110 462 l 2
 1110 369 1170 296 1282 296 c 0
 1407 296 1473 386 1482 494 c 1
 1526 372 l 1
 1516 160 1382 -10 1150 -10 c 0
 930 -10 802 147 802 352 c 2
 802 606 l 1
1482 1099 m 1
 1789 1099 l 1
 1789 0 l 1
 1496 0 l 1
 1482 265 l 1
 1482 1099 l 1
EndSplineSet
Refer: 316 57357 N -1 0 0 -1 1175 1100 2
Refer: 160 46 N 1 0 0 1 664 798 2
EndChar

StartChar: uniE015
Encoding: 57365 57365 1981
Width: 1547
VWidth: 4096
Flags: HW
LayerCount: 2
Fore
SplineSet
1499 1066 m 1
 1499 969 l 1
 49 969 l 1
 49 1066 l 1
 1499 1066 l 1
EndSplineSet
EndChar

StartChar: uni031B
Encoding: 795 795 1982
Width: 717
VWidth: 4096
Flags: HW
LayerCount: 2
Fore
SplineSet
514 1602 m 1
 540 1518 567 1428 567 1344 c 0
 567 1213 479 1134 319 1134 c 2
 150 1134 l 1
 150 1277 l 1
 329 1277 l 2
 399 1277 420 1295 420 1345 c 0
 420 1393 398 1483 376 1552 c 1
 514 1602 l 1
EndSplineSet
EndChar

StartChar: uni1D0F
Encoding: 7439 7439 1983
Width: 1136
Flags: HW
LayerCount: 2
Fore
SplineSet
569 1109 m 0
 921 1109 1068 879 1068 549 c 0
 1068 219 919 -11 569 -11 c 0
 219 -11 68 219 68 549 c 0
 68 879 217 1109 569 1109 c 0
569 864 m 0
 431 864 349 759 349 549 c 0
 349 339 430 233 569 233 c 0
 708 233 788 339 788 549 c 0
 788 759 707 864 569 864 c 0
EndSplineSet
EndChar

StartChar: uniE016
Encoding: 57366 57366 1984
Width: 417
Flags: HW
LayerCount: 2
Fore
SplineSet
69 891 m 1
 69 1051 l 1
 349 1051 l 1
 349 891 l 1
 69 891 l 1
EndSplineSet
Colour: ffff00
EndChar

StartChar: uniE017
Encoding: 57367 57367 1985
Width: 700
Flags: HW
LayerCount: 2
Fore
SplineSet
639 1040 m 1
 694 912 l 1
 62 654 l 1
 6 782 l 1
 639 1040 l 1
EndSplineSet
EndChar

StartChar: uniAB5B
Encoding: 43867 43867 1986
Width: 787
VWidth: 0
Flags: HW
LayerCount: 2
Fore
SplineSet
394 1453 m 0
 593 1453 704 1326 704 1134 c 1
 567 1134 l 1
 567 1253 506 1316 394 1316 c 0
 282 1316 220 1253 220 1134 c 1
 82 1134 l 1
 82 1326 195 1453 394 1453 c 0
EndSplineSet
EndChar

StartChar: zero.SC
Encoding: 1114600 -1 1987
Width: 1055
Flags: HW
LayerCount: 2
Fore
SplineSet
529 1106 m 0
 910 1106 953 773 953 550 c 0
 953 327 910 -8 529 -8 c 0
 148 -8 102 327 102 550 c 0
 102 773 148 1106 529 1106 c 0
529 856 m 0
 408 856 356 767 356 550 c 0
 356 333 408 241 529 241 c 0
 650 241 700 332 700 550 c 0
 700 768 650 856 529 856 c 0
EndSplineSet
EndChar

StartChar: one.SC
Encoding: 1114601 -1 1988
Width: 767
Flags: HW
LayerCount: 2
Fore
SplineSet
379 676 m 1
 334 626 216 584 28 584 c 1
 28 824 l 1
 296 824 379 877 379 1099 c 1
 655 1099 l 1
 655 0 l 1
 379 0 l 1
 379 676 l 1
EndSplineSet
EndChar

StartChar: two.SC
Encoding: 1114602 -1 1989
Width: 935
Flags: HW
LayerCount: 2
Fore
SplineSet
80 705 m 1
 58 939 224 1106 475 1106 c 0
 711 1106 858 966 858 738 c 0
 858 554 760 484 610 394 c 0
 557 362 482 317 453 262 c 1
 862 262 l 1
 862 0 l 1
 79 0 l 1
 45 264 164 396 390 512 c 0
 544 593 598 649 598 726 c 0
 598 803 542 850 462 850 c 0
 378 850 321 796 330 712 c 1
 80 705 l 1
EndSplineSet
EndChar

StartChar: three.SC
Encoding: 1114603 -1 1990
Width: 962
Flags: HW
LayerCount: 2
Fore
SplineSet
69 366 m 1
 330 366 l 1
 330 281 386 237 474 237 c 0
 555 237 607 282 607 355 c 0
 607 435 546 480 444 480 c 2
 359 480 l 1
 362 637 l 1
 457 637 l 2
 541 637 593 684 593 752 c 0
 593 830 534 866 468 866 c 0
 398 866 348 825 348 760 c 1
 117 760 l 1
 101 978 239 1109 469 1109 c 0
 660 1109 823 997 823 784 c 0
 823 714 786 617 703 568 c 1
 790 526 850 419 850 318 c 0
 850 105 677 -6 461 -6 c 0
 217 -6 53 120 69 366 c 1
EndSplineSet
EndChar

StartChar: four.SC
Encoding: 1114604 -1 1991
Width: 1090
Flags: HW
LayerCount: 2
Fore
SplineSet
537 432 m 1
 537 798 l 1
 282 432 l 1
 537 432 l 1
537 202 m 1
 79 202 l 1
 79 502 l 1
 517 1099 l 1
 839 1099 l 1
 839 432 l 1
 1017 432 l 1
 1017 202 l 1
 839 202 l 1
 839 0 l 1
 537 0 l 1
 537 202 l 1
EndSplineSet
EndChar

StartChar: five.SC
Encoding: 1114605 -1 1992
Width: 966
Flags: HW
LayerCount: 2
Fore
SplineSet
104 348 m 1
 356 345 l 1
 356 274 398 234 473 234 c 0
 551 234 596 281 596 376 c 0
 596 472 554 523 464 523 c 0
 401 523 350 497 298 442 c 1
 112 534 l 1
 162 1099 l 1
 845 1099 l 1
 845 862 l 1
 377 862 l 1
 361 690 l 1
 413 718 465 734 529 734 c 0
 744 734 863 598 863 367 c 0
 863 122 726 -8 482 -8 c 0
 241 -8 104 119 104 348 c 1
EndSplineSet
EndChar

StartChar: six.SC
Encoding: 1114606 -1 1993
Width: 998
Flags: HW
LayerCount: 2
Fore
SplineSet
508 504 m 0
 456 504 396 477 367 435 c 1
 368 290 423 229 503 229 c 1
 583 229 635 282 635 369 c 0
 635 452 584 504 508 504 c 0
520 1106 m 0
 735 1106 866 970 866 772 c 1
 639 771 l 1
 639 817 597 867 519 867 c 0
 408 867 363 758 363 623 c 1
 414 674 495 696 575 696 c 0
 763 696 892 578 892 346 c 0
 892 109 735 -10 515 -10 c 0
 234 -10 107 174 107 511 c 0
 107 889 246 1106 520 1106 c 0
EndSplineSet
EndChar

StartChar: seven.SC
Encoding: 1114607 -1 1994
Width: 1026
Flags: HW
LayerCount: 2
Fore
SplineSet
106 843 m 1
 106 1099 l 1
 884 1099 l 1
 926 898 l 1
 694 648 558 348 558 0 c 1
 281 0 l 1
 281 327 392 650 554 843 c 1
 106 843 l 1
EndSplineSet
EndChar

StartChar: eight.SC
Encoding: 1114608 -1 1995
Width: 985
Flags: HW
LayerCount: 2
Fore
SplineSet
494 1106 m 0
 716 1106 848 966 848 810 c 0
 848 722 812 632 725 574 c 1
 835 504 883 401 883 299 c 0
 883 133 779 -8 494 -8 c 0
 209 -8 103 134 103 300 c 0
 103 402 150 505 260 574 c 1
 173 632 138 722 138 810 c 0
 138 966 272 1106 494 1106 c 0
493 881 m 0
 427 881 387 839 387 767 c 0
 387 694 427 651 493 651 c 0
 559 651 599 694 599 767 c 0
 599 839 559 881 493 881 c 0
490 479 m 0
 413 479 363 430 363 353 c 0
 363 277 412 231 493 231 c 0
 573 231 621 275 621 350 c 0
 621 427 569 479 490 479 c 0
EndSplineSet
EndChar

StartChar: nine.SC
Encoding: 1114609 -1 1996
Width: 998
Flags: HW
LayerCount: 2
Fore
SplineSet
490 593 m 0
 542 593 603 620 632 662 c 1
 631 807 575 868 495 868 c 1
 415 868 364 814 364 727 c 0
 364 644 414 593 490 593 c 0
479 -10 m 0
 264 -10 133 126 133 324 c 1
 360 326 l 1
 360 280 401 230 479 230 c 0
 590 230 636 339 636 474 c 1
 585 423 504 400 424 400 c 0
 236 400 107 519 107 751 c 0
 107 988 264 1106 484 1106 c 0
 765 1106 892 922 892 585 c 0
 892 207 753 -10 479 -10 c 0
EndSplineSet
EndChar

StartChar: slash.fraction
Encoding: 1114610 -1 1997
Width: 1925
Flags: HW
LayerCount: 2
Fore
SplineSet
667 0 m 1
 350 0 l 1
 1258 1462 l 1
 1575 1462 l 1
 667 0 l 1
EndSplineSet
EndChar

StartChar: uniE018
Encoding: 57368 57368 1998
Width: 1142
Flags: HW
LayerCount: 2
Fore
SplineSet
321 21 m 1
 159 21 l 1
 821 1254 l 1
 984 1254 l 1
 321 21 l 1
EndSplineSet
EndChar

StartChar: slash.sc
Encoding: 1114611 -1 1999
Width: 1032
Flags: HW
LayerCount: 2
Fore
SplineSet
588 1099 m 1
 956 1099 l 1
 445 0 l 1
 76 0 l 1
 588 1099 l 1
EndSplineSet
EndChar

StartChar: uniE01A
Encoding: 57370 57370 2001
Width: 1342
Flags: HW
LayerCount: 2
Fore
SplineSet
353 207 m 1
 266 335 l 1
 995 1280 l 1
 1079 1149 l 1
 353 207 l 1
EndSplineSet
EndChar

StartChar: macron.alt
Encoding: 1114613 -1 2002
Width: 748
Flags: HW
LayerCount: 2
Fore
SplineSet
666 1319 m 1
 666 1134 l 1
 82 1134 l 1
 82 1319 l 1
 666 1319 l 1
EndSplineSet
EndChar

StartChar: uni0600
Encoding: 1536 1536 2003
Width: 3037
Flags: HW
LayerCount: 2
Fore
SplineSet
2192 308 m 1
 2172 336 2162 372 2162 413 c 0
 2162 637 2294 844 2471 1037 c 1
 2697 834 l 1
 2542 670 2469 541 2469 432 c 0
 2469 318 2570 282 2687 256 c 2
 2974 196 l 1
 2882 -106 l 1
 2648 -33 2469 0 2319 0 c 2
 64 0 l 1
 64 308 l 1
 2192 308 l 1
EndSplineSet
EndChar

StartChar: uni061C
Encoding: 1564 1564 2004
Width: 2548
Flags: HW
LayerCount: 2
Fore
SplineSet
928 1136 m 1
 1162 1136 l 1
 1162 1047 l 1
 928 1047 l 1
 928 1136 l 1
1394 1136 m 1
 1628 1136 l 1
 1628 1047 l 1
 1394 1047 l 1
 1394 1136 l 1
2258 1047 m 1
 1860 1047 l 1
 1860 1136 l 1
 2348 1134 l 1
 2348 826 l 1
 2258 826 l 1
 2258 1047 l 1
200 1136 m 1
 696 1136 l 1
 696 1047 l 1
 290 1049 l 1
 290 828 l 1
 200 828 l 1
 200 1136 l 1
1630 -280 m 1
 1396 -280 l 1
 1396 -190 l 1
 1630 -190 l 1
 1630 -280 l 1
200 -280 m 1
 698 -280 l 1
 698 -190 l 1
 290 -190 l 1
 290 30 l 1
 200 30 l 1
 200 -280 l 1
2258 -190 m 1
 1862 -190 l 1
 1862 -280 l 1
 2348 -280 l 1
 2348 28 l 1
 2258 28 l 1
 2258 -190 l 1
1164 -280 m 1
 930 -280 l 1
 930 -190 l 1
 1164 -190 l 1
 1164 -280 l 1
2258 261 m 1
 2258 594 l 1
 2348 594 l 1
 2348 261 l 1
 2258 261 l 1
290 596 m 1
 290 263 l 1
 200 263 l 1
 200 596 l 1
 290 596 l 1
EndSplineSet
Refer: 1652 7437 N 0.5 0 0 0.5 1388 146 2
Refer: 1646 7424 N 0.5 0 0 0.5 386 146 2
Refer: 1622 671 N 0.5 0 0 0.5 907 146 2
EndChar

StartChar: guillemotleft.alt
Encoding: 1114614 -1 2005
Width: 930
VWidth: 2150
Flags: HW
LayerCount: 2
Fore
SplineSet
446 727 m 0
 446 916 572 1081 750 1217 c 1
 875 1067 l 1
 753 971 651 862 651 727 c 0
 651 592 753 483 875 387 c 1
 750 236 l 1
 572 372 446 538 446 727 c 0
55 727 m 0
 55 929 134 1100 300 1287 c 1
 463 1155 l 1
 351 1022 276 886 276 727 c 0
 276 568 351 432 463 299 c 1
 300 167 l 1
 134 354 55 525 55 727 c 0
EndSplineSet
EndChar

StartChar: guillemotright.alt
Encoding: 1114615 -1 2006
Width: 930
VWidth: 2150
Flags: HW
LayerCount: 2
Fore
SplineSet
485 727 m 0
 485 538 359 372 181 236 c 1
 55 387 l 1
 177 483 279 592 279 727 c 0
 279 862 177 971 55 1067 c 1
 181 1217 l 1
 359 1081 485 916 485 727 c 0
875 727 m 0
 875 525 797 354 631 167 c 1
 468 299 l 1
 580 432 654 568 654 727 c 0
 654 886 580 1022 468 1155 c 1
 631 1287 l 1
 797 1100 875 929 875 727 c 0
EndSplineSet
EndChar

StartChar: minute
Encoding: 8242 8242 2007
Width: 469
Flags: HW
LayerCount: 2
Fore
SplineSet
206 1462 m 1
 377 1462 l 1
 228 970 l 1
 92 970 l 1
 206 1462 l 1
EndSplineSet
EndChar

StartChar: uni2035
Encoding: 8245 8245 2010
Width: 469
Flags: HW
LayerCount: 2
Fore
SplineSet
264 1462 m 1
 377 970 l 1
 241 970 l 1
 92 1462 l 1
 264 1462 l 1
EndSplineSet
EndChar

StartChar: zero.onum
Encoding: 1114670 -1 2067
Width: 1342
Flags: HW
LayerCount: 2
Fore
SplineSet
438 130 m 1
 351 258 l 1
 926 1004 l 1
 1010 873 l 1
 438 130 l 1
673 1109 m 0
 1073 1109 1236 820 1236 548 c 0
 1236 276 1074 -12 674 -12 c 0
 274 -12 112 276 112 548 c 0
 112 820 273 1109 673 1109 c 0
673 823 m 0
 493 823 420 690 420 548 c 0
 420 406 494 273 674 273 c 0
 854 273 928 406 928 548 c 0
 928 690 853 823 673 823 c 0
EndSplineSet
EndChar

StartChar: one.onum
Encoding: 1114671 -1 2068
Width: 876
Flags: HW
LayerCount: 2
Fore
SplineSet
414 690 m 1
 366 632 238 592 50 592 c 1
 50 832 l 1
 318 832 414 877 414 1099 c 1
 719 1099 l 1
 719 0 l 1
 414 0 l 1
 414 690 l 1
EndSplineSet
EndChar

StartChar: two.onum
Encoding: 1114672 -1 2069
Width: 1097
Flags: HW
LayerCount: 2
Fore
SplineSet
722 698 m 0
 722 792 646 854 533 854 c 0
 418 854 347 788 354 682 c 1
 86 682 l 1
 65 932 257 1109 548 1109 c 0
 814 1109 992 962 992 744 c 0
 992 601 916 485 776 410 c 2
 539 262 l 1
 1005 262 l 1
 1005 0 l 1
 80 0 l 1
 80 253 l 1
 534 485 l 2
 664 550 722 616 722 698 c 0
EndSplineSet
EndChar

StartChar: three.onum
Encoding: 1114673 -1 2070
Width: 1175
Flags: HW
LayerCount: 2
Fore
SplineSet
544 291 m 2
 409 291 l 1
 409 507 l 1
 544 507 l 2
 650 507 742 602 742 698 c 0
 742 795 664 854 554 854 c 0
 438 854 372 789 382 682 c 1
 106 682 l 1
 87 934 275 1109 566 1109 c 0
 835 1109 1021 958 1021 730 c 0
 1021 591 944 481 807 407 c 1
 967 353 1042 235 1042 71 c 0
 1042 -188 849 -352 536 -352 c 0
 204 -352 17 -173 37 137 c 1
 339 137 l 1
 326 -14 412 -98 570 -98 c 0
 704 -98 786 -27 786 85 c 0
 786 197 699 291 544 291 c 2
EndSplineSet
EndChar

StartChar: four.onum
Encoding: 1114674 -1 2071
Width: 1275
Flags: HW
LayerCount: 2
Fore
SplineSet
684 238 m 1
 684 697 l 1
 334 238 l 1
 684 238 l 1
684 0 m 1
 80 0 l 1
 80 233 l 1
 711 1099 l 1
 993 1099 l 1
 993 238 l 1
 1203 238 l 1
 1203 0 l 1
 993 0 l 1
 993 -354 l 1
 684 -354 l 1
 684 0 l 1
EndSplineSet
EndChar

StartChar: five.onum
Encoding: 1114675 -1 2072
Width: 1215
Flags: HW
LayerCount: 2
Fore
SplineSet
225 -4 m 1
 297 -47 406 -82 511 -82 c 0
 693 -82 804 -15 804 126 c 0
 804 274 689 332 541 332 c 0
 443 332 340 304 272 264 c 1
 148 360 l 1
 198 1099 l 1
 1063 1099 l 1
 1063 854 l 1
 442 854 l 1
 421 551 l 1
 461 562 511 570 557 570 c 0
 875 570 1073 409 1073 119 c 0
 1073 -193 848 -369 520 -369 c 0
 373 -369 244 -330 110 -248 c 1
 225 -4 l 1
EndSplineSet
EndChar

StartChar: six.onum
Encoding: 1114676 -1 2073
Width: 1209
Flags: HW
LayerCount: 2
Fore
SplineSet
617 251 m 0
 729 251 816 333 816 469 c 0
 816 593 734 670 627 670 c 0
 471 670 347 532 295 404 c 1
 258 631 l 1
 341 781 472 912 678 912 c 0
 930 912 1116 738 1116 471 c 0
 1116 177 917 -14 612 -14 c 0
 288 -14 107 201 107 584 c 0
 107 1025 348 1336 795 1474 c 1
 898 1235 l 1
 541 1121 398 938 398 553 c 0
 398 368 459 251 617 251 c 0
EndSplineSet
EndChar

StartChar: seven.onum
Encoding: 1114677 -1 2074
Width: 1136
Flags: HW
LayerCount: 2
Fore
SplineSet
1066 836 m 1
 757 502 577 110 577 -354 c 1
 284 -354 l 1
 284 82 454 520 713 828 c 1
 69 828 l 1
 69 1099 l 1
 1012 1099 l 1
 1066 836 l 1
EndSplineSet
EndChar

StartChar: eight.onum
Encoding: 1114678 -1 2075
Width: 1239
Flags: HW
LayerCount: 2
Fore
SplineSet
620 1472 m 0
 914 1472 1089 1263 1089 1079 c 0
 1089 959 1030 843 916 765 c 1
 1062 670 1136 530 1136 398 c 0
 1136 202 948 -11 620 -11 c 0
 292 -11 103 204 103 400 c 0
 103 532 176 671 322 765 c 1
 208 843 150 959 150 1078 c 0
 150 1262 326 1472 620 1472 c 0
620 1231 m 0
 516 1231 453 1143 453 1052 c 0
 453 937 517 869 620 869 c 0
 723 869 784 937 784 1052 c 0
 784 1144 724 1231 620 1231 c 0
616 639 m 0
 495 639 417 557 417 440 c 0
 417 328 494 244 620 244 c 0
 744 244 820 326 820 436 c 0
 820 554 740 639 616 639 c 0
EndSplineSet
EndChar

StartChar: nine.onum
Encoding: 1114679 -1 2076
Width: 1209
Flags: HW
LayerCount: 2
Fore
SplineSet
606 844 m 0
 494 844 407 762 407 626 c 0
 407 502 488 424 595 424 c 0
 751 424 876 562 928 690 c 1
 964 464 l 1
 881 314 750 183 544 183 c 0
 292 183 107 357 107 624 c 0
 107 918 305 1109 610 1109 c 0
 934 1109 1116 894 1116 511 c 0
 1116 70 875 -226 428 -364 c 1
 324 -126 l 1
 681 -12 825 156 825 541 c 0
 825 726 764 844 606 844 c 0
EndSplineSet
EndChar

StartChar: approxequal
Encoding: 8776 8776 2079
Width: 1149
Flags: HW
LayerCount: 2
Fore
SplineSet
89 366 m 1
 183 500 287 568 396 568 c 0
 453 568 518 549 593 505 c 0
 661 466 721 444 760 444 c 0
 813 444 874 482 938 556 c 1
 1059 439 l 1
 960 303 859 240 746 240 c 0
 688 240 634 259 543 308 c 0
 464 350 414 368 378 368 c 0
 326 368 274 333 216 257 c 1
 89 366 l 1
89 854 m 1
 183 988 287 1057 396 1057 c 0
 453 1057 518 1037 593 993 c 0
 661 954 721 933 760 933 c 0
 813 933 874 970 938 1044 c 1
 1059 927 l 1
 960 791 859 728 746 728 c 0
 688 728 634 746 543 795 c 0
 464 837 414 856 378 856 c 0
 326 856 274 821 216 745 c 1
 89 854 l 1
EndSplineSet
EndChar

StartChar: uni1D01
Encoding: 7425 7425 2081
Width: 1382
Flags: HW
LayerCount: 2
Fore
SplineSet
428 420 m 1
 589 420 l 1
 589 805 l 1
 544 805 l 1
 428 420 l 1
311 0 m 1
 -3 0 l 1
 366 1099 l 1
 1324 1099 l 1
 1324 850 l 1
 896 850 l 1
 896 647 l 1
 1272 647 l 1
 1272 450 l 1
 896 450 l 1
 896 246 l 1
 1324 246 l 1
 1324 0 l 1
 589 0 l 1
 589 236 l 1
 379 236 l 1
 311 0 l 1
EndSplineSet
EndChar

